<svg id="Layer_1" data-name="Layer 1" xmlns="http://www.w3.org/2000/svg" xmlns:xlink="http://www.w3.org/1999/xlink" viewBox="0 0 414 204"><defs><style>.cls-1{fill:none;}.cls-2,.cls-7{font-size:8.71px;}.cls-2,.cls-5{fill:#f4f4f4;}.cls-2,.cls-9{font-family:SegoeUI-Bold, Segoe UI;font-weight:700;}.cls-3{letter-spacing:-0.02em;}.cls-4{letter-spacing:0em;}.cls-6{font-size:7.42px;fill:#67696b;font-family:SegoeUI, Segoe UI;}.cls-8{fill:#f0f1f2;}.cls-9{font-size:10.72px;}.cls-10{clip-path:url(#clip-path);}.cls-11{clip-path:url(#clip-path-2);}</style><clipPath id="clip-path"><rect class="cls-1" y="-191.5" width="414" height="189"/></clipPath><clipPath id="clip-path-2"><rect class="cls-1" x="-63" y="-191.08" width="531" height="188.47"/></clipPath><image id="image" width="1281" height="663" xlink:href="../../../../../Volumes/SSDreamLine/PensionLife%20Logo/Logo%20Files/Full%20Lockup/Lockup%20Black%20n%20White.png"/></defs><title>Contacts 6</title><g id="Contacts"><rect y="-11.5" width="414" height="216"/><g id="Contact"><text class="cls-2" transform="translate(141.68 27.16)">Check a<tspan class="cls-3" x="31.54" y="0">v</tspan><tspan x="36.13" y="0">ailable booking da</tspan><tspan class="cls-4" x="112.01" y="0">t</tspan><tspan x="115.36" y="0">es</tspan></text><rect class="cls-5" x="122.86" y="39.42" width="165.54" height="14.52"/><rect class="cls-5" x="122.86" y="55.24" width="165.54" height="14.52"/><rect class="cls-5" x="122.86" y="71.05" width="165.54" height="14.52"/><rect class="cls-5" x="122.86" y="86.86" width="165.54" height="54.86"/><text class="cls-6" transform="translate(125.73 50.03)">Name*</text><text class="cls-6" transform="translate(125.48 65.84)">Email*</text><text class="cls-6" transform="translate(125.72 81.98)">Mobile*</text><text class="cls-6" transform="translate(123.94 95.53)">Comment<tspan class="cls-7" x="32.33" y="0">*</tspan></text><rect class="cls-8" x="170.61" y="146.23" width="65.18" height="14.2"/><text class="cls-9" transform="translate(174.36 157.07)">Check Now</text><use transform="translate(298.41 50.25) scale(0.09)" xlink:href="#image"/><use transform="translate(-0.73 50.4) scale(0.09)" xlink:href="#image"/></g></g><g id="Testimonial"><g class="cls-10"><g class="cls-11"><image width="4877" height="3449" transform="translate(-62.99 -224.67) scale(0.11 0.14)" xlink:href="../../../../../Volumes/SSDreamLine/PensionLife%20Logo/Website%20Prototype/Images/Fraud.jpg"/></g></g></g></svg>