<svg xmlns="http://www.w3.org/2000/svg" xmlns:xlink="http://www.w3.org/1999/xlink" viewBox="0 0 414 240"><defs><style>.cls-1{fill:url(#linear-gradient);}.cls-2{fill:url(#linear-gradient-2);}.cls-3{fill:url(#linear-gradient-3);}.cls-4{fill:url(#linear-gradient-4);}.cls-5{fill:none;}.cls-6{fill:#fff;}.cls-7{fill:#231f20;}.cls-8{fill:#6d6d6d;}.cls-9{isolation:isolate;}.cls-10{clip-path:url(#clip-path);}.cls-11{clip-path:url(#clip-path-2);}.cls-12{clip-path:url(#clip-path-3);}.cls-13{clip-path:url(#clip-path-4);}.cls-14{clip-path:url(#clip-path-5);}.cls-15{clip-path:url(#clip-path-6);}.cls-16{clip-path:url(#clip-path-7);}.cls-17{clip-path:url(#clip-path-8);}.cls-18,.cls-32{fill:#021d49;}.cls-19{fill:#1a1a1a;mix-blend-mode:multiply;}.cls-20{mask:url(#mask);}.cls-21{clip-path:url(#clip-path-9);}.cls-22{fill:#606060;}.cls-23{mask:url(#mask-2);}.cls-24{clip-path:url(#clip-path-10);}.cls-25{fill:#7c7c7c;}.cls-26{fill:#c1c1c1;}.cls-27{mask:url(#mask-3);}.cls-28{clip-path:url(#clip-path-11);}.cls-29{mask:url(#mask-4);}.cls-30{clip-path:url(#clip-path-12);}.cls-31{fill:#848484;}.cls-32{opacity:0.75;mix-blend-mode:overlay;}</style><linearGradient id="linear-gradient" x1="-192.23" y1="84.22" x2="-191.43" y2="84.22" gradientTransform="matrix(100.05, 100.05, 100.05, -100.05, 10943.09, 27512.09)" gradientUnits="userSpaceOnUse"><stop offset="0" stop-color="#fff"/><stop offset="0.06" stop-color="#dadada"/><stop offset="0.16" stop-color="#a7a7a7"/><stop offset="0.26" stop-color="#7b7b7b"/><stop offset="0.37" stop-color="#555"/><stop offset="0.48" stop-color="#363636"/><stop offset="0.59" stop-color="#1e1e1e"/><stop offset="0.71" stop-color="#0d0d0d"/><stop offset="0.84" stop-color="#030303"/><stop offset="1"/></linearGradient><linearGradient id="linear-gradient-2" x1="-191.74" y1="79.5" x2="-190.94" y2="79.5" gradientTransform="matrix(53.34, 53.34, 53.34, -53.34, 6091.56, 14429.9)" xlink:href="#linear-gradient"/><linearGradient id="linear-gradient-3" x1="-192.64" y1="83.26" x2="-192.22" y2="83.26" gradientTransform="matrix(-100.05, 100.05, -100.05, -100.05, -10544.64, 27512.09)" xlink:href="#linear-gradient"/><linearGradient id="linear-gradient-4" x1="-192.86" y1="78.33" x2="-192.44" y2="78.33" gradientTransform="translate(-5693.06 14429.9) rotate(135) scale(75.43)" xlink:href="#linear-gradient"/><clipPath id="clip-path"><rect class="cls-5" y="237" width="414" height="189"/></clipPath><clipPath id="clip-path-2"><rect class="cls-5" x="-63" y="237.42" width="531" height="188.47"/></clipPath><clipPath id="clip-path-3"><rect class="cls-5" x="155.87" y="52.24" width="81.29" height="72"/></clipPath><clipPath id="clip-path-4"><rect class="cls-5" x="257.2" y="52.34" width="81" height="71.74"/></clipPath><clipPath id="clip-path-5"><rect class="cls-5" x="39.29" y="141.5" width="81" height="71.74"/></clipPath><clipPath id="clip-path-6"><rect class="cls-5" x="161.84" y="141.5" width="81" height="71.74"/></clipPath><clipPath id="clip-path-7"><rect class="cls-5" x="265.51" y="141.5" width="81" height="71.74"/></clipPath><clipPath id="clip-path-8"><polygon class="cls-5" points="-1.71 -138.49 413.97 -138.61 414 -0.12 -1.67 -0.01 -1.71 -138.49"/></clipPath><mask id="mask" x="1.83" y="-281.55" width="421.95" height="420.23" maskUnits="userSpaceOnUse"><polygon class="cls-1" points="212.8 -281.55 423.78 -71.44 212.8 138.68 1.83 -71.44 212.8 -281.55"/></mask><clipPath id="clip-path-9"><polygon class="cls-6" points="212.8 -281.55 423.78 -71.44 212.8 138.68 1.83 -71.44 212.8 -281.55"/></clipPath><mask id="mask-2" x="74.03" y="-67.67" width="122.75" height="122.24" maskUnits="userSpaceOnUse"><polygon class="cls-2" points="135.42 -67.08 196.19 -6.55 135.42 53.98 74.62 -6.55 135.42 -67.08"/></mask><clipPath id="clip-path-10"><polygon class="cls-8" points="135.42 -67.08 196.19 -6.55 135.42 53.98 74.62 -6.55 135.42 -67.08"/></clipPath><mask id="mask-3" x="249.53" y="-161.62" width="219.18" height="218.29" maskUnits="userSpaceOnUse"><polygon class="cls-3" points="359.12 -161.62 249.53 -52.48 359.12 56.66 468.71 -52.48 359.12 -161.62"/></mask><clipPath id="clip-path-11"><polygon class="cls-6" points="359.12 -161.62 249.53 -52.48 359.12 56.66 468.71 -52.48 359.12 -161.62"/></clipPath><mask id="mask-4" x="367.45" y="-50.54" width="63.78" height="63.51" maskUnits="userSpaceOnUse"><polygon class="cls-4" points="399.33 -50.22 367.76 -18.78 399.33 12.66 430.92 -18.78 399.33 -50.22"/></mask><clipPath id="clip-path-12"><polygon class="cls-7" points="399.33 -50.22 367.76 -18.78 399.33 12.66 430.92 -18.78 399.33 -50.22"/></clipPath></defs><title>Gallery 4</title><g class="cls-9"><g id="Layer_1" data-name="Layer 1"><g id="Testimonial"><g class="cls-10"><g class="cls-11"><image width="4877" height="3449" transform="translate(-62.99 203.83) scale(0.11 0.14)" xlink:href="../../../../../Volumes/SSDreamLine/PensionLife%20Logo/Website%20Prototype/Images/Fraud.jpg"/></g></g></g><g id="Gallery"><rect class="cls-6" x="-9" y="-3" width="423" height="243"/><image width="6433" height="4533" transform="translate(29.63 52.64) scale(0.02)" xlink:href="../../../../../Volumes/SSDreamLine/PensionLife%20Logo/Website%20Prototype/Images/6.jpg"/><g class="cls-12"><image width="3967" height="5950" transform="translate(155.87 33.95) scale(0.02)" xlink:href="../../../../../Volumes/SSDreamLine/PensionLife%20Logo/Website%20Prototype/Images/1.jpg"/></g><g class="cls-13"><image width="5841" height="3894" transform="translate(222.48 39.62) scale(0.02)" xlink:href="../../../../../Volumes/SSDreamLine/PensionLife%20Logo/Website%20Prototype/Images/4.jpg"/></g><g class="cls-14"><image width="5760" height="3840" transform="translate(22.36 138.98) scale(0.02)" xlink:href="../../../../../Volumes/SSDreamLine/PensionLife%20Logo/Website%20Prototype/Images/3.jpg"/></g><g class="cls-15"><image width="6000" height="4000" transform="translate(161.91 140.87) scale(0.02)" xlink:href="../../../../../Volumes/SSDreamLine/PensionLife%20Logo/Website%20Prototype/Images/5.jpg"/></g><g class="cls-16"><image width="5612" height="3746" transform="translate(249.45 140.24) scale(0.02)" xlink:href="../../../../../Volumes/SSDreamLine/PensionLife%20Logo/Website%20Prototype/Images/2.jpg"/></g></g><g id="Nav_bar_2" data-name="Nav bar 2"><g class="cls-17"><rect class="cls-18" x="-9.54" y="-150.3" width="428.71" height="160.88"/><rect class="cls-19" x="-6.96" y="-148.67" width="429.71" height="156.45"/><path class="cls-7" d="M207.17,30.59,110.36-65.83A8.08,8.08,0,0,1,108-71.55h0a8.1,8.1,0,0,1,2.36-5.73h0l96.58-96.18a8.13,8.13,0,0,1,5.73-2.35h0a8.2,8.2,0,0,1,5.77,2.35h0l-.1.09-.06.08a7.87,7.87,0,0,0-5.61-2.3h0a7.75,7.75,0,0,0-5.56,2.3h0L110.52-77.13a7.86,7.86,0,0,0-2.32,5.58h0A7.85,7.85,0,0,0,110.52-66h0l96.8,96.43a8,8,0,0,0,5.61,2.29h0a7.92,7.92,0,0,0,5.6-2.29h0l96.59-96.17a8,8,0,0,0,2.3-5.59h0a7.93,7.93,0,0,0-2.3-5.55h0l-96.84-96.42.06-.08.1-.09L315.28-77a8.12,8.12,0,0,1,2.32,5.7h0a8.18,8.18,0,0,1-2.32,5.74h0L218.66,30.59A8,8,0,0,1,212.93,33h0a8.16,8.16,0,0,1-5.76-2.37Z"/><g class="cls-20"><polygon class="cls-6" points="212.8 -281.55 423.78 -71.44 212.8 138.68 1.83 -71.44 212.8 -281.55"/><g class="cls-21"><polygon class="cls-7" points="423.78 -273.77 9.64 138.68 1.83 138.68 1.83 -13.43 271.06 -281.55 423.78 -281.55 423.78 -273.77"/><polygon class="cls-7" points="9.64 138.68 423.78 -273.77 423.78 138.68 9.64 138.68"/></g></g><path class="cls-22" d="M57,6.49l-71.1-70.82a8.4,8.4,0,0,1-2.46-6h0a8.39,8.39,0,0,1,2.46-6h0L56.8-146.85a8.45,8.45,0,0,1,6-2.47h0a8.43,8.43,0,0,1,6,2.47h0L139.85-76a8.41,8.41,0,0,1,2.46,5.94h0a8.43,8.43,0,0,1-2.46,6h0L68.94,6.49a8.46,8.46,0,0,1-6,2.42h0a8.42,8.42,0,0,1-6-2.42ZM-15.72-70.28a7.45,7.45,0,0,0,2.22,5.34h0L57.6,5.86A7.54,7.54,0,0,0,63,8.06h0a7.72,7.72,0,0,0,5.39-2.2h0l70.89-70.61a7.48,7.48,0,0,0,2.23-5.36h0a7.46,7.46,0,0,0-2.23-5.33h0L68.15-146.23a7.57,7.57,0,0,0-5.36-2.22h0a7.57,7.57,0,0,0-5.4,2.22h0L-13.5-75.64a7.51,7.51,0,0,0-2.22,5.36Z"/><path class="cls-8" d="M129.47,20.9h0L107.84-.65a8.4,8.4,0,0,1-2.48-5.95h0a8.38,8.38,0,0,1,2.48-6h0L129.38-34a8.47,8.47,0,0,1,6-2.46h0a8.5,8.5,0,0,1,6,2.46h0L163-12.47a8.45,8.45,0,0,1,2.48,5.94h0a8.45,8.45,0,0,1-2.48,6h0L141.42,20.9a8.36,8.36,0,0,1-6,2.47h0a8.43,8.43,0,0,1-6-2.47Zm6,1.6a7.54,7.54,0,0,0,5.35-2.22h0L162.37-1.17a7.57,7.57,0,0,0,2.21-5.36h0a7.43,7.43,0,0,0-2.21-5.32h0L140.72-33.42a7.59,7.59,0,0,0-5.36-2.19h0A7.55,7.55,0,0,0,130-33.42h0L108.43-11.94a7.48,7.48,0,0,0-2.2,5.34h0a7.48,7.48,0,0,0,2.2,5.34h0l21.64,21.54-.3.32.3-.32a7.63,7.63,0,0,0,5.38,2.22Z"/><g class="cls-23"><polygon class="cls-8" points="135.42 -67.08 196.19 -6.55 135.42 53.98 74.62 -6.55 135.42 -67.08"/><g class="cls-24"><polygon class="cls-8" points="196.19 -43.38 98.43 53.98 74.62 53.98 74.62 -7.53 134.41 -67.08 196.19 -67.08 196.19 -43.38"/><polygon class="cls-8" points="98.43 53.98 196.19 -43.38 196.19 53.98 98.43 53.98"/></g><path class="cls-8" d="M74-6.55l61.06-60.83.33-.29L196.78-6.55,135.42,54.57,74-6.55Zm1.21,0,60.18,59.91L195.57-6.55,135.42-66.46,75.24-6.55Z"/></g><path class="cls-25" d="M212.93,30.46l-.42-.06a2.79,2.79,0,0,1-1.23-.24,1.84,1.84,0,0,1-.84-.32,4.11,4.11,0,0,1-.94-.6,15.53,15.53,0,0,1-2-1.93c-3.05-3-7.48-7.4-13.11-13C183.11,3.14,167-12.83,147.62-32L116.35-62.93,112.15-67l-.27-.27-.25-.31-.48-.58c-.15-.22-.27-.48-.4-.72l-.18-.34c0-.14-.1-.25-.14-.39l-.21-.77-.08-.78a3.66,3.66,0,0,1,0-.81,3.13,3.13,0,0,1,.11-.79,6.91,6.91,0,0,1,.54-1.52,7.07,7.07,0,0,1,.92-1.31c.71-.78,1.43-1.45,2.14-2.15,1.42-1.45,2.88-2.89,4.32-4.36L135.84-99.9,172.93-137q9.49-9.47,19.09-19.07,4.8-4.8,9.62-9.6l4.79-4.82,1.22-1.2.3-.3.12-.15.26-.18.65-.53a6.57,6.57,0,0,1,3.69-1.2l1,.08a5,5,0,0,1,.93.21,4,4,0,0,1,.95.37,8.44,8.44,0,0,1,.83.47l.78.64c.23.2.38.38.62.58l1.2,1.21,4.81,4.82c3.22,3.2,6.39,6.38,9.59,9.6L252.45-137,289.52-99.9l17.69,17.75c1.46,1.46,2.89,2.91,4.31,4.36.75.7,1.47,1.39,2.15,2.12.21.23.32.4.5.59a4.24,4.24,0,0,1,.46.65l.38.73a7.27,7.27,0,0,1,.27.78,8.63,8.63,0,0,1,.23,1.57,3.64,3.64,0,0,1-.09.78l0,.38a2.16,2.16,0,0,1-.12.39l-.23.8-.36.69c-.06.1-.12.24-.19.35l-.25.32-.53.59c-1.39,1.38-2.79,2.77-4.21,4.12C298.43-51.95,288-41.59,278.25-32c-19.36,19.18-35.46,35.15-46.74,46.35-5.66,5.57-10.06,10-13.07,13a18.56,18.56,0,0,1-2.07,1.93,3.72,3.72,0,0,1-.94.6,1.83,1.83,0,0,1-.85.32,2.64,2.64,0,0,1-1.22.24l-.43.06m0,0,.43-.06a3.78,3.78,0,0,0,1.22-.24,2.45,2.45,0,0,0,.85-.33,4.52,4.52,0,0,0,.94-.59c.64-.47,1.25-1.21,2-1.93,3-3,7.41-7.43,13.05-13C242.7,3.05,258.73-13,278-32.27c9.6-9.66,20-20.08,31-31.15,1.37-1.38,2.75-2.77,4.18-4.18l.41-.52.22-.27a3.26,3.26,0,0,0,.15-.32l.35-.58.19-.65c0-.11.07-.22.1-.31l0-.38c0-.23.07-.55.07-.72a10,10,0,0,0-.23-1.35c-.39-1.77-2.2-3.06-3.6-4.51S308-80,306.55-81.51c-5.82-5.73-11.77-11.62-17.84-17.61L251.44-136c-6.34-6.31-12.77-12.65-19.14-19-3.24-3.21-6.45-6.39-9.65-9.58l-4.83-4.8-1.23-1.19c-.19-.2-.41-.43-.58-.59l-.58-.45a6.77,6.77,0,0,0-.65-.36,3.27,3.27,0,0,0-.62-.26,2.52,2.52,0,0,0-.71-.15l-.78-.09a5.29,5.29,0,0,0-2.68.82l-.65.53c-.12.1-.06,0-.12.1l-.14.15-.33.3-1.2,1.19-4.81,4.8c-3.25,3.19-6.46,6.37-9.66,9.58q-9.62,9.53-19.14,19c-12.69,12.58-25.19,24.95-37.3,36.92-6.06,6-12,11.88-17.84,17.61l-4.34,4.3c-.72.72-1.48,1.41-2.12,2.13a4.25,4.25,0,0,0-.81,1.16,3.65,3.65,0,0,0-.48,1.28,3.21,3.21,0,0,0-.11.68,2.41,2.41,0,0,0,0,.71l0,.68.19.66c0,.11.07.22.11.33l.16.29a4.8,4.8,0,0,0,.3.6l.47.59.21.25.26.25c1.39,1.41,2.79,2.8,4.16,4.19,11,11.06,21.43,21.49,31,31.14l46.53,46.54c5.63,5.61,10,10,13.05,13,.78.72,1.4,1.46,2,1.93a4.05,4.05,0,0,0,.94.59,2.48,2.48,0,0,0,.84.33,4.08,4.08,0,0,0,1.23.24l.42.06"/><path class="cls-25" d="M212.93,30.44l0,.44a2.58,2.58,0,0,0-.43,0h-.06a4.53,4.53,0,0,1-1.23-.25h0a3.35,3.35,0,0,1-1-.36h0a6.12,6.12,0,0,1-1-.62h0a19.22,19.22,0,0,1-2.1-2h0c-3-3-7.46-7.39-13.09-13h0c-11.31-11.19-27.4-27.18-46.72-46.34h0L116-62.62h0c-1.37-1.38-2.76-2.74-4.17-4.13h0l-.29-.29-.26-.31-.51-.63c-.15-.24-.28-.5-.41-.74h0l-.22-.4q-.07-.22-.12-.42h0l-.24-.8v0l-.09-.78a1.67,1.67,0,0,1,0-.38h0a4.11,4.11,0,0,1,0-.53h0a5.63,5.63,0,0,1,.12-.86h0a5.82,5.82,0,0,1,.57-1.55h0a5.31,5.31,0,0,1,1-1.45h0c.71-.78,1.44-1.45,2.13-2.19h0c1.45-1.42,2.89-2.87,4.33-4.33h0l17.68-17.77h0c12.05-12,24.46-24.47,37.08-37.15h0c6.31-6.29,12.69-12.68,19.1-19.07h0c3.17-3.19,6.41-6.39,9.62-9.59h0l4.79-4.82,1.19-1.2.33-.28.14-.13a.83.83,0,0,1,.25-.24h0l.68-.59a7.34,7.34,0,0,1,4-1.25h0l.88.09h0a3.87,3.87,0,0,1,1.06.23h0a5.86,5.86,0,0,1,1,.4h0c.23.14.56.27.92.52h0l.74.61a5.66,5.66,0,0,1,.65.64h0l1.2,1.2L224-166l9.61,9.59h0c6.42,6.39,12.76,12.78,19.11,19.07h0c12.6,12.68,25,25.1,37.06,37.15h0l17.71,17.77h0c1.44,1.46,2.87,2.91,4.33,4.33h0L314-75.95h0a5.11,5.11,0,0,1,.54.63h0a3.11,3.11,0,0,1,.48.69h0l.39.76a3.41,3.41,0,0,1,.27.77h0a6.64,6.64,0,0,1,.28,1.69h0v.09c0,.32-.05.55-.08.8h0l0,.4c0,.18-.12.32-.15.45h0l-.27.84v0l-.37.7a3.53,3.53,0,0,1-.22.43h0l-.26.29-.52.63c-1.43,1.39-2.83,2.78-4.22,4.13h0c-11.07,11-21.6,21.34-31.29,30.91h0c-19.33,19.16-35.46,35.15-46.73,46.34h0c-5.63,5.6-10.06,10-13.08,13h0c-.79.7-1.39,1.43-2.07,1.91h0a5.12,5.12,0,0,1-1,.67h0a3.52,3.52,0,0,1-.93.36h0a6.19,6.19,0,0,1-1.33.26h0a1.81,1.81,0,0,0-.39,0h0l-.07-.44Zm0-.42a3.61,3.61,0,0,1,.4,0h0a3.38,3.38,0,0,0,1.09-.23h0a2.21,2.21,0,0,0,.78-.3h0a3.68,3.68,0,0,0,.88-.53h0a27.79,27.79,0,0,0,2-1.93h0c3-3,7.41-7.4,13-13h0c11.27-11.24,27.3-27.29,46.56-46.55h0l31-31.16h0c1.4-1.37,2.79-2.75,4.15-4.14h0l.45-.55.17-.2a1.36,1.36,0,0,0,.15-.3h0l.29-.56.2-.6c0-.14.06-.2.06-.23h0l0-.35a5,5,0,0,0,.07-.66h0a5.09,5.09,0,0,0-.17-1.22h0l0,0v0c-.32-1.54-2-2.84-3.47-4.29h0c-1.45-1.43-2.91-2.87-4.34-4.3h0c-5.83-5.77-11.79-11.63-17.85-17.64h0c-12.1-12-24.58-24.34-37.31-36.91h0c-6.31-6.3-12.72-12.65-19.13-19h0q-4.81-4.78-9.66-9.57h0l-4.83-4.8-1.19-1.18a3.52,3.52,0,0,0-.59-.55h0l-.54-.46-.59-.34h0a1.9,1.9,0,0,0-.54-.18h0a1.45,1.45,0,0,0-.62-.18h0l-.75-.05a4.57,4.57,0,0,0-2.43.71h0l-.64.51s-.08.05-.08.07h0l-.15.16-.29.29-1.23,1.2-4.82,4.8c-3.22,3.19-6.45,6.38-9.63,9.57h0q-9.66,9.54-19.16,19h0c-12.7,12.57-25.19,25-37.3,36.91h0c-6.05,6-12,11.87-17.82,17.64h0c-1.47,1.43-2.93,2.87-4.38,4.3h0c-.71.71-1.45,1.41-2.08,2.1h0a5.41,5.41,0,0,0-.75,1h0l0,.06v0a4.14,4.14,0,0,0-.41,1.16h0a3,3,0,0,0-.09.66h0a1.49,1.49,0,0,0,0,.36h0a.44.44,0,0,0,0,.2h0l0,.66.18.62a1.81,1.81,0,0,1,.09.29h0l.14.27c.1.22.21.42.25.52h0l.48.57.19.22.25.29c1.4,1.4,2.8,2.78,4.16,4.18h0l31,31.13h0C167.43-13.31,183.49,2.74,194.7,14h0c5.63,5.61,10,10,13.06,13h0a21.34,21.34,0,0,0,2,1.93h0a3.51,3.51,0,0,0,.87.55h0a2.65,2.65,0,0,0,.79.3h0a4.17,4.17,0,0,0,1.09.21h.1c.13,0,.26,0,.29,0Zm-.19-203,.74.08a4.14,4.14,0,0,1,.78.18h0a2.1,2.1,0,0,1,.74.31h0a5.27,5.27,0,0,1,.71.36h0l.56.49c.22.19.45.43.65.61h0l1.2,1.2,4.82,4.78c3.21,3.18,6.42,6.4,9.64,9.57h0q9.63,9.59,19.15,19h0c12.69,12.58,25.21,24.93,37.28,36.92h0q9.12,9,17.83,17.63h0l4.38,4.28h0a12.17,12.17,0,0,0,.88.88h0l-.88-.88h0c-1.42-1.45-2.88-2.87-4.31-4.32h0L289.23-99.59h0c-12-12.07-24.46-24.5-37.08-37.17h0c-6.35-6.3-12.69-12.66-19.1-19.07h0c-3.21-3.17-6.42-6.39-9.63-9.6h0l-4.79-4.8-1.23-1.18a3.68,3.68,0,0,0-.58-.6h0l-.75-.61a6,6,0,0,0-.81-.46h0a3.88,3.88,0,0,0-.81-.32h0a7.11,7.11,0,0,0-.77-.18h-.1l-.88-.11a6.54,6.54,0,0,0-3.46,1.11h0l-.65.52-.16.14h0l0,0h0l-.16.14-.29.33-1.2,1.18-4.79,4.8c-3.24,3.21-6.45,6.43-9.66,9.61h0c-6.37,6.4-12.76,12.76-19.07,19.06h0L136.16-99.59h0c-6,6-11.93,11.94-17.69,17.76h0c-1.45,1.45-2.9,2.89-4.32,4.32h0c1.43-1.42,2.89-2.85,4.35-4.28h0q8.73-8.67,17.84-17.63h0c12.08-12,24.59-24.34,37.31-36.92h0q9.53-9.47,19.14-19h0c3.2-3.17,6.41-6.39,9.62-9.57h0l4.85-4.78,1.2-1.2.29-.32.14-.12c.06,0,0,0,.12-.1h0l0,0h0l.72-.57a5.92,5.92,0,0,1,2.91-.88h.07Z"/><path class="cls-25" d="M-4.86,49.42l-.38,0c-.12,0-.28,0-.47-.06l-.63-.19a4.67,4.67,0,0,1-.76-.36c-.25-.17-.52-.4-.8-.63C-8.42,47.61-9,47-9.71,46.35c-2.75-2.76-6.79-6.76-11.93-11.84C-31.9,24.3-46.57,9.75-64.17-7.73L-92.64-35.89l-3.82-3.77-.48-.48-.25-.25c-.11-.11-.15-.18-.23-.26a3.87,3.87,0,0,1-.42-.54l-.35-.68a4.71,4.71,0,0,1-.21-2.82,5.59,5.59,0,0,1,.26-.72l.33-.65a10,10,0,0,1,1-1.08c.63-.65,1.29-1.3,1.94-1.94,1.29-1.3,2.61-2.64,3.92-3.93q7.9-8,16.13-16.18c11-11,22.27-22.29,33.78-33.83,5.77-5.75,11.57-11.55,17.4-17.34,2.91-2.92,5.82-5.81,8.75-8.75l4.4-4.38,1.08-1.11.56-.52.26-.29.13-.14a2.34,2.34,0,0,1,.2-.15l.3-.24a1.47,1.47,0,0,1,.34-.24,8.21,8.21,0,0,1,.83-.43,5.73,5.73,0,0,1,.85-.24l.44-.05.23,0A.85.85,0,0,0-5-137l.77.11a3.52,3.52,0,0,1,.9.24,6.78,6.78,0,0,1,.81.4,3.49,3.49,0,0,1,.7.53c.79.73,1.47,1.47,2.22,2.19l4.39,4.38c2.92,2.94,5.83,5.83,8.75,8.75,5.83,5.79,11.62,11.59,17.4,17.34C42.4-91.48,53.72-80.16,64.68-69.19Q72.9-61,80.8-53c1.32,1.31,2.64,2.65,3.94,4l2,1.94.48.49.12.12.12.16.22.27.21.26.18.35a2.21,2.21,0,0,1,.32.68,4.29,4.29,0,0,1,0,2.85,3.22,3.22,0,0,1-.3.66,2.75,2.75,0,0,1-.37.62c-.16.17-.3.37-.47.54l-.48.48-3.82,3.77C72.83-25.9,63.27-16.46,54.46-7.73c-17.6,17.48-32.28,32-42.55,42.24C6.78,39.59,2.74,43.59,0,46.35c-.69.67-1.3,1.26-1.82,1.8a9.87,9.87,0,0,1-.79.63,5.61,5.61,0,0,1-.76.36l-.62.19c-.2,0-.36,0-.49.06l-.38,0m0,0,.38,0c.13,0,.29,0,.49-.06l.62-.19a5.16,5.16,0,0,0,.75-.37,7.92,7.92,0,0,0,.8-.62C-1.31,47.61-.7,47,0,46.33c2.74-2.75,6.76-6.76,11.88-11.87L54.26-7.92,82.55-36.26l3.79-3.82a4.78,4.78,0,0,0,1.45-2.06,3.71,3.71,0,0,0,0-2.48,2.83,2.83,0,0,0-.25-.57l-.14-.25-.21-.28L86.93-46l-.09-.12-.11-.09-.5-.49c-.65-.66-1.31-1.31-2-1.94-1.3-1.31-2.64-2.61-4-3.92q-7.95-7.87-16.24-16.05c-11-10.92-22.38-22.21-33.95-33.66-5.76-5.73-11.58-11.52-17.43-17.3-2.91-2.92-5.85-5.84-8.78-8.75l-4.4-4.36c-.72-.7-1.47-1.49-2.19-2.15-.18-.12-.32-.29-.52-.41a6.4,6.4,0,0,0-.59-.29c-.2-.06-.38-.12-.59-.17l-.77-.1s-.08,0-.11,0l-.17,0-.35,0a4.83,4.83,0,0,0-.62.18c-.21.07-.36.18-.56.26a1.35,1.35,0,0,0-.28.23l-.31.23s-.14.12-.11.08l-.13.13-.28.28-.56.56-1.09,1.08-4.4,4.36q-4.39,4.37-8.77,8.75c-5.85,5.78-11.66,11.57-17.44,17.3-11.57,11.45-22.94,22.74-34,33.66l-16.23,16c-1.32,1.3-2.65,2.62-4,3.9l-2,2a6.49,6.49,0,0,0-.88,1l-.3.55c-.1.19-.12.39-.21.58a4.2,4.2,0,0,0,.15,2.51l.29.54A2.71,2.71,0,0,0-97-41c.06.06.14.19.19.24l.23.23.48.48,3.79,3.8C-82.23-26.2-72.75-16.71-64-7.92l42.41,42.38c5.1,5.11,9.13,9.12,11.88,11.87l1.81,1.8a5.46,5.46,0,0,0,.8.64,5.16,5.16,0,0,0,.75.37l.63.19c.19,0,.35,0,.47.06l.38,0"/><path class="cls-25" d="M-4.86,49.42l0,.33a2.89,2.89,0,0,0-.37,0h0l-.5,0h0l0,0h0c-.17,0-.39-.12-.63-.19h0a7.28,7.28,0,0,1-.85-.4h0c-.27-.2-.54-.43-.83-.69h0L-10,46.56h0c-2.73-2.73-6.76-6.74-11.89-11.82h0C-32.11,24.54-46.79,10-64.41-7.5h0c-8.81-8.74-18.36-18.17-28.46-28.17h0c-1.27-1.24-2.53-2.52-3.81-3.77h0l-.49-.45-.23-.25-.28-.32h0a4,4,0,0,1-.45-.59h0l-.37-.7a4.8,4.8,0,0,1-.35-1.83h0a5.07,5.07,0,0,1,.15-1.21h0c.08-.19.12-.47.26-.77h0l.37-.69h0a8.05,8.05,0,0,1,1-1.1h0l2-2h0c1.31-1.29,2.61-2.62,3.92-3.93h0q7.92-7.95,16.13-16.18h0l33.79-33.81h0q8.65-8.62,17.39-17.36h0c2.91-2.91,5.82-5.82,8.76-8.73h0l4.38-4.39,1.09-1.1.56-.54.28-.28.14-.16c.14-.11.15-.13.2-.15h0l.31-.27a2.42,2.42,0,0,1,.38-.27h0a6.16,6.16,0,0,1,.89-.43h0a5.05,5.05,0,0,1,.92-.26h0l.44-.06.22,0c.07,0,.1,0,.29,0h0l.84.09a6.2,6.2,0,0,1,.94.28h0a5.47,5.47,0,0,1,.84.41h0a6.69,6.69,0,0,1,.77.58h0c.8.74,1.48,1.47,2.23,2.21h0L5-129.32l8.75,8.73h0l17.4,17.36h0C42.62-91.72,54-80.39,64.9-69.42h0L81-53.24h0c1.31,1.31,2.63,2.64,3.93,3.92h0c.65.66,1.31,1.33,2,2h0l.47.48.14.14.14.15.21.28.25.3v0l.17.33a2.83,2.83,0,0,1,.33.72h0a4.2,4.2,0,0,1,.28,1.55h0a4.5,4.5,0,0,1-.25,1.5h0a4.11,4.11,0,0,1-.31.73h0a3.25,3.25,0,0,1-.43.67h0c-.14.16-.3.38-.48.59h0l-.49.45c-1.28,1.25-2.55,2.53-3.81,3.77h0c-10.1,10-19.66,19.44-28.47,28.17h0C37.07,10,22.41,24.54,12.14,34.74h0C7,39.82,3,43.83.23,46.56h0c-.68.69-1.3,1.29-1.84,1.82h0a9.33,9.33,0,0,1-.88.7h0a7.14,7.14,0,0,1-.78.37h0c-.26.07-.46.15-.64.19h0a4.23,4.23,0,0,1-.49.06h0a2.55,2.55,0,0,0-.37,0h0l0-.33Zm0-.31.34,0h0l.44-.06h0l.61-.19h0a3.11,3.11,0,0,0,.67-.33h0a5,5,0,0,0,.74-.58h0l1.82-1.81h0c2.74-2.75,6.76-6.77,11.89-11.87h0L54-8.15h0C62.8-16.92,72.28-26.43,82.32-36.5h0c1.25-1.25,2.52-2.51,3.8-3.81h0a4.51,4.51,0,0,0,1.37-1.94h0a3.36,3.36,0,0,0,.18-1.11h0a3.33,3.33,0,0,0-.2-1.16h0l0,0v0a1.5,1.5,0,0,0-.23-.47h0l-.13-.23-.19-.23-.21-.29-.07-.09L86.49-46,86-46.45c-.65-.67-1.3-1.31-2-1.95h0c-1.34-1.29-2.64-2.61-4-3.9h0Q72.14-60.2,63.86-68.38h0c-11-10.9-22.39-22.2-33.95-33.64h0L12.48-119.34h0c-2.92-2.91-5.85-5.79-8.79-8.7h0L-.7-132.43c-.74-.72-1.48-1.49-2.16-2.12h0a3.27,3.27,0,0,0-.47-.36h0a4.12,4.12,0,0,1-.53-.3h0c-.22,0-.39-.12-.58-.16h0l-.66-.07s0,0,0,0h-.26l-.32,0-.58.16h0a3.71,3.71,0,0,1-.56.27h0s0,0,0,0h0s-.1.07-.15.12h0l-.31.27-.09.06h0l-.12.12-.27.27-.55.55-1.1,1.09L-13.89-128q-4.38,4.33-8.77,8.7h0L-40.09-102h0C-51.67-90.58-63-79.29-74-68.38h0L-90.28-52.31h0c-1.32,1.3-2.65,2.59-4,3.91h0c-.66.64-1.31,1.28-2,1.95h0a10.41,10.41,0,0,0-.84.91h0l-.27.54c-.05.11-.08.29-.16.48h0a3.73,3.73,0,0,0-.14,1h0a3.87,3.87,0,0,0,.25,1.32h0l.28.54a2.63,2.63,0,0,0,.35.46h0c.07.07.13.18.16.2h0l0,0,.22.24.49.46c1.27,1.3,2.52,2.56,3.79,3.81h0C-82-26.43-72.52-16.92-63.76-8.15h0C-46.22,9.4-31.59,24-21.36,34.24h0l11.9,11.87h0l1.78,1.77h0A7.46,7.46,0,0,0-7,48.5h0a6.46,6.46,0,0,0,.71.33h0l.61.19h0c.16,0,.3,0,.43.06h.07l.28,0ZM-4.33-136h0c.25.07.44.14.62.2h0a2.94,2.94,0,0,1,.64.31h0a3.12,3.12,0,0,1,.6.45h0c.73.67,1.47,1.46,2.2,2.14h0l4.39,4.38q4.41,4.35,8.79,8.72h0c5.84,5.8,11.65,11.6,17.44,17.32h0C41.92-91,53.3-79.74,64.31-68.81h0C69.82-63.38,75.25-58,80.55-52.76h0c1.33,1.29,2.65,2.6,4,3.91h0c.16.16.34.32.49.48h0c-.15-.16-.31-.32-.49-.48h0c-1.29-1.32-2.61-2.62-3.92-4h0Q72.66-60.69,64.46-69h0c-11-11-22.29-22.28-33.78-33.79h0Q22-111.38,13.27-120.14h0l-8.75-8.74h0L.13-133.26c-.75-.75-1.43-1.45-2.2-2.16h0a3.42,3.42,0,0,0-.63-.51h0a5.53,5.53,0,0,0-.76-.39h0c-.3-.07-.6-.18-.83-.23h0l-.76-.06h-.22l-.23,0-.4,0c-.26.05-.54.16-.82.23h0a6.47,6.47,0,0,0-.78.4h0a1.85,1.85,0,0,0-.29.22h0l-.29.23a.94.94,0,0,1-.18.14h0l-.14.15-.27.29-.55.53-1.09,1.1-4.39,4.38-8.76,8.74h0q-8.73,8.74-17.39,17.37h0C-52.35-91.26-63.69-79.93-74.64-69h0q-8.19,8.25-16.13,16.14h0c-1.16,1.2-2.32,2.37-3.48,3.53h0l3.51-3.48h0q8-7.89,16.24-16h0c11-10.93,22.38-22.23,34-33.67h0C-34.78-108.2-29-114-23.11-119.8h0l8.77-8.72h0l4.4-4.38,1.1-1.09.55-.53.27-.27.11-.1s0,0,0,0h0a.35.35,0,0,0,.08,0h0l.06-.06h0l.3-.25a1.77,1.77,0,0,1,.36-.26h0c.16-.06.32-.17.61-.28h0l.65-.18h0l.33,0,.14,0h.11l0,.2-.07-.2.09.27,0-.29.79.09Zm-3,1.31h0Zm-.27,0,.26,0-.26,0Zm-.06-.08v0Zm2.41-.68.08-.19h0l-.08.19Z"/><path class="cls-25" d="M-4.86,49.42l-.38,0c-.12,0-.28,0-.47-.06l-.63-.19a4.67,4.67,0,0,1-.76-.36c-.25-.17-.52-.4-.8-.63C-8.42,47.61-9,47-9.71,46.35c-2.75-2.76-6.79-6.76-11.93-11.84C-31.9,24.3-46.57,9.75-64.17-7.73L-92.64-35.89l-3.82-3.77-.48-.48-.25-.25c-.11-.11-.15-.18-.23-.26a3.87,3.87,0,0,1-.42-.54l-.35-.68a4.71,4.71,0,0,1-.21-2.82,5.59,5.59,0,0,1,.26-.72l.33-.65a10,10,0,0,1,1-1.08c.63-.65,1.29-1.3,1.94-1.94,1.29-1.3,2.61-2.64,3.92-3.93q7.9-8,16.13-16.18c11-11,22.27-22.29,33.78-33.83,5.77-5.75,11.57-11.55,17.4-17.34,2.91-2.92,5.82-5.81,8.75-8.75l4.4-4.38,1.08-1.11.56-.52.26-.29.13-.14a2.34,2.34,0,0,1,.2-.15l.3-.24a1.47,1.47,0,0,1,.34-.24,8.21,8.21,0,0,1,.83-.43,5.73,5.73,0,0,1,.85-.24l.44-.05.23,0A.85.85,0,0,0-5-137l.77.11a3.52,3.52,0,0,1,.9.24,6.78,6.78,0,0,1,.81.4,3.49,3.49,0,0,1,.7.53c.79.73,1.47,1.47,2.22,2.19l4.39,4.38c2.92,2.94,5.83,5.83,8.75,8.75,5.83,5.79,11.62,11.59,17.4,17.34C42.4-91.48,53.72-80.16,64.68-69.19Q72.9-61,80.8-53c1.32,1.31,2.64,2.65,3.94,4l2,1.94.48.49.12.12.12.16.22.27.21.26.18.35a2.21,2.21,0,0,1,.32.68,4.29,4.29,0,0,1,0,2.85,3.22,3.22,0,0,1-.3.66,2.75,2.75,0,0,1-.37.62c-.16.17-.3.37-.47.54l-.48.48-3.82,3.77C72.83-25.9,63.27-16.46,54.46-7.73c-17.6,17.48-32.28,32-42.55,42.24C6.78,39.59,2.74,43.59,0,46.35c-.69.67-1.3,1.26-1.82,1.8a9.87,9.87,0,0,1-.79.63,5.61,5.61,0,0,1-.76.36l-.62.19c-.2,0-.36,0-.49.06l-.38,0m0,0,.38,0c.13,0,.29,0,.49-.06l.62-.19a5.16,5.16,0,0,0,.75-.37,7.92,7.92,0,0,0,.8-.62C-1.31,47.61-.7,47,0,46.33c2.74-2.75,6.76-6.76,11.88-11.87L54.26-7.92,82.55-36.26l3.79-3.82a4.78,4.78,0,0,0,1.45-2.06,3.71,3.71,0,0,0,0-2.48,2.83,2.83,0,0,0-.25-.57l-.14-.25-.21-.28L86.93-46l-.09-.12-.11-.09-.5-.49c-.65-.66-1.31-1.31-2-1.94-1.3-1.31-2.64-2.61-4-3.92q-7.95-7.87-16.24-16.05c-11-10.92-22.38-22.21-33.95-33.66-5.76-5.73-11.58-11.52-17.43-17.3-2.91-2.92-5.85-5.84-8.78-8.75l-4.4-4.36c-.72-.7-1.47-1.49-2.19-2.15-.18-.12-.32-.29-.52-.41a6.4,6.4,0,0,0-.59-.29c-.2-.06-.38-.12-.59-.17l-.77-.1s-.08,0-.11,0l-.17,0-.35,0a4.83,4.83,0,0,0-.62.18c-.21.07-.36.18-.56.26a1.35,1.35,0,0,0-.28.23l-.31.23s-.14.12-.11.08l-.13.13-.28.28-.56.56-1.09,1.08-4.4,4.36q-4.39,4.37-8.77,8.75c-5.85,5.78-11.66,11.57-17.44,17.3-11.57,11.45-22.94,22.74-34,33.66l-16.23,16c-1.32,1.3-2.65,2.62-4,3.9l-2,2a6.49,6.49,0,0,0-.88,1l-.3.55c-.1.19-.12.39-.21.58a4.2,4.2,0,0,0,.15,2.51l.29.54A2.71,2.71,0,0,0-97-41c.06.06.14.19.19.24l.23.23.48.48,3.79,3.8C-82.23-26.2-72.75-16.71-64-7.92l42.41,42.38c5.1,5.11,9.13,9.12,11.88,11.87l1.81,1.8a5.46,5.46,0,0,0,.8.64,5.16,5.16,0,0,0,.75.37l.63.19c.19,0,.35,0,.47.06l.38,0"/><path class="cls-25" d="M-4.86,49.42l0,.33a2.89,2.89,0,0,0-.37,0h0l-.5,0h0l0,0h0c-.17,0-.39-.12-.63-.19h0a7.28,7.28,0,0,1-.85-.4h0c-.27-.2-.54-.43-.83-.69h0L-10,46.56h0c-2.73-2.73-6.76-6.74-11.89-11.82h0C-32.11,24.54-46.79,10-64.41-7.5h0c-8.81-8.74-18.36-18.17-28.46-28.17h0c-1.27-1.24-2.53-2.52-3.81-3.77h0l-.49-.45-.23-.25-.28-.32h0a4,4,0,0,1-.45-.59h0l-.37-.7a4.8,4.8,0,0,1-.35-1.83h0a5.07,5.07,0,0,1,.15-1.21h0c.08-.19.12-.47.26-.77h0l.37-.69h0a8.05,8.05,0,0,1,1-1.1h0l2-2h0c1.31-1.29,2.61-2.62,3.92-3.93h0q7.92-7.95,16.13-16.18h0l33.79-33.81h0q8.65-8.62,17.39-17.36h0c2.91-2.91,5.82-5.82,8.76-8.73h0l4.38-4.39,1.09-1.1.56-.54.28-.28.14-.16c.14-.11.15-.13.2-.15h0l.31-.27a2.42,2.42,0,0,1,.38-.27h0a6.16,6.16,0,0,1,.89-.43h0a5.05,5.05,0,0,1,.92-.26h0l.44-.06.22,0c.07,0,.1,0,.29,0h0l.84.09a6.2,6.2,0,0,1,.94.28h0a5.47,5.47,0,0,1,.84.41h0a6.69,6.69,0,0,1,.77.58h0c.8.74,1.48,1.47,2.23,2.21h0L5-129.32l8.75,8.73h0l17.4,17.36h0C42.62-91.72,54-80.39,64.9-69.42h0L81-53.24h0c1.31,1.31,2.63,2.64,3.93,3.92h0c.65.66,1.31,1.33,2,2h0l.47.48.14.14.14.15.21.28.25.3v0l.17.33a2.83,2.83,0,0,1,.33.72h0a4.2,4.2,0,0,1,.28,1.55h0a4.5,4.5,0,0,1-.25,1.5h0a4.11,4.11,0,0,1-.31.73h0a3.25,3.25,0,0,1-.43.67h0c-.14.16-.3.38-.48.59h0l-.49.45c-1.28,1.25-2.55,2.53-3.81,3.77h0c-10.1,10-19.66,19.44-28.47,28.17h0C37.07,10,22.41,24.54,12.14,34.74h0C7,39.82,3,43.83.23,46.56h0c-.68.69-1.3,1.29-1.84,1.82h0a9.33,9.33,0,0,1-.88.7h0a7.14,7.14,0,0,1-.78.37h0c-.26.07-.46.15-.64.19h0a4.23,4.23,0,0,1-.49.06h0a2.55,2.55,0,0,0-.37,0h0l0-.33Zm0-.31.34,0h0l.44-.06h0l.61-.19h0a3.11,3.11,0,0,0,.67-.33h0a5,5,0,0,0,.74-.58h0l1.82-1.81h0c2.74-2.75,6.76-6.77,11.89-11.87h0L54-8.15h0C62.8-16.92,72.28-26.43,82.32-36.5h0c1.25-1.25,2.52-2.51,3.8-3.81h0a4.51,4.51,0,0,0,1.37-1.94h0a3.36,3.36,0,0,0,.18-1.11h0a3.33,3.33,0,0,0-.2-1.16h0l0,0v0a1.5,1.5,0,0,0-.23-.47h0l-.13-.23-.19-.23-.21-.29-.07-.09L86.49-46,86-46.45c-.65-.67-1.3-1.31-2-1.95h0c-1.34-1.29-2.64-2.61-4-3.9h0Q72.14-60.2,63.86-68.38h0c-11-10.9-22.39-22.2-33.95-33.64h0L12.48-119.34h0c-2.92-2.91-5.85-5.79-8.79-8.7h0L-.7-132.43c-.74-.72-1.48-1.49-2.16-2.12h0a3.27,3.27,0,0,0-.47-.36h0a4.12,4.12,0,0,1-.53-.3h0c-.22,0-.39-.12-.58-.16h0l-.66-.07s0,0,0,0h-.26l-.32,0-.58.16h0a3.71,3.71,0,0,1-.56.27h0s0,0,0,0h0s-.1.07-.15.12h0l-.31.27-.09.06h0l-.12.12-.27.27-.55.55-1.1,1.09L-13.89-128q-4.38,4.33-8.77,8.7h0L-40.09-102h0C-51.67-90.58-63-79.29-74-68.38h0L-90.28-52.31h0c-1.32,1.3-2.65,2.59-4,3.91h0c-.66.64-1.31,1.28-2,1.95h0a10.41,10.41,0,0,0-.84.91h0l-.27.54c-.05.11-.08.29-.16.48h0a3.73,3.73,0,0,0-.14,1h0a3.87,3.87,0,0,0,.25,1.32h0l.28.54a2.63,2.63,0,0,0,.35.46h0c.07.07.13.18.16.2h0l0,0,.22.24.49.46c1.27,1.3,2.52,2.56,3.79,3.81h0C-82-26.43-72.52-16.92-63.76-8.15h0C-46.22,9.4-31.59,24-21.36,34.24h0l11.9,11.87h0l1.78,1.77h0A7.46,7.46,0,0,0-7,48.5h0a6.46,6.46,0,0,0,.71.33h0l.61.19h0c.16,0,.3,0,.43.06h.07l.28,0ZM-4.33-136h0c.25.07.44.14.62.2h0a2.94,2.94,0,0,1,.64.31h0a3.12,3.12,0,0,1,.6.45h0c.73.67,1.47,1.46,2.2,2.14h0l4.39,4.38q4.41,4.35,8.79,8.72h0c5.84,5.8,11.65,11.6,17.44,17.32h0C41.92-91,53.3-79.74,64.31-68.81h0C69.82-63.38,75.25-58,80.55-52.76h0c1.33,1.29,2.65,2.6,4,3.91h0c.16.16.34.32.49.48h0c-.15-.16-.31-.32-.49-.48h0c-1.29-1.32-2.61-2.62-3.92-4h0Q72.66-60.69,64.46-69h0c-11-11-22.29-22.28-33.78-33.79h0Q22-111.38,13.27-120.14h0l-8.75-8.74h0L.13-133.26c-.75-.75-1.43-1.45-2.2-2.16h0a3.42,3.42,0,0,0-.63-.51h0a5.53,5.53,0,0,0-.76-.39h0c-.3-.07-.6-.18-.83-.23h0l-.76-.06h-.22l-.23,0-.4,0c-.26.05-.54.16-.82.23h0a6.47,6.47,0,0,0-.78.4h0a1.85,1.85,0,0,0-.29.22h0l-.29.23a.94.94,0,0,1-.18.14h0l-.14.15-.27.29-.55.53-1.09,1.1-4.39,4.38-8.76,8.74h0q-8.73,8.74-17.39,17.37h0C-52.35-91.26-63.69-79.93-74.64-69h0q-8.19,8.25-16.13,16.14h0c-1.16,1.2-2.32,2.37-3.48,3.53h0l3.51-3.48h0q8-7.89,16.24-16h0c11-10.93,22.38-22.23,34-33.67h0C-34.78-108.2-29-114-23.11-119.8h0l8.77-8.72h0l4.4-4.38,1.1-1.09.55-.53.27-.27.11-.1s0,0,0,0h0a.35.35,0,0,0,.08,0h0l.06-.06h0l.3-.25a1.77,1.77,0,0,1,.36-.26h0c.16-.06.32-.17.61-.28h0l.65-.18h0l.33,0,.14,0h.11l0,.2-.07-.2.09.27,0-.29.79.09Zm-3,1.31h0Zm-.27,0,.26,0-.26,0Zm-.06-.08v0Zm2.41-.68.08-.19h0l-.08.19Z"/><path class="cls-25" d="M63,6.1l-.3,0c-.21,0-.53,0-.94-.12a6.28,6.28,0,0,1-3.09-1.83L48.82-5.6C40.35-14,28.23-26,13.72-40.36c-7.28-7.18-15.18-15-23.51-23.18l-1.57-1.53-.79-.77-.19-.2a1,1,0,0,1-.2-.25l-.35-.41A5.86,5.86,0,0,1-14-71.23a8.82,8.82,0,0,1,.29-1.18,8.81,8.81,0,0,1,.54-1.06,9,9,0,0,1,.74-1,9.34,9.34,0,0,1,.82-.84c1.06-1.08,2.13-2.15,3.22-3.23C-4.1-82.87.31-87.34,4.8-91.85c9-9.07,18.31-18.44,27.8-27.92l14.33-14.31c2.38-2.4,4.8-4.8,7.19-7.22l3.61-3.59.47-.48a1.06,1.06,0,0,1,.16-.15l.13-.11.25-.19c.16-.12.29-.26.52-.41l.68-.36a6.28,6.28,0,0,1,1.38-.52,5.93,5.93,0,0,1,.72-.1l.35,0,.2,0h.26a8.75,8.75,0,0,1,1.3.17,5.34,5.34,0,0,1,1.44.5l.64.35c.2.13.39.28.59.44s.39.31.53.45l.46.46,3.63,3.61c2.38,2.42,4.79,4.8,7.19,7.21l14.3,14.32c4.76,4.74,9.47,9.46,14.1,14.1l13.72,13.78q6.73,6.83,13.25,13.37c1.09,1.08,2.16,2.17,3.23,3.23l.81.82c.32.36.47.6.74.89a10.1,10.1,0,0,1,.62,1.11c.14.39.24.77.35,1.15a11.89,11.89,0,0,1,.11,1.2c0,.43-.06.75-.09,1.14s-.23.79-.37,1.18-.36.72-.55,1-.51.62-.77.91l-.79.77-1.57,1.53c-8.34,8.23-16.24,16-23.51,23.18C97.7-26,85.6-14,77.12-5.6c-4.23,4.18-7.57,7.47-9.82,9.73A6.33,6.33,0,0,1,64.21,6c-.4.09-.71.07-.94.12L63,6.1m0,0,.31,0c.23,0,.54,0,.92-.12a6.26,6.26,0,0,0,3.1-1.84c2.25-2.26,5.56-5.59,9.78-9.8,8.41-8.43,20.45-20.48,34.9-34.94L135.21-64c.53-.53,1-1,1.55-1.56l.78-.78.66-.81.49-.91.28-1,.1-1.07c0-.35-.06-.7-.11-1s-.2-.67-.33-1a6.27,6.27,0,0,0-.5-.85c-.23-.28-.5-.65-.69-.86l-.83-.79-3.25-3.22C129-82.19,124.5-86.61,120-91.09s-9.19-9-13.85-13.63l-14.17-14c-4.75-4.7-9.55-9.47-14.35-14.24-2.44-2.39-4.85-4.76-7.26-7.2l-3.63-3.59-.46-.45-.42-.33c-.16-.12-.29-.25-.43-.34l-.49-.25a3.44,3.44,0,0,0-1-.35,2.67,2.67,0,0,0-.6-.11l-.66-.06c.12,0,0,0,0,0H62.5l-.26,0c-.2,0-.39,0-.55.08a3.64,3.64,0,0,0-1,.35l-.45.22a4.11,4.11,0,0,0-.49.4l-.26.19-.12.09,0,.05-.45.45-3.64,3.59c-2.41,2.44-4.82,4.81-7.23,7.2-4.81,4.76-9.62,9.54-14.38,14.24-9.5,9.46-18.9,18.72-28,27.68L-7.8-77.88l-3.27,3.22c-.28.27-.55.55-.81.79s-.45.53-.63.83a7,7,0,0,0-.47,1,7.21,7.21,0,0,0-.28,1,5.12,5.12,0,0,0,.95,3.93l.35.43.15.17.19.21.78.78c.54.52,1,1,1.55,1.56C-1-55.71,6.76-47.86,14-40.62,28.42-26.16,40.44-14.11,48.86-5.68l9.78,9.8A6.18,6.18,0,0,0,61.72,6c.41.09.73.07.94.12l.3,0"/><path class="cls-25" d="M62.59,6.49h-.05a3.39,3.39,0,0,1-.91-.11h0a7,7,0,0,1-3.3-1.95h0c-2.28-2.24-5.6-5.55-9.83-9.74h0C40-13.72,27.92-25.69,13.41-40.08h0L-10.1-63.23h0c-.52-.5-1.06-1-1.55-1.54h0l-.81-.78-.2-.2a.88.88,0,0,1-.22-.27h0l-.36-.41a6.47,6.47,0,0,1-1.32-3.91h0a5.58,5.58,0,0,1,.08-.94h0a6.81,6.81,0,0,1,.32-1.26h0a10.46,10.46,0,0,1,.57-1.16h0c.24-.4.55-.7.78-1h0c.28-.31.57-.57.82-.83h0c1.07-1.11,2.17-2.16,3.23-3.26h0C-4.43-83.17,0-87.63,4.51-92.19h0c9-9,18.28-18.39,27.79-27.87h0q7.11-7.14,14.31-14.33h0l7.22-7.21h0l3.59-3.6.42-.43a1.25,1.25,0,0,0,.2-.19h0l.08-.05h0l.08-.07.27-.22a7.14,7.14,0,0,1,.57-.45h0l.67-.33a6.37,6.37,0,0,1,1.45-.56h0a4.4,4.4,0,0,1,.85-.13h0l.37,0h.21a.25.25,0,0,1,.16,0h0a.27.27,0,0,1,.15,0h0a8.43,8.43,0,0,1,1.4.16h0a6.29,6.29,0,0,1,1.49.54h0l.64.34c.29.17.48.36.67.49h0c.18.14.36.31.58.49h0l.44.46,3.61,3.6c2.41,2.4,4.81,4.81,7.22,7.2h0l14.31,14.33h0L107.33-106h0q7,7,13.72,13.8h0q6.75,6.84,13.26,13.37h0c1.08,1.1,2.15,2.15,3.22,3.26h0l.83.8c.32.36.52.65.77.92h0c.27.4.46.83.67,1.2h0c.15.42.26.83.38,1.2h0v0c.05.44.08.82.11,1.22h0l0,0c0,.47-.08.81-.11,1.18h0v.08c-.12.39-.27.79-.37,1.19h0l0,0v0c-.19.32-.38.68-.62,1.12h0c-.25.28-.5.59-.79.91h0l-.79.78c-.54.52-1,1-1.57,1.57h0L112.51-40.08h0L77.42-5.31h0c-4.23,4.19-7.55,7.5-9.83,9.74h0a7,7,0,0,1-3.29,2h0a3.4,3.4,0,0,1-.93.11h0l-.29,0h0L63,6.1l-.06.43h0l-.31,0Zm-3-150.44-.45.46-3.63,3.6-7.24,7.18h0c-4.81,4.77-9.61,9.54-14.37,14.24h0C24.4-109,15-99.74,5.9-90.76h0L-7.5-77.58h0c-1.09,1.07-2.2,2.16-3.26,3.24h0a8.17,8.17,0,0,0-.78.73h0c-.23.32-.47.57-.58.74h0c-.18.36-.37.65-.44.85h0a5.29,5.29,0,0,0-.28,1h0c0,.23-.05.51-.05.78h0A4.77,4.77,0,0,0-12-67.46h0l.36.43.11.15.2.21.78.78L-9-64.33h0C-.74-56,7.07-48.17,14.27-40.93h0C28.72-26.47,40.75-14.4,49.17-6h0c4.21,4.23,7.53,7.54,9.77,9.79h0a6.14,6.14,0,0,0,2.87,1.74h0a6.75,6.75,0,0,0,.87.09h0l.27,0h0a1.38,1.38,0,0,0,.26,0h0a6.52,6.52,0,0,0,.89-.09h0A6,6,0,0,0,67,3.8h0C69.23,1.55,72.55-1.76,76.76-6h0c8.42-8.41,20.47-20.48,34.89-34.94h0l23.26-23.4h0c.52-.53,1-1,1.53-1.57h0l.77-.75.63-.75.45-.85.26-.88.09-1a8.88,8.88,0,0,0-.13-.94h0a6.06,6.06,0,0,0-.26-.9h0c-.18-.32-.3-.58-.45-.8h0c-.24-.27-.51-.63-.68-.8h0l-.8-.78c-1.09-1.08-2.18-2.17-3.28-3.23h0c-4.38-4.31-8.83-8.72-13.4-13.19h0q-6.83-6.72-13.85-13.69h0c-4.67-4.6-9.38-9.29-14.16-14h0q-7.14-7.05-14.39-14.24h0c-2.41-2.39-4.8-4.78-7.23-7.18h0l-3.61-3.58-.46-.46c-.13-.11-.26-.2-.39-.32h0a2.86,2.86,0,0,0-.38-.29h0l-.52-.29a6.3,6.3,0,0,0-.92-.34h-.12a1.27,1.27,0,0,1-.32,0h0l-.5-.05h-.12l-.13,0-.24,0a4.21,4.21,0,0,1-.49,0h0a5.25,5.25,0,0,0-.89.34h0l0,0-.48.23a3.12,3.12,0,0,1-.4.31h0l-.26.21-.1.06v0h0l0,0ZM63.4-146a2.7,2.7,0,0,1,.7.11h0a6.22,6.22,0,0,1,1,.39h0l.47.25a2,2,0,0,1,.51.39h0c.12.1.27.19.46.37h0l.45.46,3.63,3.6c2.41,2.37,4.85,4.77,7.24,7.15h0c4.83,4.78,9.62,9.55,14.38,14.25h0l14.15,14h0l13.85,13.67h0l13.4,13.18h0c1.09,1.07,2.19,2.16,3.28,3.21h0l.59.61-.57-.61c-1.1-1.07-2.17-2.15-3.24-3.24h0q-6.52-6.52-13.27-13.34h0c-4.5-4.56-9.07-9.13-13.69-13.81h0q-7-7-14.1-14.1h0q-7.12-7.11-14.31-14.32h0c-2.41-2.38-4.81-4.8-7.23-7.2h0l-3.6-3.63-.44-.42-.5-.45h0a3.08,3.08,0,0,0-.52-.38h0l-.68-.36A4.12,4.12,0,0,0,64-146.7h0c-.41-.1-.77-.08-1.22-.15h-.08a.34.34,0,0,0-.11,0h-.18l-.34,0a2.35,2.35,0,0,0-.65.08h0a5.53,5.53,0,0,0-1.31.48h0l-.67.36c-.16.11-.27.2-.48.37h0l-.25.21-.15.11-.08.07h0l0,.06h0l-.45.46L54.42-141c-2.4,2.4-4.8,4.82-7.2,7.2h0c-4.8,4.81-9.56,9.58-14.33,14.32h0C23.41-110,14.09-100.63,5.13-91.56h0C.62-87-3.82-82.57-8.13-78.22h0L-11.37-75h0s0,.06-.05.06h0s0,0,.05,0h0c1.08-1.06,2.16-2.15,3.27-3.22h0L5.29-91.37h0c9.1-9,18.5-18.24,28-27.71h0c4.76-4.7,9.57-9.48,14.38-14.25h0l7.23-7.15h0l3.65-3.62.38-.39s.06,0,.07-.07h0s0,0,0,0h0l.06-.07h0l.13-.09.26-.2a4.89,4.89,0,0,1,.56-.43h0l.41-.2a4.76,4.76,0,0,1,1.08-.37h0a1.8,1.8,0,0,1,.67-.13h.25l.12,0h.1v.3l.06-.31h0l.61,0Zm-.79.78.06-.22h0l-.06.22Z"/><path class="cls-6" d="M135.45,20.53l-.47,0c-.13,0-.31,0-.54-.07a3.07,3.07,0,0,1-.74-.2l-.42-.12-.45-.25-.5-.25c-.15-.11-.3-.24-.47-.38a11.32,11.32,0,0,1-1-.91c-.32-.32-.7-.69-1.06-1.08l-5.53-5.42c-2.14-2.07-4.55-4.44-7.19-7-1.35-1.27-2.7-2.6-4.12-4-.72-.7-1.45-1.39-2.2-2.13-.36-.33-.72-.7-1.11-1.07-.23-.23-.34-.41-.53-.6l-.27-.31-.21-.37a5.86,5.86,0,0,1-.8-3.31l.08-.79.22-.88a3.6,3.6,0,0,1,.36-.83,3.48,3.48,0,0,1,.47-.75l.57-.69.59-.61c.38-.4.78-.8,1.17-1.2.77-.81,1.59-1.63,2.38-2.45,3.21-3.3,6.53-6.71,9.93-10.14,1.7-1.71,3.42-3.44,5.14-5.19L130-31.77l.65-.64.07-.1.05,0s.09-.1.09-.1l.19-.15.35-.28a2.12,2.12,0,0,1,.38-.29l.48-.27a4.12,4.12,0,0,1,1-.46,7,7,0,0,1,1-.26l.54-.06h.24l.14,0h.07s-.05,0,.15,0l.9.09a1.88,1.88,0,0,1,.52.13l.54.13a3.77,3.77,0,0,1,1,.44l.48.25c.14.09.26.21.39.3a12.55,12.55,0,0,1,1.43,1.33L142-30.49q2.58,2.63,5.14,5.19c3.39,3.43,6.74,6.84,9.94,10.14l2.38,2.45c.39.4.77.8,1.18,1.2l.59.61.06.08.08.06,0,0,.13.14.25.35.27.29c.08.15.15.3.22.42a3.86,3.86,0,0,1,.38.85l.26.81c.07.3.07.59.11.88a5.59,5.59,0,0,1-.76,3.27,6.53,6.53,0,0,1-1,1.33c-.39.37-.76.74-1.13,1.07C159.4-.56,158.67.13,158,.83q-2.14,2.06-4.14,4c-2.62,2.55-5,4.92-7.17,7s-4,3.92-5.54,5.42c-.38.39-.73.76-1.08,1.08a10,10,0,0,1-1,.91c-.16.14-.32.27-.47.38l-.5.25-.45.25-.44.12a2.49,2.49,0,0,1-.74.2c-.21,0-.4,0-.54.07l-.45,0m0,0,.45-.05a3.82,3.82,0,0,0,1.28-.25l.44-.14c.14-.09.28-.14.45-.24l.48-.26c.14-.12.32-.24.48-.36.32-.27.62-.59,1-.91l1.07-1.1c1.52-1.52,3.35-3.38,5.46-5.49l7.06-7.16c1.26-1.34,2.6-2.7,4-4.13.71-.7,1.4-1.42,2.12-2.15.35-.37.71-.75,1.09-1.11A6.66,6.66,0,0,0,161.6-4a5,5,0,0,0,.57-2.88,4.17,4.17,0,0,0-.12-.75l-.23-.72c-.08-.21-.22-.41-.32-.63a2.59,2.59,0,0,0-.19-.33L161-9.66l-.26-.31-.12-.16-.06,0h0l-.06-.06-.61-.58c-.41-.38-.79-.77-1.21-1.18-.83-.77-1.64-1.58-2.47-2.37-3.3-3.2-6.72-6.52-10.17-9.89-1.71-1.71-3.46-3.4-5.19-5.11l-1.33-1.3-.63-.65c-.24-.23-.43-.34-.62-.52a2.6,2.6,0,0,0-.33-.25l-.35-.18a2.33,2.33,0,0,0-.69-.3l-.33-.1a1.89,1.89,0,0,0-.41-.1l-.92-.08h0l-.06,0h-.09l-.19,0-.4,0a4.76,4.76,0,0,0-.76.2,2.17,2.17,0,0,0-.68.28l-.33.17a1.85,1.85,0,0,0-.35.26l-.36.29-.18.14s.09-.06,0,0l-.05.06-.08.06-.65.65-1.32,1.3c-1.72,1.71-3.47,3.4-5.19,5.11-3.44,3.37-6.86,6.69-10.18,9.89-.82.79-1.64,1.57-2.46,2.37-.41.38-.8.78-1.21,1.18l-.61.57-.49.59a2,2,0,0,0-.39.63,2.49,2.49,0,0,0-.33.65l-.23.71-.12.82A5.3,5.3,0,0,0,109.26-4l.15.3.24.32.49.59,1.06,1.11L113.32.45c1.38,1.42,2.72,2.78,4,4.12,2.6,2.62,5,5,7,7.16s4,4,5.47,5.49c.39.39.73.76,1.07,1.1s.66.64,1,.91c.15.12.33.24.47.36l.48.26c.17.1.31.15.46.24l.41.14a5.64,5.64,0,0,0,.74.2,4.66,4.66,0,0,0,.54.05l.47.05"/><path class="cls-6" d="M135.45,20.53l0,.43h0l-.44,0h0c-.14,0-.33,0-.55-.07h0a7,7,0,0,1-.81-.18h0a3,3,0,0,0-.45-.16h0l-.05,0a3.2,3.2,0,0,1-.43-.24h0a4,4,0,0,1-.51-.25h0l0,0h0c-.15-.13-.3-.27-.44-.37h0a8,8,0,0,1-1.05-.94h0c-.35-.33-.7-.71-1.09-1.08h0c-1.52-1.51-3.38-3.34-5.52-5.43h0l-7.19-7h0l-4.13-4h0L110.46-1h0c-.35-.35-.74-.7-1.12-1.09h0c-.23-.25-.37-.43-.54-.63h0L108.52-3l0,0-.21-.35a6.05,6.05,0,0,1-.89-3.37h0V-7h0l.08-.84v0l.23-.87a5.22,5.22,0,0,1,.41-.93h0a3.47,3.47,0,0,1,.49-.82h0l.59-.72.6-.62c.38-.39.77-.8,1.16-1.19h0l2.41-2.45h0c3.2-3.28,6.51-6.7,9.94-10.14h0l5.11-5.19h0l1.31-1.29.63-.65.09-.1a.08.08,0,0,0,0,0h0l0,0h0s0,0,0,0h0l.06,0h0l.18-.17.36-.29c.08-.07.21-.18.43-.34h0l.49-.25a3.51,3.51,0,0,1,1.1-.48h0a4,4,0,0,1,1.09-.27h0l.52-.07.27,0h.11l0,0h.28l.89.1a2.76,2.76,0,0,1,.61.11h0l.52.16a4.46,4.46,0,0,1,1.09.46h0l.47.27a5.76,5.76,0,0,1,.46.35h0A18.7,18.7,0,0,1,141-32.08h0l1.3,1.31,5.13,5.17h0c3.4,3.44,6.71,6.86,9.92,10.14h0c.8.82,1.6,1.62,2.4,2.45h0c.39.39.79.8,1.18,1.21h0l.57.58.1.09.09.13v0l.14.16.26.32.27.35c.09.17.18.31.25.45h0a7.21,7.21,0,0,1,.43.91h0l.22.82a6.45,6.45,0,0,1,.16,1h0v.42h0a5.91,5.91,0,0,1-.81,3.06h0A6.8,6.8,0,0,1,161.52-2h0c-.34.37-.74.72-1.1,1.07h0c-.74.72-1.47,1.42-2.16,2.11h0c-1.45,1.39-2.82,2.7-4.15,4h0c-2.63,2.56-5,4.91-7.19,7h0c-2.13,2.09-4,3.92-5.54,5.41h0c-.35.39-.7.77-1.06,1.1h0a12.37,12.37,0,0,1-1,.92h0c-.16.12-.3.26-.47.39h0a2.79,2.79,0,0,1-.5.27h0a4.45,4.45,0,0,1-.48.26h-.06c-.14,0-.29.09-.45.16h0a6.41,6.41,0,0,1-.8.18h0c-.21,0-.4,0-.56.07h0l-.44,0h0l0-.43Zm-1.63-.71a6,6,0,0,0,.67.18h0c.21,0,.4,0,.54.06h0a1.49,1.49,0,0,1,.42.05h0a1.32,1.32,0,0,1,.38-.05h0l.57-.06h0a6.69,6.69,0,0,0,.66-.18h0l.39-.14h0a1.35,1.35,0,0,0,.39-.21h0l.47-.23h0a4.8,4.8,0,0,0,.44-.37h0a6.6,6.6,0,0,0,.93-.87h0c.34-.32.7-.7,1.09-1.07h0l5.45-5.49h0c2.09-2.13,4.43-4.56,7-7.18h0l4-4.1h0c.68-.72,1.4-1.46,2.11-2.17h0c.35-.39.71-.75,1-1.07h0a5.16,5.16,0,0,0,.83-1.16h0a4.39,4.39,0,0,0,.53-2.15h0c0-.16,0-.32,0-.45h0a4.8,4.8,0,0,0-.1-.69h0l-.21-.7a5.22,5.22,0,0,0-.34-.57h0a.91.91,0,0,0-.12-.26h0l-.26-.33-.25-.31-.13-.16h0l-.07-.06-.6-.6c-.4-.37-.8-.79-1.23-1.16h0c-.79-.78-1.62-1.56-2.44-2.38h0c-3.32-3.17-6.74-6.5-10.18-9.9h0c-1.73-1.69-3.47-3.38-5.21-5.11h0l-1.29-1.29L138.6-31a6.3,6.3,0,0,0-.56-.46h0l-.25-.22h0l-.35-.2a3.28,3.28,0,0,0-.56-.23h-.06l-.38-.12a.43.43,0,0,0-.28-.06h0l-.82-.08h0l-.09,0H135l-.41.05a3.08,3.08,0,0,0-.71.18h0a2.61,2.61,0,0,0-.57.24h0l-.31.15-.29.23h0l-.36.28-.11.09v0l0,0h0l-.1.09-.67.65-1.29,1.29L125-24h0c-3.45,3.38-6.88,6.73-10.18,9.9h0c-.84.8-1.64,1.6-2.47,2.38h0c-.41.37-.8.79-1.21,1.16h0l-.55.55-.53.62a1.51,1.51,0,0,0-.33.53h0a2.77,2.77,0,0,0-.32.59h0l-.22.66-.08.74v.3h0a4.45,4.45,0,0,0,.57,2.31h0l.15.28.21.27.44.57h0c.36.35.74.71,1.08,1.1h0c.71.71,1.43,1.45,2.12,2.17h0c1.38,1.42,2.72,2.77,4,4.11h0c2.58,2.61,4.94,5,7.05,7.17h0c2.11,2.11,3.93,4,5.44,5.49h0c.39.37.74.75,1.08,1.07h0a12.75,12.75,0,0,0,1,.9h0l.45.34h0l.44.23h0a1.83,1.83,0,0,0,.42.21h0l.36.14Zm27.27-30.07.3.32.28.35c.11.16.15.27.2.35h0a6.22,6.22,0,0,1,.36.73h0v-.05c-.09-.21-.23-.46-.38-.76h0c-.07-.15-.15-.29-.18-.34h0l-.24-.3-.25-.33-.17-.18v0l0,0-.08-.11-.59-.56c-.37-.39-.78-.83-1.16-1.21h0c-.8-.81-1.61-1.64-2.41-2.47h0c-3.19-3.29-6.52-6.69-9.92-10.12h0c-1.69-1.72-3.42-3.44-5.14-5.17h0l-1.29-1.3A14.07,14.07,0,0,0,139-32.75h0c-.19-.13-.29-.26-.37-.29h0l-.45-.24a2.89,2.89,0,0,0-.9-.38h0l-.56-.17a2,2,0,0,0-.41-.1h0l-.9-.08h-.27l-.26,0-.55,0a6.71,6.71,0,0,0-.94.27h0a3.19,3.19,0,0,0-.89.37h0L132-33a3.09,3.09,0,0,0-.31.28h0l-.35.29-.17.11s0,.06-.08.09h0l0,0-.1.09-.65.65-1.29,1.3c-1.72,1.73-3.44,3.45-5.12,5.17h0c-3.41,3.43-6.74,6.83-9.94,10.12h0l-2.37,2.47h0c-.42.38-.79.82-1.2,1.21h0l-.56.56-.56.71a3,3,0,0,0-.41.65h0a3.59,3.59,0,0,0-.3.69h0a3.76,3.76,0,0,1,.31-.66h0a4.15,4.15,0,0,1,.46-.7h0l.53-.62.6-.58c.41-.36.81-.77,1.21-1.16h0c.83-.79,1.64-1.58,2.47-2.36h0c3.31-3.23,6.73-6.52,10.18-9.9h0c1.7-1.69,3.45-3.4,5.18-5.11h0l1.33-1.3.63-.64.06,0a1.05,1.05,0,0,1,.07-.11h0s0,0,.07,0h0v0h0l.09-.07.39-.3a1.45,1.45,0,0,1,.4-.3h0l.32-.16a3.08,3.08,0,0,1,.8-.34h0a3.86,3.86,0,0,1,.81-.18h0l.38-.06h.29a.18.18,0,0,1,.09,0h.12l0,0h0l.75.07a1,1,0,0,1,.52.12h0l.33.06a3.45,3.45,0,0,1,.79.37h0l.36.18a3,3,0,0,1,.38.31h0a7.67,7.67,0,0,1,.65.52h0l.65.65,1.31,1.3c1.73,1.72,3.48,3.42,5.2,5.12h0c3.43,3.37,6.85,6.66,10.17,9.89h0c.82.78,1.63,1.6,2.46,2.36h0c.42.4.81.8,1.21,1.16h0l.6.6.09.07s0,0,0,0h0l0,0h0l0,0h0v0h0l.12.14Zm-.76.39Zm-.1-.12a.1.1,0,0,1,0-.06h0s0,0,0,.06Zm0-.2a.34.34,0,0,1,0-.09h0a.34.34,0,0,0,0,.09Zm0-.15Zm0,0a.25.25,0,0,1,.09-.11h0a.25.25,0,0,0-.09.11ZM130.51-32.26c0-.05-.11-.09-.12-.15h0a.3.3,0,0,0,.12.15Zm.71-.38a.38.38,0,0,1,0,.1h0s0-.07,0-.13h0v0Zm-.11-.22-.15-.09h0l.15.09Zm-.51-.06Zm4.94-1.15v0h0v0Zm-5,1.19Z"/><path class="cls-26" d="M135.45,20.53l-.47,0c-.13,0-.31,0-.54-.07a3.07,3.07,0,0,1-.74-.2l-.42-.12-.45-.25-.5-.25c-.15-.11-.3-.24-.47-.38a11.32,11.32,0,0,1-1-.91c-.32-.32-.7-.69-1.06-1.08l-5.53-5.42c-2.14-2.07-4.55-4.44-7.19-7-1.35-1.27-2.7-2.6-4.12-4-.72-.7-1.45-1.39-2.2-2.13-.36-.33-.72-.7-1.11-1.07-.23-.23-.34-.41-.53-.6l-.27-.31-.21-.37a5.86,5.86,0,0,1-.8-3.31l.08-.79.22-.88a3.6,3.6,0,0,1,.36-.83,3.48,3.48,0,0,1,.47-.75l.57-.69.59-.61c.38-.4.78-.8,1.17-1.2.77-.81,1.59-1.63,2.38-2.45,3.21-3.3,6.53-6.71,9.93-10.14,1.7-1.71,3.42-3.44,5.14-5.19L130-31.77l.65-.64.07-.1.05,0s.09-.1.09-.1l.19-.15.35-.28a2.12,2.12,0,0,1,.38-.29l.48-.27a4.12,4.12,0,0,1,1-.46,7,7,0,0,1,1-.26l.54-.06h.24l.14,0h.07s-.05,0,.15,0l.9.09a1.88,1.88,0,0,1,.52.13l.54.13a3.77,3.77,0,0,1,1,.44l.48.25c.14.09.26.21.39.3a12.55,12.55,0,0,1,1.43,1.33L142-30.49q2.58,2.63,5.14,5.19c3.39,3.43,6.74,6.84,9.94,10.14l2.38,2.45c.39.4.77.8,1.18,1.2l.59.61.06.08.08.06,0,0,.13.14.25.35.27.29c.08.15.15.3.22.42a3.86,3.86,0,0,1,.38.85l.26.81c.07.3.07.59.11.88a5.59,5.59,0,0,1-.76,3.27,6.53,6.53,0,0,1-1,1.33c-.39.37-.76.74-1.13,1.07C159.4-.56,158.67.13,158,.83q-2.14,2.06-4.14,4c-2.62,2.55-5,4.92-7.17,7s-4,3.92-5.54,5.42c-.38.39-.73.76-1.08,1.08a10,10,0,0,1-1,.91c-.16.14-.32.27-.47.38l-.5.25-.45.25-.44.12a2.49,2.49,0,0,1-.74.2c-.21,0-.4,0-.54.07l-.45,0m0,0,.45-.05a3.82,3.82,0,0,0,1.28-.25l.44-.14c.14-.09.28-.14.45-.24l.48-.26c.14-.12.32-.24.48-.36.32-.27.62-.59,1-.91l1.07-1.1c1.52-1.52,3.35-3.38,5.46-5.49l7.06-7.16c1.26-1.34,2.6-2.7,4-4.13.71-.7,1.4-1.42,2.12-2.15.35-.37.71-.75,1.09-1.11A6.66,6.66,0,0,0,161.6-4a5,5,0,0,0,.57-2.88,4.17,4.17,0,0,0-.12-.75l-.23-.72c-.08-.21-.22-.41-.32-.63a2.59,2.59,0,0,0-.19-.33L161-9.66l-.26-.31-.12-.16-.06,0h0l-.06-.06-.61-.58c-.41-.38-.79-.77-1.21-1.18-.83-.77-1.64-1.58-2.47-2.37-3.3-3.2-6.72-6.52-10.17-9.89-1.71-1.71-3.46-3.4-5.19-5.11l-1.33-1.3-.63-.65c-.24-.23-.43-.34-.62-.52a2.6,2.6,0,0,0-.33-.25l-.35-.18a2.33,2.33,0,0,0-.69-.3l-.33-.1a1.89,1.89,0,0,0-.41-.1l-.92-.08h0l-.06,0h-.09l-.19,0-.4,0a4.76,4.76,0,0,0-.76.2,2.17,2.17,0,0,0-.68.28l-.33.17a1.85,1.85,0,0,0-.35.26l-.36.29-.18.14s.09-.06,0,0l-.05.06-.08.06-.65.65-1.32,1.3c-1.72,1.71-3.47,3.4-5.19,5.11-3.44,3.37-6.86,6.69-10.18,9.89-.82.79-1.64,1.57-2.46,2.37-.41.38-.8.78-1.21,1.18l-.61.57-.49.59a2,2,0,0,0-.39.63,2.49,2.49,0,0,0-.33.65l-.23.71-.12.82A5.3,5.3,0,0,0,109.26-4l.15.3.24.32.49.59,1.06,1.11L113.32.45c1.38,1.42,2.72,2.78,4,4.12,2.6,2.62,5,5,7,7.16s4,4,5.47,5.49c.39.39.73.76,1.07,1.1s.66.64,1,.91c.15.12.33.24.47.36l.48.26c.17.1.31.15.46.24l.41.14a5.64,5.64,0,0,0,.74.2,4.66,4.66,0,0,0,.54.05l.47.05"/><path class="cls-26" d="M135.45,20.53l0,.43h0l-.44,0h0c-.14,0-.33,0-.55-.07h0a7,7,0,0,1-.81-.18h0a3,3,0,0,0-.45-.16h0l-.05,0a3.2,3.2,0,0,1-.43-.24h0a4,4,0,0,1-.51-.25h0l0,0h0c-.15-.13-.3-.27-.44-.37h0a8,8,0,0,1-1.05-.94h0c-.35-.33-.7-.71-1.09-1.08h0c-1.52-1.51-3.38-3.34-5.52-5.43h0l-7.19-7h0l-4.13-4h0L110.46-1h0c-.35-.35-.74-.7-1.12-1.09h0c-.23-.25-.37-.43-.54-.63h0L108.52-3l0,0-.21-.35a6.05,6.05,0,0,1-.89-3.37h0V-7h0l.08-.84v0l.23-.87a5.22,5.22,0,0,1,.41-.93h0a3.47,3.47,0,0,1,.49-.82h0l.59-.72.6-.62c.38-.39.77-.8,1.16-1.19h0l2.41-2.45h0c3.2-3.28,6.51-6.7,9.94-10.14h0l5.11-5.19h0l1.31-1.29.63-.65.09-.1a.08.08,0,0,0,0,0h0l0,0h0s0,0,0,0h0l.06,0h0l.18-.17.36-.29c.08-.07.21-.18.43-.34h0l.49-.25a3.51,3.51,0,0,1,1.1-.48h0a4,4,0,0,1,1.09-.27h0l.52-.07.27,0h.11l0,0h.28l.89.1a2.76,2.76,0,0,1,.61.11h0l.52.16a4.46,4.46,0,0,1,1.09.46h0l.47.27a5.76,5.76,0,0,1,.46.35h0A18.7,18.7,0,0,1,141-32.08h0l1.3,1.31,5.13,5.17h0c3.4,3.44,6.71,6.86,9.92,10.14h0c.8.82,1.6,1.62,2.4,2.45h0c.39.39.79.8,1.18,1.21h0l.57.58.1.09.09.13v0l.14.16.26.32.27.35c.09.17.18.31.25.45h0a7.21,7.21,0,0,1,.43.91h0l.22.82a6.45,6.45,0,0,1,.16,1h0v.42h0a5.91,5.91,0,0,1-.81,3.06h0A6.8,6.8,0,0,1,161.52-2h0c-.34.37-.74.72-1.1,1.07h0c-.74.72-1.47,1.42-2.16,2.11h0c-1.45,1.39-2.82,2.7-4.15,4h0c-2.63,2.56-5,4.91-7.19,7h0c-2.13,2.09-4,3.92-5.54,5.41h0c-.35.39-.7.77-1.06,1.1h0a12.37,12.37,0,0,1-1,.92h0c-.16.12-.3.26-.47.39h0a2.79,2.79,0,0,1-.5.27h0a4.45,4.45,0,0,1-.48.26h-.06c-.14,0-.29.09-.45.16h0a6.41,6.41,0,0,1-.8.18h0c-.21,0-.4,0-.56.07h0l-.44,0h0l0-.43Zm-1.63-.71a6,6,0,0,0,.67.18h0c.21,0,.4,0,.54.06h0a1.49,1.49,0,0,1,.42.05h0a1.32,1.32,0,0,1,.38-.05h0l.57-.06h0a6.69,6.69,0,0,0,.66-.18h0l.39-.14h0a1.35,1.35,0,0,0,.39-.21h0l.47-.23h0a4.8,4.8,0,0,0,.44-.37h0a6.6,6.6,0,0,0,.93-.87h0c.34-.32.7-.7,1.09-1.07h0l5.45-5.49h0c2.09-2.13,4.43-4.56,7-7.18h0l4-4.1h0c.68-.72,1.4-1.46,2.11-2.17h0c.35-.39.71-.75,1-1.07h0a5.16,5.16,0,0,0,.83-1.16h0a4.39,4.39,0,0,0,.53-2.15h0c0-.16,0-.32,0-.45h0a4.8,4.8,0,0,0-.1-.69h0l-.21-.7a5.22,5.22,0,0,0-.34-.57h0a.91.91,0,0,0-.12-.26h0l-.26-.33-.25-.31-.13-.16h0l-.07-.06-.6-.6c-.4-.37-.8-.79-1.23-1.16h0c-.79-.78-1.62-1.56-2.44-2.38h0c-3.32-3.17-6.74-6.5-10.18-9.9h0c-1.73-1.69-3.47-3.38-5.21-5.11h0l-1.29-1.29L138.6-31a6.3,6.3,0,0,0-.56-.46h0l-.25-.22h0l-.35-.2a3.28,3.28,0,0,0-.56-.23h-.06l-.38-.12a.43.43,0,0,0-.28-.06h0l-.82-.08h0l-.09,0H135l-.41.05a3.08,3.08,0,0,0-.71.18h0a2.61,2.61,0,0,0-.57.24h0l-.31.15-.29.23h0l-.36.28-.11.09v0l0,0h0l-.1.09-.67.65-1.29,1.29L125-24h0c-3.45,3.38-6.88,6.73-10.18,9.9h0c-.84.8-1.64,1.6-2.47,2.38h0c-.41.37-.8.79-1.21,1.16h0l-.55.55-.53.62a1.51,1.51,0,0,0-.33.53h0a2.77,2.77,0,0,0-.32.59h0l-.22.66-.08.74v.3h0a4.45,4.45,0,0,0,.57,2.31h0l.15.28.21.27.44.57h0c.36.35.74.71,1.08,1.1h0c.71.71,1.43,1.45,2.12,2.17h0c1.38,1.42,2.72,2.77,4,4.11h0c2.58,2.61,4.94,5,7.05,7.17h0c2.11,2.11,3.93,4,5.44,5.49h0c.39.37.74.75,1.08,1.07h0a12.75,12.75,0,0,0,1,.9h0l.45.34h0l.44.23h0a1.83,1.83,0,0,0,.42.21h0l.36.14Zm27.27-30.07.3.32.28.35c.11.16.15.27.2.35h0a6.22,6.22,0,0,1,.36.73h0v-.05c-.09-.21-.23-.46-.38-.76h0c-.07-.15-.15-.29-.18-.34h0l-.24-.3-.25-.33-.17-.18v0l0,0-.08-.11-.59-.56c-.37-.39-.78-.83-1.16-1.21h0c-.8-.81-1.61-1.64-2.41-2.47h0c-3.19-3.29-6.52-6.69-9.92-10.12h0c-1.69-1.72-3.42-3.44-5.14-5.17h0l-1.29-1.3A14.07,14.07,0,0,0,139-32.75h0c-.19-.13-.29-.26-.37-.29h0l-.45-.24a2.89,2.89,0,0,0-.9-.38h0l-.56-.17a2,2,0,0,0-.41-.1h0l-.9-.08h-.27l-.26,0-.55,0a6.71,6.71,0,0,0-.94.27h0a3.19,3.19,0,0,0-.89.37h0L132-33a3.09,3.09,0,0,0-.31.28h0l-.35.29-.17.11s0,.06-.08.09h0l0,0-.1.09-.65.65-1.29,1.3c-1.72,1.73-3.44,3.45-5.12,5.17h0c-3.41,3.43-6.74,6.83-9.94,10.12h0l-2.37,2.47h0c-.42.38-.79.82-1.2,1.21h0l-.56.56-.56.71a3,3,0,0,0-.41.65h0a3.59,3.59,0,0,0-.3.69h0a3.76,3.76,0,0,1,.31-.66h0a4.15,4.15,0,0,1,.46-.7h0l.53-.62.6-.58c.41-.36.81-.77,1.21-1.16h0c.83-.79,1.64-1.58,2.47-2.36h0c3.31-3.23,6.73-6.52,10.18-9.9h0c1.7-1.69,3.45-3.4,5.18-5.11h0l1.33-1.3.63-.64.06,0a1.05,1.05,0,0,1,.07-.11h0s0,0,.07,0h0v0h0l.09-.07.39-.3a1.45,1.45,0,0,1,.4-.3h0l.32-.16a3.08,3.08,0,0,1,.8-.34h0a3.86,3.86,0,0,1,.81-.18h0l.38-.06h.29a.18.18,0,0,1,.09,0h.12l0,0h0l.75.07a1,1,0,0,1,.52.12h0l.33.06a3.45,3.45,0,0,1,.79.37h0l.36.18a3,3,0,0,1,.38.31h0a7.67,7.67,0,0,1,.65.52h0l.65.65,1.31,1.3c1.73,1.72,3.48,3.42,5.2,5.12h0c3.43,3.37,6.85,6.66,10.17,9.89h0c.82.78,1.63,1.6,2.46,2.36h0c.42.4.81.8,1.21,1.16h0l.6.6.09.07s0,0,0,0h0l0,0h0l0,0h0v0h0l.12.14Zm-.76.39Zm-.1-.12a.1.1,0,0,1,0-.06h0s0,0,0,.06Zm0-.2a.34.34,0,0,1,0-.09h0a.34.34,0,0,0,0,.09Zm0-.15Zm0,0a.25.25,0,0,1,.09-.11h0a.25.25,0,0,0-.09.11ZM130.51-32.26c0-.05-.11-.09-.12-.15h0a.3.3,0,0,0,.12.15Zm.71-.38a.38.38,0,0,1,0,.1h0s0-.07,0-.13h0v0Zm-.11-.22-.15-.09h0l.15.09Zm-.51-.06Zm4.94-1.15v0h0v0Zm-5,1.19Z"/><path class="cls-7" d="M362.05.51l50.28-50.08a4.14,4.14,0,0,0,1.23-3h0a4.16,4.16,0,0,0-1.23-3h0l-50.16-49.95a4.18,4.18,0,0,0-3-1.23h0a4.21,4.21,0,0,0-3,1.23h0l.06,0,0,0a4.09,4.09,0,0,1,2.89-1.19h0a4.11,4.11,0,0,1,2.92,1.19h0l50.16,50a4.07,4.07,0,0,1,1.2,2.9h0a4.07,4.07,0,0,1-1.2,2.89h0L362,.44a4.13,4.13,0,0,1-2.91,1.19h0A4.22,4.22,0,0,1,356.13.44h0L306-49.52a4,4,0,0,1-1.19-2.9h0A4,4,0,0,1,306-55.3h0l50.31-50.1,0,0-.06,0L305.9-55.39a4.22,4.22,0,0,0-1.21,3h0a4.26,4.26,0,0,0,1.21,3h0L356.07.51a4.15,4.15,0,0,0,3,1.24h0a4.14,4.14,0,0,0,3-1.24Z"/><g class="cls-27"><polygon class="cls-6" points="359.12 -161.62 249.53 -52.48 359.12 56.66 468.71 -52.48 359.12 -161.62"/><g class="cls-28"><polygon class="cls-7" points="249.53 -157.58 464.65 56.66 468.71 56.66 468.71 -22.34 328.87 -161.62 249.53 -161.62 249.53 -157.58"/><polygon class="cls-7" points="464.65 56.66 249.53 -157.58 249.53 56.66 464.65 56.66"/></g></g><g class="cls-29"><polygon class="cls-7" points="399.33 -50.22 367.76 -18.78 399.33 12.66 430.92 -18.78 399.33 -50.22"/><g class="cls-30"><polygon class="cls-7" points="367.76 -37.91 418.54 12.66 430.92 12.66 430.92 -19.29 399.84 -50.22 367.76 -50.22 367.76 -37.91"/><polygon class="cls-7" points="418.54 12.66 367.76 -37.91 367.76 12.66 418.54 12.66"/></g><path class="cls-6" d="M431.22-18.78,399.33,13,367.45-18.78l31.88-31.76.17.17,31.72,31.59Zm-.63,0L399.33-49.91,368.07-18.78l31.26,31.13,31.26-31.13Z"/></g><path class="cls-31" d="M359.06.45l-.23,0a1.29,1.29,0,0,1-.62-.13.88.88,0,0,1-.44-.16,1.84,1.84,0,0,1-.49-.31,8.78,8.78,0,0,1-1.08-1c-1.57-1.55-3.86-3.85-6.8-6.74C343.54-13.74,335.19-22,325.13-32c-5-5-10.48-10.35-16.24-16.05-.75-.7-1.46-1.41-2.19-2.14l-.26-.32-.14-.14-.09-.19-.19-.38-.12-.41-.08-.18V-52a2.54,2.54,0,0,1,0-.41,3,3,0,0,1,.12-.83,3.56,3.56,0,0,1,.13-.39l.2-.4c.07-.11.16-.2.23-.33s.16-.18.27-.3q.54-.55,1.11-1.11c.74-.75,1.48-1.51,2.25-2.25l9.18-9.23,19.26-19.29c3.3-3.28,6.6-6.6,9.93-9.92l5-5L356-104l.63-.63c.11-.1.19-.21.3-.31l.41-.33.44-.24a2.78,2.78,0,0,1,.49-.19,1.63,1.63,0,0,1,.48-.11l.48,0a3.55,3.55,0,0,1,1.93.63l.34.27.12.1.08.08.14.15.65.63,2.5,2.51,5,5,9.91,9.92c6.56,6.57,13,13,19.28,19.29L408.28-58l2.26,2.25c.35.37.74.73,1.11,1.12a4.87,4.87,0,0,1,.47.68,5,5,0,0,1,.29.79,2,2,0,0,1,0,.41,1.55,1.55,0,0,1,0,.43l0,.4-.11.41-.07.19-.1.17a1.77,1.77,0,0,1-.19.39l-.25.28-.13.18-.14.14-2.19,2.14L393-32c-10.06,10-18.43,18.27-24.27,24.08C365.78-5,363.5-2.74,361.9-1.19a7,7,0,0,1-1.06,1,1.89,1.89,0,0,1-.5.31.88.88,0,0,1-.42.16,1.41,1.41,0,0,1-.63.13l-.23,0m0,0,.23,0a1.77,1.77,0,0,0,.63-.13,1.16,1.16,0,0,0,.42-.16,2.6,2.6,0,0,0,.5-.31c.34-.25.64-.62,1.06-1,1.57-1.56,3.85-3.87,6.78-6.77,5.83-5.83,14.16-14.17,24.17-24.17,5-5,10.42-10.43,16.13-16.19.7-.72,1.42-1.45,2.15-2.18l.15-.12.1-.14.24-.29c.07-.12.11-.22.16-.32l.07-.14c0-.06,0-.13.06-.18L412-52l0-.36c0-.13,0-.26,0-.36s0-.24-.06-.37a2.64,2.64,0,0,0-.25-.66,2.07,2.07,0,0,0-.42-.61c-.36-.36-.73-.72-1.11-1.11-.74-.71-1.48-1.46-2.25-2.23-3-3-6.12-6-9.27-9.15L379.32-86c-3.31-3.28-6.61-6.57-10-9.86-1.64-1.69-3.33-3.33-5-5l-2.52-2.5-.6-.61-.18-.17-.06-.07-.06,0-.36-.3a2.73,2.73,0,0,0-1.4-.4l-.39,0a1.2,1.2,0,0,0-.37.08,1,1,0,0,0-.33.14,3.24,3.24,0,0,0-.32.17l-.31.25-.31.3-.62.61-2.52,2.5c-1.67,1.66-3.34,3.3-5,5L339-86,319.69-66.87c-3.16,3.11-6.23,6.18-9.26,9.15-.76.77-1.52,1.52-2.27,2.23s-1.66,1.43-1.86,2.35a4,4,0,0,0-.11.71c0,.09,0,.25,0,.38v.18c0,.06,0,.11,0,.16l.11.34.17.31c0,.05.06.11.08.17l.12.13.21.26c.74.73,1.45,1.46,2.16,2.18,5.74,5.76,11.16,11.16,16.12,16.19,10,10,18.33,18.34,24.18,24.17,2.94,2.9,5.22,5.21,6.78,6.77.42.39.73.76,1.07,1a2.87,2.87,0,0,0,.49.31,1.12,1.12,0,0,0,.44.16,1.58,1.58,0,0,0,.62.13l.23,0"/><path class="cls-31" d="M359.06.44,359,.67h0a.59.59,0,0,0-.19,0h0a3.51,3.51,0,0,1-.68-.14h0a1.33,1.33,0,0,1-.49-.2h0a1.59,1.59,0,0,1-.52-.32h0a13.46,13.46,0,0,1-1.08-1h0c-1.56-1.57-3.87-3.84-6.8-6.76h0C343.41-13.58,335-21.89,325-31.84h0c-5-5-10.49-10.35-16.24-16.06h0c-.74-.71-1.46-1.42-2.2-2.15l-.27-.32-.14-.17h0a.58.58,0,0,1-.1-.22l-.21-.35v0l-.14-.41h0c0-.09-.05-.16-.06-.24l0-.21h0a4.22,4.22,0,0,0-.06-.42v0h0a4.78,4.78,0,0,1,.16-.87h0a1.45,1.45,0,0,1,.13-.41l.21-.4h0a1.21,1.21,0,0,1,.25-.35h0a2.59,2.59,0,0,1,.28-.33h0c.38-.39.73-.76,1.12-1.13h0q1.11-1.09,2.25-2.25h0l9.19-9.23h0c6.25-6.26,12.7-12.72,19.25-19.3h0c3.3-3.26,6.58-6.58,9.93-9.9h0l5-5,2.5-2.51.61-.61h0c.12-.1.2-.21.35-.34l.38-.32h0c.18-.11.35-.18.46-.26h0a5.32,5.32,0,0,1,.56-.22h0a1.88,1.88,0,0,1,.54-.12h0l.45,0h0a3.74,3.74,0,0,1,2.09.65l.36.31h0s.08,0,.13.13l.06.06.18.15.63.61,2.48,2.51h0c1.66,1.67,3.36,3.33,5,5h0c3.33,3.32,6.63,6.64,9.9,9.9h0c6.57,6.58,13,13,19.26,19.3h0l9.22,9.23h0c.73.77,1.48,1.52,2.21,2.25h0c.37.38.75.74,1.13,1.15h0a2.31,2.31,0,0,1,.51.74h0a3.68,3.68,0,0,1,.29.8h0a2.45,2.45,0,0,1,.08.44h0a2.53,2.53,0,0,1,0,.28h0a1.41,1.41,0,0,1,0,.21l-.07.39v0l-.12.43h0c0,.05,0,.13-.05.22l-.12.21h0c-.07.11-.13.26-.21.39l-.27.32-.13.16-.15.14h0L409.4-47.9h0L393.15-31.84h0c-10.06,10-18.4,18.26-24.28,24.07h0c-2.94,2.92-5.24,5.19-6.79,6.75h0A9.15,9.15,0,0,1,361,0h0a1.44,1.44,0,0,1-.5.32h0a1.28,1.28,0,0,1-.51.2h0a3,3,0,0,1-.63.14h0a.89.89,0,0,0-.22,0l0-.23Zm0-.21.16,0h0a1.49,1.49,0,0,0,.57-.11h0a2,2,0,0,0,.41-.14h0a4,4,0,0,0,.46-.29h0a10.75,10.75,0,0,0,1-1h0c1.57-1.54,3.87-3.83,6.79-6.76h0l24.16-24.17h0c5-5,10.41-10.44,16.12-16.19h0L411-50.63l.15-.17.09-.09.25-.31h0l.14-.27.06-.14h0s0-.1.06-.15l.09-.31,0-.35h0a.2.2,0,0,0,0-.11h0a1,1,0,0,0,0-.18h0a1.4,1.4,0,0,0,0-.35h0a2.37,2.37,0,0,0-.21-.59h0v0h0a2.45,2.45,0,0,0-.38-.52h0c-.32-.36-.72-.73-1.09-1.09h0c-.76-.75-1.5-1.5-2.26-2.24h0l-9.27-9.16h0c-6.28-6.21-12.78-12.67-19.38-19.18h0q-4.93-4.92-9.94-9.86h0c-1.67-1.68-3.34-3.33-5-5l-2.5-2.5-.64-.61-.16-.15-.07-.08h0l0,0-.33-.26h0a2.47,2.47,0,0,0-1.28-.37l-.38,0h0a.94.94,0,0,0-.31.08h0a1.32,1.32,0,0,0-.28.09h0l-.31.18-.3.24h0c-.07.06-.16.17-.29.29l-.62.6-2.5,2.5h0c-1.68,1.66-3.36,3.31-5,5h0c-3.32,3.29-6.64,6.58-9.92,9.86h0c-6.6,6.51-13.1,13-19.38,19.18h0l-9.29,9.16h0c-.73.74-1.49,1.49-2.25,2.24h0c-.73.75-1.62,1.42-1.8,2.21v0h0a3.93,3.93,0,0,0-.08.64h0a3.12,3.12,0,0,0,0,.35v.16h0s0,.07,0,.13l.1.31.16.29h0c0,.08,0,.13.07.15l.09.13.24.28h0c.7.7,1.42,1.43,2.15,2.14h0c5.71,5.75,11.13,11.17,16.12,16.19h0c10,10,18.32,18.34,24.18,24.17h0c2.91,2.93,5.19,5.22,6.75,6.76h0a12.52,12.52,0,0,0,1.06,1h0a1.25,1.25,0,0,0,.44.29h0a1.59,1.59,0,0,0,.41.15h0a1.29,1.29,0,0,0,.56.12h0l.21,0Zm.09-105.44h0a3.15,3.15,0,0,1,1.55.45l.35.29h0v0h0c.07,0,0,0,.07.06l.08.07.15.15.62.64,2.51,2.48h0c1.66,1.65,3.33,3.33,5,5h0q5,5,10,9.88h0c6.6,6.53,13.1,13,19.39,19.18h0c3.13,3.12,6.23,6.17,9.25,9.17h0l2.27,2.22h0c-.74-.75-1.5-1.48-2.25-2.23h0q-4.5-4.55-9.2-9.24h0L379.69-86.42h0c-3.27-3.27-6.6-6.57-9.92-9.89h0c-1.67-1.65-3.32-3.31-5-5l-2.5-2.48-.62-.64-.17-.16-.06-.07h0l0,0h0l-.09-.07L361-105h0a3.35,3.35,0,0,0-1.81-.55l-.43,0h-.06a3.84,3.84,0,0,0-.4.1h0a1,1,0,0,0-.42.17h0a2.46,2.46,0,0,0-.41.22l-.4.33h0a1.63,1.63,0,0,0-.3.29l-.64.64-2.48,2.48h0c-1.69,1.69-3.35,3.35-5,5h0q-5,5-9.92,9.9h0c-6.58,6.58-13,13-19.27,19.31h0q-4.67,4.68-9.17,9.24h0L308-55.64h0c-.15.15-.3.32-.43.46h0a6.17,6.17,0,0,0,.43-.46h0c.77-.73,1.53-1.48,2.28-2.22h0q4.51-4.5,9.27-9.17h0c6.28-6.2,12.76-12.65,19.36-19.18h0q5-4.89,9.94-9.88h0c1.68-1.63,3.35-3.31,5-5l2.5-2.48.62-.64h0a2.45,2.45,0,0,0,.34-.31l.28-.24h0a3.69,3.69,0,0,1,.39-.2h0a1.4,1.4,0,0,1,.39-.16h0a2.3,2.3,0,0,1,.39-.09l.38,0Z"/><rect class="cls-32" x="-14" y="-145.76" width="433.86" height="154.34"/></g></g></g></g></svg>