<svg xmlns="http://www.w3.org/2000/svg" xmlns:xlink="http://www.w3.org/1999/xlink" viewBox="0 0 1920 1005"><defs><style>.cls-1{fill:url(#linear-gradient);}.cls-2{fill:url(#linear-gradient-2);}.cls-3{fill:url(#linear-gradient-3);}.cls-4{fill:url(#linear-gradient-4);}.cls-5{fill:none;}.cls-6{fill:#fff;}.cls-7{fill:#231f20;}.cls-8{fill:#6d6d6d;}.cls-9{isolation:isolate;}.cls-10{clip-path:url(#clip-path);}.cls-11{fill:#fcfcfc;}.cls-12,.cls-15{font-size:36.39px;}.cls-12{font-family:SegoeUI-Bold, Segoe UI;font-weight:700;}.cls-13{letter-spacing:-0.02em;}.cls-14,.cls-15{font-family:SegoeUI, Segoe UI;}.cls-14{font-weight:400;}.cls-16{letter-spacing:0em;}.cls-17{font-family:MyriadPro-Regular, Myriad Pro;letter-spacing:0em;}.cls-18{letter-spacing:-0.01em;}.cls-19{letter-spacing:-0.01em;}.cls-20{letter-spacing:0.04em;}.cls-21{clip-path:url(#clip-path-2);}.cls-22{clip-path:url(#clip-path-3);}.cls-23{clip-path:url(#clip-path-4);}.cls-24{clip-path:url(#clip-path-5);}.cls-25{clip-path:url(#clip-path-6);}.cls-26{clip-path:url(#clip-path-7);}.cls-27{clip-path:url(#clip-path-8);}.cls-28,.cls-42{fill:#021d49;}.cls-29{fill:#1a1a1a;mix-blend-mode:multiply;}.cls-30{mask:url(#mask);}.cls-31{clip-path:url(#clip-path-9);}.cls-32{fill:#606060;}.cls-33{mask:url(#mask-2);}.cls-34{clip-path:url(#clip-path-10);}.cls-35{fill:#7c7c7c;}.cls-36{fill:#c1c1c1;}.cls-37{mask:url(#mask-3);}.cls-38{clip-path:url(#clip-path-11);}.cls-39{mask:url(#mask-4);}.cls-40{clip-path:url(#clip-path-12);}.cls-41{fill:#848484;}.cls-42{opacity:0.75;mix-blend-mode:overlay;}</style><linearGradient id="linear-gradient" x1="560.76" y1="-207.83" x2="564.48" y2="-207.83" gradientTransform="matrix(100.05, 100.05, 100.05, -100.05, -34675.69, -77584.79)" gradientUnits="userSpaceOnUse"><stop offset="0" stop-color="#fff"/><stop offset="0.06" stop-color="#dadada"/><stop offset="0.16" stop-color="#a7a7a7"/><stop offset="0.26" stop-color="#7b7b7b"/><stop offset="0.37" stop-color="#555"/><stop offset="0.48" stop-color="#363636"/><stop offset="0.59" stop-color="#1e1e1e"/><stop offset="0.71" stop-color="#0d0d0d"/><stop offset="0.84" stop-color="#030303"/><stop offset="1"/></linearGradient><linearGradient id="linear-gradient-2" x1="561.72" y1="-217.47" x2="565.44" y2="-217.47" gradientTransform="matrix(53.34, 53.34, 53.34, -53.34, -17875.28, -41734.08)" xlink:href="#linear-gradient"/><linearGradient id="linear-gradient-3" x1="559.16" y1="-212.01" x2="561.09" y2="-212.01" gradientTransform="matrix(-100.05, 100.05, -100.05, -100.05, 36585.15, -77584.79)" xlink:href="#linear-gradient"/><linearGradient id="linear-gradient-4" x1="557.08" y1="-222.33" x2="559.02" y2="-222.33" gradientTransform="translate(19784.78 -41734.08) rotate(135) scale(75.43)" xlink:href="#linear-gradient"/><clipPath id="clip-path"><rect class="cls-5" x="-2.95" y="1006.04" width="1923.01" height="845.7"/></clipPath><clipPath id="clip-path-2"><rect class="cls-5" x="398.85" y="168.42" width="376.07" height="333.97"/></clipPath><clipPath id="clip-path-3"><rect class="cls-5" x="813.12" y="168.42" width="377.06" height="333.97"/></clipPath><clipPath id="clip-path-4"><rect class="cls-5" x="1227.89" y="168.42" width="377.06" height="333.97"/></clipPath><clipPath id="clip-path-5"><rect class="cls-5" x="399.7" y="550.87" width="377.06" height="333.97"/></clipPath><clipPath id="clip-path-6"><rect class="cls-5" x="821.2" y="550.87" width="377.06" height="333.97"/></clipPath><clipPath id="clip-path-7"><rect class="cls-5" x="1238.66" y="550.87" width="377.06" height="333.97"/></clipPath><clipPath id="clip-path-8"><polygon class="cls-5" points="-6.54 -642.66 1923.07 -643.24 1923.2 0.06 -6.35 0.54 -6.54 -642.66"/></clipPath><mask id="mask" x="9.9" y="-1307.18" width="1958.7" height="1951.94" maskUnits="userSpaceOnUse"><polygon class="cls-1" points="989.21 -1307.18 1968.6 -331.25 989.21 644.76 9.9 -331.25 989.21 -1307.18"/></mask><clipPath id="clip-path-9"><polygon class="cls-6" points="989.21 -1307.18 1968.6 -331.25 989.21 644.76 9.9 -331.25 989.21 -1307.18"/></clipPath><mask id="mask-2" x="345.02" y="-313.73" width="569.81" height="567.81" maskUnits="userSpaceOnUse"><polygon class="cls-2" points="630 -310.99 912.1 -29.84 630 251.36 347.77 -29.84 630 -310.99"/></mask><clipPath id="clip-path-10"><polygon class="cls-8" points="630 -310.99 912.1 -29.84 630 251.36 347.77 -29.84 630 -310.99"/></clipPath><mask id="mask-3" x="1159.74" y="-750.14" width="1017.44" height="1013.94" maskUnits="userSpaceOnUse"><polygon class="cls-3" points="1668.46 -750.13 1159.74 -243.15 1668.46 263.8 2177.18 -243.15 1668.46 -750.13"/></mask><clipPath id="clip-path-11"><polygon class="cls-6" points="1668.46 -750.13 1159.74 -243.15 1668.46 263.8 2177.18 -243.15 1668.46 -750.13"/></clipPath><mask id="mask-4" x="1707.1" y="-234.13" width="296.06" height="294.99" maskUnits="userSpaceOnUse"><polygon class="cls-4" points="1855.11 -232.66 1708.57 -86.64 1855.11 59.43 2001.73 -86.64 1855.11 -232.66"/></mask><clipPath id="clip-path-12"><polygon class="cls-7" points="1855.11 -232.66 1708.57 -86.64 1855.11 59.43 2001.73 -86.64 1855.11 -232.66"/></clipPath></defs><title>Gallery 4 Desktop</title><g class="cls-9"><g id="Layer_1" data-name="Layer 1"><g id="Testi_5" data-name="Testi 5"><g class="cls-10"><image width="4877" height="3449" transform="translate(-2.91 959.33) scale(0.39)" xlink:href="../Fraud.jpg"/></g></g><g id="Gallery_4" data-name="Gallery 4"><rect class="cls-11" x="-1.6" y="0.09" width="1923.01" height="1004.6"/><text class="cls-12" transform="translate(771.53 60)">Meet Our <tspan class="cls-13" x="172.52" y="0">P</tspan><tspan x="193.97" y="0">ast Clients!</tspan><tspan class="cls-14"><tspan x="185.48" y="43.67"> </tspan></tspan></text><text class="cls-15" transform="translate(557.06 137.92)">See the best shots, that <tspan class="cls-16" x="384.15" y="0">w</tspan><tspan x="410.27" y="0">e</tspan><tspan class="cls-17" x="429.3" y="0">’</tspan><tspan class="cls-18" x="436.83" y="0">v</tspan><tspan x="454.05" y="0">e arranged in</tspan><tspan class="cls-19" x="667.22" y="0">t</tspan><tspan x="679.27" y="0">o a galle</tspan><tspan class="cls-20" x="815.64" y="0">r</tspan><tspan x="829.75" y="0">y!</tspan></text><g class="cls-21"><image width="6433" height="4533" transform="translate(351.22 169.77) scale(0.07)" xlink:href="../6.jpg"/></g><g class="cls-22"><image width="3967" height="5950" transform="translate(813.12 83.59) scale(0.1)" xlink:href="../1.jpg"/></g><g class="cls-23"><image width="5841" height="3894" transform="translate(1066.29 109.17) scale(0.1)" xlink:href="../4.jpg"/></g><g class="cls-24"><image width="5760" height="3840" transform="translate(320.87 539.17) scale(0.09)" xlink:href="../3.jpg"/></g><g class="cls-25"><image width="6000" height="4000" transform="translate(821.56 547.97) scale(0.08)" xlink:href="../5.jpg"/></g><g class="cls-26"><image width="5612" height="3746" transform="translate(1163.89 545.03) scale(0.09)" xlink:href="../2.jpg"/></g></g><g id="Nav_3" data-name="Nav 3"><rect class="cls-6" x="-1.6" y="-448.34" width="1923.01" height="677.36"/><g class="cls-27"><rect class="cls-28" x="-42.89" y="-697.53" width="1990.12" height="747.28"/><rect class="cls-29" x="-30.93" y="-689.95" width="1994.75" height="726.71"/><path class="cls-7" d="M963.07,142.69,513.69-305.16a37.55,37.55,0,0,1-11-26.58h0a37.65,37.65,0,0,1,11-26.64h0L962-805.1A37.65,37.65,0,0,1,988.63-816h0a38,38,0,0,1,26.77,10.93h0l-.47.41-.29.35a36.49,36.49,0,0,0-26-10.67h0a36.08,36.08,0,0,0-25.83,10.67h0L514.41-357.67a36.51,36.51,0,0,0-10.75,25.93h0a36.46,36.46,0,0,0,10.75,25.83h0L963.79,142a37.05,37.05,0,0,0,26.05,10.62h0a36.81,36.81,0,0,0,26-10.62h0l448.35-446.72a37.09,37.09,0,0,0,10.69-26h0a36.91,36.91,0,0,0-10.69-25.79h0L1014.64-804.34l.29-.35.47-.41,449.54,448a37.63,37.63,0,0,1,10.78,26.47h0A38,38,0,0,1,1464.94-304h0L1016.41,142.69a37.21,37.21,0,0,1-26.57,11h0a37.94,37.94,0,0,1-26.77-11Z"/><g class="cls-30"><polygon class="cls-6" points="989.21 -1307.18 1968.6 -331.25 989.21 644.76 9.9 -331.25 989.21 -1307.18"/><g class="cls-31"><polygon class="cls-7" points="1968.6 -1271.06 46.14 644.76 9.9 644.76 9.9 -61.78 1259.66 -1307.18 1968.6 -1307.18 1968.6 -1271.06"/><polygon class="cls-7" points="46.14 644.76 1968.6 -1271.06 1968.6 644.76 46.14 644.76"/></g></g><path class="cls-32" d="M265.93,30.74-64.13-298.19a39.19,39.19,0,0,1-11.42-27.67h0a39,39,0,0,1,11.42-27.65h0L265-681.52A39.31,39.31,0,0,1,292.84-693h0a39.15,39.15,0,0,1,27.67,11.47h0l330.06,328.9A38.82,38.82,0,0,1,662-325h0a38.93,38.93,0,0,1-11.42,27.71h0L321.41,30.74A39.14,39.14,0,0,1,293.6,42h0a39,39,0,0,1-27.67-11.25ZM-71.59-325.86A34.67,34.67,0,0,0-61.27-301h0l330,328.89A35,35,0,0,0,293.6,38.06h0a35.83,35.83,0,0,0,25-10.22h0l329.08-328A34.83,34.83,0,0,0,658.07-325h0a34.83,34.83,0,0,0-10.36-24.77h0l-330-328.8A35.34,35.34,0,0,0,292.84-689h0a35.31,35.31,0,0,0-25,10.34h0L-61.27-350.75a35,35,0,0,0-10.32,24.89Z"/><path class="cls-8" d="M602.38,97.67h0L502-2.41a39.09,39.09,0,0,1-11.5-27.65h0A38.85,38.85,0,0,1,502-57.68h0l100-99.71a39.42,39.42,0,0,1,27.78-11.39h0a39.43,39.43,0,0,1,27.73,11.39h0L757.89-57.33A39.15,39.15,0,0,1,769.4-29.71h0A39,39,0,0,1,757.89-2h0l-100,99.68a38.91,38.91,0,0,1-27.74,11.5h0a39.16,39.16,0,0,1-27.75-11.5Zm27.75,7.45A35.11,35.11,0,0,0,655,94.81h0L755.13-4.81a35.32,35.32,0,0,0,10.26-24.9h0a34.62,34.62,0,0,0-10.26-24.72h0L654.6-154.63a35.18,35.18,0,0,0-24.84-10.17h0a35.14,35.14,0,0,0-24.88,10.17h0L504.73-54.87a34.67,34.67,0,0,0-10.2,24.81h0a34.64,34.64,0,0,0,10.2,24.79h0L605.16,94.81l-1.39,1.47,1.39-1.47a35.46,35.46,0,0,0,25,10.31Z"/><g class="cls-33"><polygon class="cls-8" points="630 -310.99 912.1 -29.84 630 251.36 347.77 -29.84 630 -310.99"/><g class="cls-34"><polygon class="cls-8" points="912.1 -200.9 458.31 251.36 347.77 251.36 347.77 -34.35 625.35 -310.99 912.1 -310.99 912.1 -200.9"/><polygon class="cls-8" points="458.31 251.36 912.1 -200.9 912.1 251.36 458.31 251.36"/></g><path class="cls-8" d="M345-29.84,628.51-312.38l1.49-1.35L914.83-29.84,630,254.08,345-29.84Zm5.62,0L630,248.45,909.23-29.84,630-308.1,350.64-29.84Z"/></g><path class="cls-35" d="M989.84,142.1s-.63-.09-2-.31a13.41,13.41,0,0,1-5.73-1.07,9,9,0,0,1-3.91-1.53,19.31,19.31,0,0,1-4.37-2.75c-3.18-2.16-6-5.54-9.45-9-14.14-13.87-34.72-34.39-60.86-60.26C851.39,15.18,776.51-59,686.63-148.06,641.71-192.59,593-240.77,541.49-291.72c-6.47-6.34-12.94-12.72-19.52-19.14l-1.21-1.25-1.2-1.44-2.2-2.67c-.69-1-1.27-2.23-1.86-3.34l-.83-1.61A12.43,12.43,0,0,1,514-323l-1-3.57-.38-3.65a18.08,18.08,0,0,1,0-3.75,17,17,0,0,1,.54-3.66,28.52,28.52,0,0,1,2.52-7.05,33.81,33.81,0,0,1,4.26-6.11c3.27-3.61,6.64-6.74,9.91-10,6.61-6.73,13.37-13.42,20.06-20.21q40.2-40.41,82.05-82.48C687.87-519.39,745.51-577.21,804.16-636q44-44,88.58-88.59,22.29-22.31,44.65-44.58l22.26-22.4,5.68-5.57,1.36-1.38.59-.71,1.18-.85,3-2.46a30.51,30.51,0,0,1,17.12-5.58l4.39.36a24.91,24.91,0,0,1,4.32,1,17.8,17.8,0,0,1,4.39,1.74,42.22,42.22,0,0,1,3.89,2.19l3.61,3c1,.92,1.77,1.78,2.86,2.72l5.57,5.61,22.37,22.4c14.91,14.86,29.63,29.62,44.5,44.58Q1129.24-680,1173.26-636c58.61,58.76,116.32,116.58,172.1,172.53,27.79,27.92,55.28,55.54,82.11,82.48,6.79,6.74,13.42,13.48,20,20.21,3.5,3.26,6.82,6.48,10,9.86,1,1.07,1.48,1.87,2.33,2.77a22.25,22.25,0,0,1,2.15,3l1.75,3.4a30,30,0,0,1,1.25,3.62c.9,2.35.66,5,1.07,7.3a16.37,16.37,0,0,1-.41,3.61l-.13,1.79a8.28,8.28,0,0,1-.53,1.78l-1.08,3.71-1.66,3.2c-.26.5-.57,1.12-.88,1.66l-1.18,1.48-2.42,2.72c-6.49,6.42-13,12.89-19.55,19.14-51.44,51-100.1,99.13-145.15,143.66C1203.18-59,1128.44,15.18,1076.09,67.2c-26.28,25.87-46.72,46.39-60.69,60.26-3.58,3.44-6.46,6.82-9.62,9a16.84,16.84,0,0,1-4.37,2.75,8.77,8.77,0,0,1-3.91,1.53,12.78,12.78,0,0,1-5.69,1.07l-2,.31m0,0,2-.31a16.48,16.48,0,0,0,5.69-1.07,12.14,12.14,0,0,0,3.91-1.56,21.86,21.86,0,0,0,4.37-2.72c3-2.19,5.82-5.64,9.47-9,14-14,34.42-34.52,60.57-60.58,52.18-52.11,126.59-126.66,216-216.15,44.54-44.88,92.9-93.29,144.08-144.73,6.34-6.38,12.75-12.85,19.37-19.4l1.93-2.41,1-1.25c.18-.45.49-.94.67-1.48l1.62-2.72.89-3c.18-.54.35-1,.49-1.47l.13-1.74c0-1.08.32-2.54.32-3.35-.45-2.05-.32-4.32-1.07-6.29-1.8-8.2-10.22-14.18-16.71-20.92-6.58-6.51-13.43-13.21-20.19-20-27-26.6-54.66-54-82.83-81.78-56-55.64-114.06-113.1-173-171.5-29.46-29.31-59.28-58.76-88.85-88.25-15-15-30-29.71-44.84-44.52l-22.38-22.31-5.71-5.52c-.92-.94-1.92-2-2.73-2.73l-2.69-2.09a21.73,21.73,0,0,0-3-1.66,12.53,12.53,0,0,0-2.87-1.2,10.5,10.5,0,0,0-3.31-.71l-3.61-.41a24.37,24.37,0,0,0-12.46,3.8l-3,2.44c-.58.46-.29.14-.58.46l-.65.7-1.5,1.4-5.57,5.52L942.5-764c-15,14.81-30,29.57-44.84,44.52q-44.6,44.24-88.82,88.25c-58.94,58.4-117,115.86-173.15,171.5C607.55-432,579.91-404.6,552.84-378c-6.78,6.77-13.54,13.47-20.14,20-3.32,3.35-6.83,6.55-9.83,9.9-1.37,1.65-3,3.26-3.76,5.35-1.23,1.74-1.66,3.84-2.24,6a14.36,14.36,0,0,0-.49,3.17,10.18,10.18,0,0,0,0,3.26l.24,3.16.87,3.09c.23.48.32,1,.5,1.51l.74,1.34a21.08,21.08,0,0,0,1.41,2.81l2.19,2.72,1,1.17,1.21,1.16c6.47,6.55,13,13,19.32,19.48,51,51.36,99.46,99.81,144,144.65,89.4,89.49,163.94,164,216,216.15,26.16,26.06,46.59,46.53,60.6,60.58,3.61,3.34,6.49,6.79,9.45,9a21,21,0,0,0,4.37,2.72,12.6,12.6,0,0,0,3.91,1.56,17.52,17.52,0,0,0,5.73,1.07c1.32.22,2,.31,2,.31"/><path class="cls-35" d="M989.84,142l-.14,2a13,13,0,0,0-2-.13h0c-.13,0-.13,0-.29,0h0a20.7,20.7,0,0,1-5.68-1.15h0a15.37,15.37,0,0,1-4.53-1.66h0a26,26,0,0,1-4.48-2.91h0c-3.44-2.45-6.33-5.83-9.77-9.23h0c-14-13.87-34.61-34.3-60.76-60.31h0C849.69,16.6,775-57.68,685.29-146.68h0c-45-44.44-93.72-92.62-145.32-143.57h0c-6.36-6.42-12.83-12.76-19.36-19.19h0l-1.36-1.34L518-312.24l-2.33-2.9c-.73-1.12-1.34-2.33-1.94-3.44h0l-1-1.89a14.51,14.51,0,0,1-.58-1.95h0l-1.12-3.71v-.13l-.4-3.62a7.77,7.77,0,0,1-.14-1.78h0a19.08,19.08,0,0,1,.14-2.45h0a36.55,36.55,0,0,1,.54-4h0c.76-2.32,1.18-5,2.64-7.19h0a24.42,24.42,0,0,1,4.68-6.74h0c3.26-3.62,6.67-6.74,9.89-10.17h0c6.69-6.61,13.39-13.35,20.08-20.13h0q40.21-40.41,82.06-82.53h0C686.5-520.77,744.1-578.54,802.7-637.44h0C832-666.66,861.6-696.33,891.37-726h0c14.71-14.81,29.75-29.68,44.66-44.58h0l22.23-22.38,5.53-5.54,1.54-1.35.63-.57a3.27,3.27,0,0,1,1.16-1.11h0l3.16-2.73A33.88,33.88,0,0,1,989-810.1h0l4.07.45h0a17,17,0,0,1,4.91,1.07h0a24.61,24.61,0,0,1,4.8,1.83h0c1.08.67,2.6,1.25,4.26,2.41h0l3.44,2.85a26.1,26.1,0,0,1,3,3h0l5.55,5.54,22.38,22.38Q1063.72-748.22,1086-726h0c29.8,29.66,59.21,59.33,88.7,88.55h0c58.48,58.9,116.23,116.59,172,172.57h0q41.85,42.11,82.19,82.53h0c6.72,6.78,13.34,13.52,20.1,20.13h0c3.27,3.29,6.59,6.6,9.9,10h0a21.78,21.78,0,0,1,2.51,2.94h0a12.49,12.49,0,0,1,2.24,3.16h0l1.78,3.57a13.9,13.9,0,0,1,1.26,3.57h0c1.21,3,.94,5.71,1.34,7.85h0v.41c-.13,1.46-.26,2.55-.4,3.7h0l-.13,1.87c-.19.85-.55,1.47-.68,2.1h0l-1.26,3.88v.14l-1.74,3.25a12.9,12.9,0,0,1-1,2h0l-1.21,1.35-2.41,2.94c-6.63,6.43-13.14,12.89-19.58,19.19h0c-51.38,50.95-100.28,99.13-145.23,143.57h0c-89.76,89-164.61,163.28-216.93,215.26h0c-26.15,26-46.72,46.44-60.71,60.45h0c-3.67,3.26-6.49,6.64-9.65,8.87h0a22.6,22.6,0,0,1-4.65,3.13h0a16.65,16.65,0,0,1-4.33,1.66h0a29,29,0,0,1-6.19,1.2h0a9.34,9.34,0,0,0-1.82.13h0l-.29-2Zm0-2c.29,0,.87-.13,1.84-.18h.13a15,15,0,0,0,5.08-1.07h0a10.16,10.16,0,0,0,3.6-1.38h0a17.09,17.09,0,0,0,4.08-2.5h0c2.84-2,5.57-5.36,9.34-8.92h0c14-13.92,34.4-34.39,60.38-60.44h0c52.32-52.2,126.77-126.75,216.14-216.25h0c44.59-44.79,92.81-93.29,144-144.72h0c6.48-6.34,12.93-12.77,19.24-19.23h0l2.11-2.55.76-.94a5.65,5.65,0,0,0,.72-1.38h0l1.34-2.59.94-2.81c.13-.62.27-.94.27-1.07h0l.18-1.6a25.25,25.25,0,0,0,.31-3.08h0c-.31-2.32-.14-4.33-.76-5.67h0l-.17-.13v-.14c-1.49-7.17-9.46-13.21-16.08-19.94h0c-6.76-6.64-13.52-13.34-20.15-20h0q-40.63-40.14-82.87-81.91h0c-56.18-55.54-114.08-113-173.17-171.45h0c-29.32-29.27-59.09-58.75-88.84-88.29h0q-22.31-22.27-44.82-44.47h0L1011-785l-5.53-5.45a19.67,19.67,0,0,0-2.74-2.58h0l-2.51-2.15c-.64-.4-1.49-.8-2.72-1.55h0a9,9,0,0,0-2.53-.85h0a6.84,6.84,0,0,0-2.87-.81h0l-3.47-.26a21.4,21.4,0,0,0-11.3,3.3h0l-3,2.37c-.2.13-.36.25-.36.35h0l-.71.72-1.37,1.38L966.24-785l-22.38,22.31c-14.93,14.81-29.93,29.62-44.68,44.47h0q-44.85,44.31-89,88.29h0C751.28-571.5,693.27-514,637.05-458.45h0c-28.07,27.89-55.73,55.15-82.69,81.91h0c-6.82,6.65-13.61,13.35-20.32,20h0c-3.32,3.3-6.76,6.55-9.67,9.77h0a22.69,22.69,0,0,0-3.47,4.64h0l-.09.28,0,.13a19.56,19.56,0,0,0-1.94,5.39h0a15.71,15.71,0,0,0-.38,3.08h0a5.9,5.9,0,0,0-.25,1.65h0a2.26,2.26,0,0,0,.13.94h0l.25,3.08.83,2.85a12.67,12.67,0,0,1,.43,1.38h0l.63,1.21c.49,1,1,2,1.18,2.45h0l2.19,2.64.92,1,1.16,1.35c6.47,6.51,13,12.94,19.3,19.4h0c51.08,51.31,99.43,99.81,144.07,144.6h0c89.31,89.5,163.88,164,215.92,216.25h0c26.15,26.05,46.56,46.52,60.6,60.44h0c3.76,3.56,6.45,6.88,9.47,9h0a16.62,16.62,0,0,0,4,2.55h0a12.72,12.72,0,0,0,3.65,1.38h0a18.45,18.45,0,0,0,5.08,1h.46a9.74,9.74,0,0,0,1.35.18ZM989-802.69l3.44.35a21.19,21.19,0,0,1,3.61.85h0a10.22,10.22,0,0,1,3.44,1.44h0a29.15,29.15,0,0,1,3.29,1.69h0l2.6,2.27c1,.89,2.08,2,3,2.81h0l5.56,5.58,22.38,22.22c14.89,14.77,29.79,29.71,44.77,44.44h0q44.68,44.5,88.89,88.34h0c58.88,58.43,117,115.81,173,171.49h0q42.36,41.68,82.77,81.91h0q10.23,10,20.32,19.89h0c1.26,1.39,2.61,2.73,4.08,4.07h0c-1.29-1.34-2.69-2.68-4.08-4.07h0c-6.57-6.74-13.37-13.33-20-20.06h0Q1385.8-420,1344-462h0c-55.9-56.08-113.53-113.81-172.13-172.65h0c-29.47-29.27-58.92-58.85-88.67-88.6h0c-14.88-14.73-29.79-29.68-44.68-44.58h0l-22.25-22.3-5.69-5.5a17.31,17.31,0,0,0-2.71-2.76h0l-3.49-2.86a34.94,34.94,0,0,0-3.76-2.14h0a19.18,19.18,0,0,0-3.74-1.48h0c-1.34-.3-2.86-.79-3.58-.84h-.49l-4.05-.48A30,30,0,0,0,972.71-801h0l-3,2.44-.76.64h0l-.14.16h0l-.76.68-1.35,1.51-5.55,5.5L938.9-767.8c-15,14.9-29.94,29.85-44.84,44.62h0c-29.57,29.71-59.23,59.29-88.54,88.56h0C746.92-575.78,689.28-518,633.45-462h0q-41.87,42-82.11,82.5h0q-10.12,10.1-20.05,20.06h0c6.64-6.6,13.43-13.24,20.18-19.89h0q40.53-40.29,82.81-81.91h0c56.1-55.68,114.14-113.06,173.19-171.49h0q44.22-43.92,88.87-88.34h0c14.86-14.73,29.72-29.67,44.64-44.44h0l22.54-22.22,5.55-5.58,1.36-1.47.63-.57c.27-.13,0-.1.58-.45h0l.14-.18h0l3.33-2.67a27.54,27.54,0,0,1,13.52-4.07H989Z"/><path class="cls-35" d="M-21.17,230.16a17.71,17.71,0,0,0-1.77-.13c-.56-.09-1.3-.13-2.2-.27s-1.79-.57-2.9-.88a24,24,0,0,1-3.54-1.71,40,40,0,0,1-3.72-2.93c-2.39-2.5-5.19-5.23-8.4-8.35-12.75-12.8-31.49-31.41-55.35-55-47.66-47.39-115.73-115-197.43-196.17-40.95-40.55-85.32-84.4-132.17-130.81-5.9-5.79-11.77-11.64-17.75-17.53l-2.24-2.22-1.12-1.17c-.53-.48-.71-.84-1.09-1.2a16.9,16.9,0,0,1-1.93-2.5l-1.63-3.17a21.61,21.61,0,0,1-1-13.11,25.34,25.34,0,0,1,1.17-3.3l1.55-3a54.44,54.44,0,0,1,4.45-5c2.93-3,6-6,9-9,6-6,12.11-12.23,18.2-18.25q36.66-36.94,74.88-75.13c50.85-51,103.39-103.55,156.81-157.13,26.77-26.71,53.7-53.67,80.78-80.57,13.5-13.56,27-27,40.6-40.65l20.42-20.34,5-5.17,2.6-2.41,1.21-1.34.6-.63c.67-.53.58-.53.92-.71l1.38-1.12a6.35,6.35,0,0,1,1.57-1.11,38.54,38.54,0,0,1,3.87-2,32.14,32.14,0,0,1,3.94-1.13l2-.22,1.08-.08a4,4,0,0,0,1.25-.18l3.58.48a18.14,18.14,0,0,1,4.18,1.13,38.28,38.28,0,0,1,3.74,1.86,16.48,16.48,0,0,1,3.27,2.46c3.65,3.39,6.8,6.82,10.3,10.17l20.37,20.34C37-585.46,50.5-572,64.07-558.47c27,26.9,53.94,53.86,80.76,80.57,53.39,53.58,105.93,106.18,156.79,157.13q38.16,38.26,74.85,75c6.13,6.11,12.25,12.31,18.29,18.34,3,3,6,6,9,9l2.24,2.32.54.53.58.77,1,1.24,1,1.21.85,1.6a11.87,11.87,0,0,1,1.48,3.16,20.1,20.1,0,0,1,.07,13.26,15.92,15.92,0,0,1-1.36,3.08,13.58,13.58,0,0,1-1.76,2.86,31.59,31.59,0,0,1-2.19,2.5L404-183.63q-8.92,8.83-17.71,17.53c-46.85,46.41-91.24,90.26-132.14,130.81C172.5,45.87,104.34,113.49,56.68,160.88c-23.82,23.6-42.58,42.21-55.29,55-3.2,3.12-6,5.85-8.46,8.35a36.12,36.12,0,0,1-3.67,2.93,24.51,24.51,0,0,1-3.54,1.71c-1,.31-2.06.61-2.86.88s-1.66.18-2.29.27a16.4,16.4,0,0,0-1.74.13m0,0a16.4,16.4,0,0,1,1.74-.13c.63-.09,1.35-.13,2.29-.27s1.76-.57,2.86-.88a23.2,23.2,0,0,0,3.49-1.75,33.42,33.42,0,0,0,3.72-2.89c2.4-2.5,5.21-5.23,8.42-8.44C14.06,203,32.73,184.38,56.5,160.67,104,113.15,171.85,45.25,253.27-36.18,294-77,338-121.08,384.58-167.84c5.79-5.84,11.71-11.73,17.59-17.75,3.13-2.86,5.55-5.75,6.74-9.55a17,17,0,0,0-.11-11.51,16.62,16.62,0,0,0-1.17-2.63l-.67-1.16-1-1.34-1.08-1.2-.4-.54L404-214l-2.32-2.28c-3-3-6.05-6.07-9.09-9-6-6.07-12.23-12.08-18.34-18.2Q337.33-280,298.86-318C247.73-368.73,195-421.15,141.25-474.34q-40.12-39.93-80.92-80.38c-13.52-13.52-27.16-27.13-40.77-40.65L-.83-615.58c-3.37-3.25-6.83-6.92-10.18-10-.85-.58-1.5-1.38-2.4-1.92s-1.86-1-2.75-1.34-1.77-.58-2.75-.8l-3.58-.45c.26.14-.34.18-.52.18l-.78.1-1.59.13a22.9,22.9,0,0,0-2.92.84c-.93.31-1.65.85-2.57,1.21a5.55,5.55,0,0,0-1.31,1.07l-1.41,1.07c-.21.13-.68.53-.52.35l-.63.63L-36-623.2l-2.59,2.58-5.09,5-20.41,20.21c-13.58,13.52-27.18,27.13-40.71,40.65q-40.74,40.34-81,80.38C-239.47-421.15-292.28-368.73-343.43-318q-38.37,38-75.34,74.5c-6.14,6.07-12.29,12.18-18.39,18.12-3,3.07-6,6.1-9.06,9.14a36,36,0,0,0-4.07,4.46l-1.37,2.59c-.49.85-.6,1.79-1,2.67a19.41,19.41,0,0,0,.71,11.65l1.32,2.5a13.86,13.86,0,0,0,1.91,2.5c.27.27.67.89.89,1.12l1.07,1.07,2.24,2.19c5.87,5.92,11.78,11.81,17.6,17.65C-380.31-121.08-336.31-77-295.66-36.18c81.44,81.43,149.35,149.33,196.85,196.85C-75.1,184.38-56.41,203-43.65,215.8c3.2,3.21,6,5.94,8.39,8.34a22.61,22.61,0,0,0,3.75,3A26.27,26.27,0,0,0-28,228.88c1.11.31,2.08.61,2.9.88s1.64.18,2.2.27a17.71,17.71,0,0,1,1.77.13"/><path class="cls-35" d="M-21.17,230.16l-.2,1.53a15.08,15.08,0,0,0-1.73-.23h0c-.52-.05-1.36-.08-2.28-.18h0l-.09-.09h-.14c-.76-.18-1.77-.58-2.89-.88h0a30.24,30.24,0,0,1-3.93-1.89h0a36.3,36.3,0,0,1-3.88-3.21h0c-2.43-2.37-5.26-5.13-8.52-8.34h0C-57.51,204.2-76.24,185.55-100.06,162h0c-47.63-47.38-115.77-115-197.54-196.17h0c-40.9-40.59-85.22-84.4-132.12-130.84h0c-5.91-5.76-11.73-11.71-17.71-17.54h0l-2.24-2.1-1.09-1.15c-.68-.76-.94-1.07-1.3-1.48h0a20.34,20.34,0,0,1-2.06-2.72h0l-1.75-3.26a22.9,22.9,0,0,1-1.61-8.52h0a24.85,24.85,0,0,1,.67-5.62h0c.4-.89.56-2.18,1.21-3.57h0l1.73-3.21h0a40.38,40.38,0,0,1,4.48-5.09h0c3-3,6.06-6.11,9.09-9.1h0c6.06-6,12.11-12.18,18.22-18.29h0q36.74-36.89,74.85-75.13h0l156.85-157h0q40.16-40.08,80.72-80.66h0Q-89.34-579.82-69-600.09h0l20.35-20.4,5.06-5.08,2.6-2.54,1.3-1.3.67-.71c.62-.54.69-.62.94-.72h0l1.43-1.25a10.5,10.5,0,0,1,1.74-1.25h0a31.55,31.55,0,0,1,4.15-2h0a22.61,22.61,0,0,1,4.25-1.2h0l2.06-.27,1-.13A13,13,0,0,1-22-637H-22l3.88.41a28.28,28.28,0,0,1,4.38,1.29h0a23.77,23.77,0,0,1,3.88,1.92h0a24.23,24.23,0,0,1,3.6,2.68h0c3.69,3.43,6.87,6.82,10.37,10.25h0l20.32,20.4q20.31,20.26,40.6,40.55h0q40.58,40.54,80.77,80.66h0c53.39,53.45,106,106.09,156.83,157h0q38.11,38.2,74.86,75.13h0c6.1,6.11,12.19,12.28,18.24,18.25h0c3,3,6.07,6.15,9.11,9.14h0l2.19,2.24.65.62.63.71,1,1.29,1.14,1.39,0,.09.78,1.52a12.64,12.64,0,0,1,1.55,3.38h0a19.27,19.27,0,0,1,1.32,7.18h0a20.43,20.43,0,0,1-1.19,7h0a15.16,15.16,0,0,1-1.43,3.39h0a15.8,15.8,0,0,1-2,3.12h0c-.65.72-1.37,1.75-2.22,2.72h0l-2.26,2.1c-6,5.83-11.84,11.78-17.69,17.54h0c-46.92,46.44-91.26,90.29-132.15,130.84h0C173.49,46.93,105.39,114.57,57.76,162h0c-23.84,23.6-42.58,42.25-55.29,54.92h0c-3.18,3.21-6.05,6-8.55,8.47h0a36.91,36.91,0,0,1-4.08,3.22h0a39.8,39.8,0,0,1-3.63,1.75h0c-1.21.3-2.14.7-3,.88H-17a17.92,17.92,0,0,1-2.28.27h0a14.13,14.13,0,0,0-1.69.23h0l-.19-1.53Zm0-1.43a8.94,8.94,0,0,1,1.59-.17h0c.62-.09,1.27-.14,2-.27h0c.89-.22,1.84-.53,2.87-.89h0a14.62,14.62,0,0,0,3.11-1.51h0a31.18,31.18,0,0,0,3.42-2.68h0c2.47-2.5,5.26-5.31,8.44-8.43h0C13,202,31.66,183.32,55.45,159.63h0C103,112.07,170.78,44.25,252.19-37.25h0c40.7-40.73,84.72-84.9,131.33-131.69h0c5.8-5.81,11.68-11.65,17.66-17.67h0c3.07-2.86,5.18-5.54,6.32-9h0a15.81,15.81,0,0,0,.85-5.18h0a15.58,15.58,0,0,0-.94-5.39h0l-.07-.1v-.09a7.22,7.22,0,0,0-1.1-2.17h0l-.56-1.07-.89-1.08-1-1.33-.31-.4-.61-.54-2.21-2.19c-3.05-3.08-6.06-6.07-9.09-9.05h0c-6.18-6-12.24-12.1-18.42-18.11h0c-24.58-24.5-49.76-49.31-75.35-74.69h0c-51.1-50.64-103.91-103.1-157.56-156.24h0q-40.2-40-80.95-80.48h0c-13.54-13.53-27.13-26.9-40.76-40.42h0l-20.4-20.38c-3.44-3.35-6.87-6.89-10-9.82h0a12.67,12.67,0,0,0-2.17-1.7h0a21.26,21.26,0,0,1-2.46-1.38h0c-1-.18-1.82-.54-2.66-.76h0l-3.07-.32c-.07.1-.11.1-.16.1h-.4l-.79,0-1.52.13c-.78.22-1.68.55-2.68.76h0a15.86,15.86,0,0,1-2.57,1.25h0c0,.09-.14.09-.21.18h0a5.42,5.42,0,0,1-.71.58h0l-1.44,1.25a2.4,2.4,0,0,0-.42.27h0l-.56.58-1.21,1.25-2.6,2.53-5.08,5.06-20.46,20.38Q-83.45-574-103.8-553.74h0q-40.62,40.41-80.94,80.48h0C-238.47-420.12-291.23-367.7-342.29-317h0q-38.47,38.07-75.43,74.64h0c-6.11,6.06-12.27,12-18.36,18.16h0c-3.06,3-6.06,6-9.13,9.05h0a53.8,53.8,0,0,0-3.9,4.24h0l-1.27,2.5c-.25.53-.38,1.38-.76,2.23h0a18.74,18.74,0,0,0-.63,4.5h0a18.85,18.85,0,0,0,1.14,6.16h0l1.32,2.5a15.93,15.93,0,0,0,1.64,2.14h0a8.81,8.81,0,0,1,.71.94h0l.2.09,1,1.12,2.26,2.14c5.92,6,11.71,11.86,17.62,17.67h0c46.56,46.79,90.57,91,131.26,131.69h0c81.42,81.5,149.34,149.32,196.82,196.88h0l55.22,55.15h0c3.13,3.12,6,5.93,8.28,8.24h0c1.3,1.22,2.46,2.19,3.34,2.87h0a27.09,27.09,0,0,0,3.31,1.51h0c1,.36,2,.67,2.82.89h0c.76.13,1.41.13,2,.27h.3a7,7,0,0,1,1.32.17Zm2.48-859.84h.09c1.14.32,2,.63,2.87.91h0a15,15,0,0,1,3,1.46h0a13.78,13.78,0,0,1,2.8,2.1h0c3.4,3.08,6.82,6.78,10.2,9.94h0l20.4,20.35Q41-576.13,61.4-555.88h0c27.12,26.94,54.11,53.89,80.95,80.47h0C196-422.27,248.78-369.8,299.94-319h0q38.34,37.89,75.37,74.55h0c6.15,6,12.29,12.09,18.33,18.16h0c.74.76,1.56,1.51,2.28,2.22h0c-.72-.71-1.45-1.46-2.28-2.22h0c-6-6.11-12.11-12.13-18.18-18.43h0q-36.76-36.6-74.85-75h0c-50.86-50.86-103.46-103.5-156.83-156.95h0q-40.12-40-80.79-80.71h0Q42.68-577.71,22.36-598h0L2-618.38c-3.49-3.49-6.62-6.75-10.2-10h0a16.27,16.27,0,0,0-3-2.37h0a21.94,21.94,0,0,0-3.49-1.79h0c-1.39-.35-2.8-.84-3.87-1.07h0l-3.52-.3H-23.1l-1,.08-1.88.22c-1.21.23-2.49.72-3.79,1.07h0a27.54,27.54,0,0,0-3.62,1.84h0a8.32,8.32,0,0,0-1.36,1h0l-1.32,1.07A6.66,6.66,0,0,1-37-628h0l-.64.67L-38.88-626l-2.53,2.5-5.08,5.09L-66.86-598q-20.36,20.35-40.68,40.6h0q-40.51,40.62-80.71,80.71h0c-53.4,53.45-106,106.09-156.86,157h0q-38,38.28-74.87,74.95h0c-5.38,5.58-10.75,11-16.14,16.42h0c5.39-5.4,10.85-10.84,16.29-16.19h0q37-36.61,75.39-74.51h0c51.09-50.77,103.89-103.24,157.64-156.38h0c26.73-26.58,53.77-53.53,80.92-80.47h0q20.35-20.22,40.7-40.47h0l20.43-20.35,5.09-5.08,2.57-2.45,1.23-1.25.51-.49c0-.09.05-.09.09-.18h0c.14-.09.25-.09.38-.22h.05a3.44,3.44,0,0,0,.27-.27h0l1.39-1.16a6.87,6.87,0,0,1,1.7-1.21h0c.74-.27,1.45-.79,2.8-1.29h0c.85-.22,1.85-.54,3-.85h0l0,0h.14l1.5-.09.67-.14h.51l.18.9-.33-.9.4,1.22.16-1.35,3.69.44Zm-14,6.08h0Zm-1.23-.1,1.19-.17-1.19.17Zm-.29-.35v0ZM-23-628.65l.4-.89h0l-.4.89Z"/><path class="cls-35" d="M-21.17,230.16a17.71,17.71,0,0,0-1.77-.13c-.56-.09-1.3-.13-2.2-.27s-1.79-.57-2.9-.88a24,24,0,0,1-3.54-1.71,40,40,0,0,1-3.72-2.93c-2.39-2.5-5.19-5.23-8.4-8.35-12.75-12.8-31.49-31.41-55.35-55-47.66-47.39-115.73-115-197.43-196.17-40.95-40.55-85.32-84.4-132.17-130.81-5.9-5.79-11.77-11.64-17.75-17.53l-2.24-2.22-1.12-1.17c-.53-.48-.71-.84-1.09-1.2a16.9,16.9,0,0,1-1.93-2.5l-1.63-3.17a21.61,21.61,0,0,1-1-13.11,25.34,25.34,0,0,1,1.17-3.3l1.55-3a54.44,54.44,0,0,1,4.45-5c2.93-3,6-6,9-9,6-6,12.11-12.23,18.2-18.25q36.66-36.94,74.88-75.13c50.85-51,103.39-103.55,156.81-157.13,26.77-26.71,53.7-53.67,80.78-80.57,13.5-13.56,27-27,40.6-40.65l20.42-20.34,5-5.17,2.6-2.41,1.21-1.34.6-.63c.67-.53.58-.53.92-.71l1.38-1.12a6.35,6.35,0,0,1,1.57-1.11,38.54,38.54,0,0,1,3.87-2,32.14,32.14,0,0,1,3.94-1.13l2-.22,1.08-.08a4,4,0,0,0,1.25-.18l3.58.48a18.14,18.14,0,0,1,4.18,1.13,38.28,38.28,0,0,1,3.74,1.86,16.48,16.48,0,0,1,3.27,2.46c3.65,3.39,6.8,6.82,10.3,10.17l20.37,20.34C37-585.46,50.5-572,64.07-558.47c27,26.9,53.94,53.86,80.76,80.57,53.39,53.58,105.93,106.18,156.79,157.13q38.16,38.26,74.85,75c6.13,6.11,12.25,12.31,18.29,18.34,3,3,6,6,9,9l2.24,2.32.54.53.58.77,1,1.24,1,1.21.85,1.6a11.87,11.87,0,0,1,1.48,3.16,20.1,20.1,0,0,1,.07,13.26,15.92,15.92,0,0,1-1.36,3.08,13.58,13.58,0,0,1-1.76,2.86,31.59,31.59,0,0,1-2.19,2.5L404-183.63q-8.92,8.83-17.71,17.53c-46.85,46.41-91.24,90.26-132.14,130.81C172.5,45.87,104.34,113.49,56.68,160.88c-23.82,23.6-42.58,42.21-55.29,55-3.2,3.12-6,5.85-8.46,8.35a36.12,36.12,0,0,1-3.67,2.93,24.51,24.51,0,0,1-3.54,1.71c-1,.31-2.06.61-2.86.88s-1.66.18-2.29.27a16.4,16.4,0,0,0-1.74.13m0,0a16.4,16.4,0,0,1,1.74-.13c.63-.09,1.35-.13,2.29-.27s1.76-.57,2.86-.88a23.2,23.2,0,0,0,3.49-1.75,33.42,33.42,0,0,0,3.72-2.89c2.4-2.5,5.21-5.23,8.42-8.44C14.06,203,32.73,184.38,56.5,160.67,104,113.15,171.85,45.25,253.27-36.18,294-77,338-121.08,384.58-167.84c5.79-5.84,11.71-11.73,17.59-17.75,3.13-2.86,5.55-5.75,6.74-9.55a17,17,0,0,0-.11-11.51,16.62,16.62,0,0,0-1.17-2.63l-.67-1.16-1-1.34-1.08-1.2-.4-.54L404-214l-2.32-2.28c-3-3-6.05-6.07-9.09-9-6-6.07-12.23-12.08-18.34-18.2Q337.33-280,298.86-318C247.73-368.73,195-421.15,141.25-474.34q-40.12-39.93-80.92-80.38c-13.52-13.52-27.16-27.13-40.77-40.65L-.83-615.58c-3.37-3.25-6.83-6.92-10.18-10-.85-.58-1.5-1.38-2.4-1.92s-1.86-1-2.75-1.34-1.77-.58-2.75-.8l-3.58-.45c.26.14-.34.18-.52.18l-.78.1-1.59.13a22.9,22.9,0,0,0-2.92.84c-.93.31-1.65.85-2.57,1.21a5.55,5.55,0,0,0-1.31,1.07l-1.41,1.07c-.21.13-.68.53-.52.35l-.63.63L-36-623.2l-2.59,2.58-5.09,5-20.41,20.21c-13.58,13.52-27.18,27.13-40.71,40.65q-40.74,40.34-81,80.38C-239.47-421.15-292.28-368.73-343.43-318q-38.37,38-75.34,74.5c-6.14,6.07-12.29,12.18-18.39,18.12-3,3.07-6,6.1-9.06,9.14a36,36,0,0,0-4.07,4.46l-1.37,2.59c-.49.85-.6,1.79-1,2.67a19.41,19.41,0,0,0,.71,11.65l1.32,2.5a13.86,13.86,0,0,0,1.91,2.5c.27.27.67.89.89,1.12l1.07,1.07,2.24,2.19c5.87,5.92,11.78,11.81,17.6,17.65C-380.31-121.08-336.31-77-295.66-36.18c81.44,81.43,149.35,149.33,196.85,196.85C-75.1,184.38-56.41,203-43.65,215.8c3.2,3.21,6,5.94,8.39,8.34a22.61,22.61,0,0,0,3.75,3A26.27,26.27,0,0,0-28,228.88c1.11.31,2.08.61,2.9.88s1.64.18,2.2.27a17.71,17.71,0,0,1,1.77.13"/><path class="cls-35" d="M-21.17,230.16l-.2,1.53a15.08,15.08,0,0,0-1.73-.23h0c-.52-.05-1.36-.08-2.28-.18h0l-.09-.09h-.14c-.76-.18-1.77-.58-2.89-.88h0a30.24,30.24,0,0,1-3.93-1.89h0a36.3,36.3,0,0,1-3.88-3.21h0c-2.43-2.37-5.26-5.13-8.52-8.34h0C-57.51,204.2-76.24,185.55-100.06,162h0c-47.63-47.38-115.77-115-197.54-196.17h0c-40.9-40.59-85.22-84.4-132.12-130.84h0c-5.91-5.76-11.73-11.71-17.71-17.54h0l-2.24-2.1-1.09-1.15c-.68-.76-.94-1.07-1.3-1.48h0a20.34,20.34,0,0,1-2.06-2.72h0l-1.75-3.26a22.9,22.9,0,0,1-1.61-8.52h0a24.85,24.85,0,0,1,.67-5.62h0c.4-.89.56-2.18,1.21-3.57h0l1.73-3.21h0a40.38,40.38,0,0,1,4.48-5.09h0c3-3,6.06-6.11,9.09-9.1h0c6.06-6,12.11-12.18,18.22-18.29h0q36.74-36.89,74.85-75.13h0l156.85-157h0q40.16-40.08,80.72-80.66h0Q-89.34-579.82-69-600.09h0l20.35-20.4,5.06-5.08,2.6-2.54,1.3-1.3.67-.71c.62-.54.69-.62.94-.72h0l1.43-1.25a10.5,10.5,0,0,1,1.74-1.25h0a31.55,31.55,0,0,1,4.15-2h0a22.61,22.61,0,0,1,4.25-1.2h0l2.06-.27,1-.13A13,13,0,0,1-22-637H-22l3.88.41a28.28,28.28,0,0,1,4.38,1.29h0a23.77,23.77,0,0,1,3.88,1.92h0a24.23,24.23,0,0,1,3.6,2.68h0c3.69,3.43,6.87,6.82,10.37,10.25h0l20.32,20.4q20.31,20.26,40.6,40.55h0q40.58,40.54,80.77,80.66h0c53.39,53.45,106,106.09,156.83,157h0q38.11,38.2,74.86,75.13h0c6.1,6.11,12.19,12.28,18.24,18.25h0c3,3,6.07,6.15,9.11,9.14h0l2.19,2.24.65.62.63.71,1,1.29,1.14,1.39,0,.09.78,1.52a12.64,12.64,0,0,1,1.55,3.38h0a19.27,19.27,0,0,1,1.32,7.18h0a20.43,20.43,0,0,1-1.19,7h0a15.16,15.16,0,0,1-1.43,3.39h0a15.8,15.8,0,0,1-2,3.12h0c-.65.72-1.37,1.75-2.22,2.72h0l-2.26,2.1c-6,5.83-11.84,11.78-17.69,17.54h0c-46.92,46.44-91.26,90.29-132.15,130.84h0C173.49,46.93,105.39,114.57,57.76,162h0c-23.84,23.6-42.58,42.25-55.29,54.92h0c-3.18,3.21-6.05,6-8.55,8.47h0a36.91,36.91,0,0,1-4.08,3.22h0a39.8,39.8,0,0,1-3.63,1.75h0c-1.21.3-2.14.7-3,.88H-17a17.92,17.92,0,0,1-2.28.27h0a14.13,14.13,0,0,0-1.69.23h0l-.19-1.53Zm0-1.43a8.94,8.94,0,0,1,1.59-.17h0c.62-.09,1.27-.14,2-.27h0c.89-.22,1.84-.53,2.87-.89h0a14.62,14.62,0,0,0,3.11-1.51h0a31.18,31.18,0,0,0,3.42-2.68h0c2.47-2.5,5.26-5.31,8.44-8.43h0C13,202,31.66,183.32,55.45,159.63h0C103,112.07,170.78,44.25,252.19-37.25h0c40.7-40.73,84.72-84.9,131.33-131.69h0c5.8-5.81,11.68-11.65,17.66-17.67h0c3.07-2.86,5.18-5.54,6.32-9h0a15.81,15.81,0,0,0,.85-5.18h0a15.58,15.58,0,0,0-.94-5.39h0l-.07-.1v-.09a7.22,7.22,0,0,0-1.1-2.17h0l-.56-1.07-.89-1.08-1-1.33-.31-.4-.61-.54-2.21-2.19c-3.05-3.08-6.06-6.07-9.09-9.05h0c-6.18-6-12.24-12.1-18.42-18.11h0c-24.58-24.5-49.76-49.31-75.35-74.69h0c-51.1-50.64-103.91-103.1-157.56-156.24h0q-40.2-40-80.95-80.48h0c-13.54-13.53-27.13-26.9-40.76-40.42h0l-20.4-20.38c-3.44-3.35-6.87-6.89-10-9.82h0a12.67,12.67,0,0,0-2.17-1.7h0a21.26,21.26,0,0,1-2.46-1.38h0c-1-.18-1.82-.54-2.66-.76h0l-3.07-.32c-.07.1-.11.1-.16.1h-.4l-.79,0-1.52.13c-.78.22-1.68.55-2.68.76h0a15.86,15.86,0,0,1-2.57,1.25h0c0,.09-.14.09-.21.18h0a5.42,5.42,0,0,1-.71.58h0l-1.44,1.25a2.4,2.4,0,0,0-.42.27h0l-.56.58-1.21,1.25-2.6,2.53-5.08,5.06-20.46,20.38Q-83.45-574-103.8-553.74h0q-40.62,40.41-80.94,80.48h0C-238.47-420.12-291.23-367.7-342.29-317h0q-38.47,38.07-75.43,74.64h0c-6.11,6.06-12.27,12-18.36,18.16h0c-3.06,3-6.06,6-9.13,9.05h0a53.8,53.8,0,0,0-3.9,4.24h0l-1.27,2.5c-.25.53-.38,1.38-.76,2.23h0a18.74,18.74,0,0,0-.63,4.5h0a18.85,18.85,0,0,0,1.14,6.16h0l1.32,2.5a15.93,15.93,0,0,0,1.64,2.14h0a8.81,8.81,0,0,1,.71.94h0l.2.09,1,1.12,2.26,2.14c5.92,6,11.71,11.86,17.62,17.67h0c46.56,46.79,90.57,91,131.26,131.69h0c81.42,81.5,149.34,149.32,196.82,196.88h0l55.22,55.15h0c3.13,3.12,6,5.93,8.28,8.24h0c1.3,1.22,2.46,2.19,3.34,2.87h0a27.09,27.09,0,0,0,3.31,1.51h0c1,.36,2,.67,2.82.89h0c.76.13,1.41.13,2,.27h.3a7,7,0,0,1,1.32.17Zm2.48-859.84h.09c1.14.32,2,.63,2.87.91h0a15,15,0,0,1,3,1.46h0a13.78,13.78,0,0,1,2.8,2.1h0c3.4,3.08,6.82,6.78,10.2,9.94h0l20.4,20.35Q41-576.13,61.4-555.88h0c27.12,26.94,54.11,53.89,80.95,80.47h0C196-422.27,248.78-369.8,299.94-319h0q38.34,37.89,75.37,74.55h0c6.15,6,12.29,12.09,18.33,18.16h0c.74.76,1.56,1.51,2.28,2.22h0c-.72-.71-1.45-1.46-2.28-2.22h0c-6-6.11-12.11-12.13-18.18-18.43h0q-36.76-36.6-74.85-75h0c-50.86-50.86-103.46-103.5-156.83-156.95h0q-40.12-40-80.79-80.71h0Q42.68-577.71,22.36-598h0L2-618.38c-3.49-3.49-6.62-6.75-10.2-10h0a16.27,16.27,0,0,0-3-2.37h0a21.94,21.94,0,0,0-3.49-1.79h0c-1.39-.35-2.8-.84-3.87-1.07h0l-3.52-.3H-23.1l-1,.08-1.88.22c-1.21.23-2.49.72-3.79,1.07h0a27.54,27.54,0,0,0-3.62,1.84h0a8.32,8.32,0,0,0-1.36,1h0l-1.32,1.07A6.66,6.66,0,0,1-37-628h0l-.64.67L-38.88-626l-2.53,2.5-5.08,5.09L-66.86-598q-20.36,20.35-40.68,40.6h0q-40.51,40.62-80.71,80.71h0c-53.4,53.45-106,106.09-156.86,157h0q-38,38.28-74.87,74.95h0c-5.38,5.58-10.75,11-16.14,16.42h0c5.39-5.4,10.85-10.84,16.29-16.19h0q37-36.61,75.39-74.51h0c51.09-50.77,103.89-103.24,157.64-156.38h0c26.73-26.58,53.77-53.53,80.92-80.47h0q20.35-20.22,40.7-40.47h0l20.43-20.35,5.09-5.08,2.57-2.45,1.23-1.25.51-.49c0-.09.05-.09.09-.18h0c.14-.09.25-.09.38-.22h.05a3.44,3.44,0,0,0,.27-.27h0l1.39-1.16a6.87,6.87,0,0,1,1.7-1.21h0c.74-.27,1.45-.79,2.8-1.29h0c.85-.22,1.85-.54,3-.85h0l0,0h.14l1.5-.09.67-.14h.51l.18.9-.33-.9.4,1.22.16-1.35,3.69.44Zm-14,6.08h0Zm-1.23-.1,1.19-.17-1.19.17Zm-.29-.35v0ZM-23-628.65l.4-.89h0l-.4.89Z"/><path class="cls-35" d="M293.67,29l-1.43-.12c-1-.22-2.44-.13-4.34-.54a29.12,29.12,0,0,1-14.35-8.52C263,9.29,247.6-6,228-25.42c-39.3-39.09-95.56-94.76-162.92-161.47C31.28-220.21-5.37-256.3-44-294.53c-2.4-2.32-4.88-4.74-7.3-7.1L-55-305.24l-.9-.89a6.48,6.48,0,0,1-.91-1.17l-1.64-1.92a27.17,27.17,0,0,1-5.35-21.06c.14-1.87.9-3.51,1.35-5.48A43.47,43.47,0,0,1-60-340.67a47.4,47.4,0,0,1,3.44-4.46A48.3,48.3,0,0,1-52.76-349c4.93-5,9.9-10,14.95-15,20.15-20.3,40.65-41,61.5-62,41.79-42.12,85-85.61,129-129.68,22-22,44.24-44.18,66.55-66.44,11-11.16,22.25-22.31,33.35-33.55l16.77-16.68,2.17-2.23a5.77,5.77,0,0,1,.77-.67l.6-.54,1.14-.85a26.5,26.5,0,0,1,2.39-1.92l3.16-1.69c2.1-1.34,4.3-1.61,6.45-2.41a28.31,28.31,0,0,1,3.31-.45l1.66-.13.91-.14a9.12,9.12,0,0,1,1.21-.09,37.43,37.43,0,0,1,6,.81c2.27.67,4.82,1.07,6.72,2.32l3,1.62a32.6,32.6,0,0,1,2.7,2.08c.81.72,1.81,1.43,2.47,2.06l2.12,2.13L333-655.73c11.06,11.24,22.25,22.31,33.37,33.51q33.48,33.45,66.42,66.48c22.07,22,43.92,44,65.45,65.52s42.74,43,63.67,64,41.37,41.84,61.51,62.1c5,5,10,10.08,15,15l3.76,3.8c1.5,1.65,2.21,2.8,3.46,4.14a50.55,50.55,0,0,1,2.85,5.13c.65,1.82,1.14,3.58,1.63,5.36a49.06,49.06,0,0,1,.52,5.57c-.13,2-.29,3.48-.42,5.31-.54,1.82-1.08,3.66-1.69,5.49-.8,1.66-1.67,3.31-2.59,4.86-1.23,1.47-2.35,2.86-3.56,4.2l-3.67,3.61c-2.46,2.36-4.9,4.78-7.28,7.1C592.69-256.3,556-220.21,522.29-186.89,454.91-120.18,398.75-64.42,359.39-25.42,339.76-6,324.25,9.29,313.82,19.77a29.62,29.62,0,0,1-14.37,8.52c-1.86.41-3.3.32-4.37.54l-1.41.12m0,0,1.41-.12c1.07-.22,2.51-.13,4.3-.54a29.19,29.19,0,0,0,14.37-8.57c10.43-10.48,25.83-26,45.38-45.5,39.08-39.17,94.95-95.12,162-162.31,33.35-33.59,69.62-70.09,107.91-108.72,2.44-2.46,4.73-4.82,7.17-7.27l3.64-3.62,3-3.75,2.31-4.23,1.27-4.46.49-5c-.13-1.61-.31-3.26-.54-4.78-.51-1.59-.89-3.11-1.52-4.68a30.36,30.36,0,0,0-2.3-4c-1.1-1.29-2.36-3-3.23-4l-3.85-3.7c-5-4.95-10.07-9.95-15.08-14.95-20.38-20-41.13-40.55-62.25-61.35s-42.65-41.93-64.27-63.34c-21.77-21.51-43.61-43.28-65.79-65.23s-44.35-44-66.64-66.15c-11.31-11.12-22.5-22.13-33.69-33.43L311-667.33l-2.12-2.1c-.7-.58-1.35-1.07-2-1.55s-1.37-1.16-2-1.56l-2.24-1.17c-1.49-1.07-3-1.07-4.43-1.6-.67-.45-1.88-.31-2.8-.54l-3-.27c.54,0-.2,0-.27.14h-.6l-1.21.13c-.92.23-1.81,0-2.55.36-1.59.58-3.48.71-4.66,1.65l-2.12,1a20.29,20.29,0,0,0-2.25,1.84l-1.2.89-.59.45c-.31.34,0,0-.22.21l-2.1,2.1-16.86,16.68c-11.21,11.3-22.41,22.31-33.6,33.43-22.32,22.12-44.63,44.29-66.75,66.15-44.1,44-87.73,87-130,128.57Q-4.3-391.3-34.81-361.15c-5.08,5-10.16,10-15.17,14.95-1.3,1.25-2.58,2.55-3.79,3.7-.89,1.21-2.08,2.46-2.93,3.84a31.77,31.77,0,0,0-2.17,4.42,30,30,0,0,0-1.3,4.54,23.94,23.94,0,0,0,4.39,18.25l1.65,2,.68.76.89,1,3.63,3.62c2.48,2.45,4.79,4.91,7.21,7.27,38.28,38.63,74.47,75.13,107.94,108.72,67.08,67.19,122.89,123.14,162,162.31,19.54,19.54,34.94,35,45.43,45.5a28.47,28.47,0,0,0,14.28,8.57c1.9.41,3.38.32,4.34.54l1.43.12"/><path class="cls-35" d="M291.94,30.74h-.24a16.2,16.2,0,0,1-4.21-.49h0a32.39,32.39,0,0,1-15.33-9h0c-10.57-10.4-26-25.8-45.62-45.24h0C187.23-63.13,131-118.71,63.65-185.59h0C29.84-218.83-6.76-254.88-45.48-293.1h0c-2.42-2.32-4.93-4.73-7.21-7.15h0l-3.76-3.61-.92-.94a4.79,4.79,0,0,1-1-1.25h0L-60.06-308a30,30,0,0,1-6.15-18.16h0a28.49,28.49,0,0,1,.36-4.36h0a37.44,37.44,0,0,1,1.49-5.85h0a50.17,50.17,0,0,1,2.65-5.39h0a57.46,57.46,0,0,1,3.65-4.79h0c1.29-1.41,2.64-2.63,3.78-3.87h0c5-5.13,10.08-10,15-15.12h0q30.12-30.32,61.58-62.11h0C64-469.56,107.18-513,151.3-557.09h0q33-33.13,66.46-66.53h0q16.69-16.73,33.52-33.49h0L268-673.84l1.95-2a7.24,7.24,0,0,0,.91-.85h0a1.22,1.22,0,0,1,.38-.26h0l.36-.32,1.28-1a26.33,26.33,0,0,1,2.64-2.1h0l3.09-1.52c2.57-1.65,5-1.92,6.76-2.63h0a21.21,21.21,0,0,1,3.92-.58h0l1.72-.18.74-.05h.24a1.21,1.21,0,0,1,.74-.17h0a1.4,1.4,0,0,1,.7.17h0a41,41,0,0,1,6.47.72h0c2,.71,4.72,1.07,6.92,2.54h0l3,1.57a31.82,31.82,0,0,1,3.12,2.27h0c.83.67,1.69,1.43,2.68,2.28h0l2,2.14,16.76,16.73c11.2,11.15,22.34,22.34,33.54,33.41h0q33.35,33.47,66.43,66.57h0q33,33.06,65.32,65.4h0q32.28,32.66,63.66,64.11h0q31.37,31.78,61.59,62.11h0c5,5.12,10,10,15,15.12h0l3.83,3.74c1.5,1.65,2.42,3,3.6,4.29h0c1.21,1.83,2.11,3.83,3.07,5.57h0c.69,1.93,1.23,3.83,1.77,5.54h0v.17l0,.09c.25,2,.38,3.79.54,5.67h0l.09,0-.09.23c-.16,2.18-.38,3.75-.54,5.49h0v.34c-.54,1.84-1.23,3.67-1.7,5.54h0l-.11.13v.24c-.86,1.51-1.72,3.15-2.87,5.21h0c-1.16,1.29-2.3,2.72-3.67,4.24h0l-3.67,3.61c-2.48,2.42-4.88,4.83-7.3,7.27h0c-38.7,38.1-75.3,74.15-109.15,107.39h0C456.28-118.71,400.11-63,360.78-24h0C341.15-4.6,325.7,10.8,315.16,21.2h0a32.34,32.34,0,0,1-15.31,9.05h0a16.08,16.08,0,0,1-4.3.49h0c-.07,0-.16.05-.25.05h0c-1,.08-1.31.14-1.31.14h0l-.32-2-.29,2h0l-1.44-.19ZM278.11-668,276-665.9l-16.86,16.74c-11.26,11.15-22.4,22.21-33.59,33.31h0c-22.32,22.19-44.64,44.35-66.74,66.16h0c-44.19,43.91-87.79,87-130,128.72h0c-21.13,20.74-41.88,41.22-62.23,61.21h0c-5.06,5-10.18,10-15.11,15h0a36.31,36.31,0,0,0-3.63,3.43h0c-1,1.47-2.17,2.63-2.71,3.43h0c-.8,1.66-1.72,3-2,3.93h0a24.4,24.4,0,0,0-1.28,4.59h0a30.7,30.7,0,0,0-.27,3.62h0a22.08,22.08,0,0,0,4.25,13h0l1.66,2,.52.66.91,1,3.63,3.61c2.39,2.41,4.81,4.91,7.18,7.28h0c38.26,38.59,74.51,75,108,108.67h0c67,67.19,122.89,123.22,162,162.31h0c19.54,19.63,34.94,35,45.37,45.46h0a28.26,28.26,0,0,0,13.32,8.08h0c1.61.31,3,.31,4.05.45h0c.65.08,1.08.16,1.23.16h0a7.21,7.21,0,0,0,1.21-.16h0c1.28-.14,2.46-.14,4.14-.45h0a27.38,27.38,0,0,0,13.34-8.08h0c10.48-10.44,25.88-25.83,45.42-45.46h0c39.08-39.09,95-95.12,162-162.31h0c33.42-33.63,69.6-70.08,108-108.67h0c2.4-2.46,4.84-4.87,7.1-7.32h0l3.56-3.48,2.93-3.49,2.1-3.91,1.21-4.11.43-4.6c-.2-1.47-.29-3-.61-4.37h0a29.07,29.07,0,0,0-1.23-4.15h0c-.82-1.51-1.36-2.72-2.06-3.74h0c-1.12-1.25-2.39-2.94-3.15-3.71h0l-3.74-3.65c-5-5-10.1-10-15.2-15h0Q588.46-389.77,556.76-421h0c-21.11-20.83-42.62-42-64.27-63.58h0c-21.71-21.36-43.58-43.19-65.77-65.14h0c-22.09-21.81-44.34-43.94-66.76-66.16h0c-11.2-11.1-22.32-22.16-33.59-33.31h0l-16.76-16.65L307.5-668c-.6-.49-1.2-.93-1.81-1.47h0a12.44,12.44,0,0,0-1.79-1.33h0l-2.42-1.34c-1-.72-2.1-.72-4.28-1.61h-.53a6.55,6.55,0,0,1-1.5-.13h0l-2.33-.22h-.53l-.61.08-1.1.14a21,21,0,0,1-2.28.13h0c-1.77.72-3.6,1.07-4.14,1.57h0l-.07,0L284-672l-2.2,1a17.3,17.3,0,0,1-1.88,1.47h0l-1.19,1-.46.27v.08h0c-.07,0-.14.13-.14.13Zm17.59-9.72c.61.18,1.76-.13,3.25.49h0c.9.58,2.69.58,4.64,1.79h0l2.17,1.19a9.7,9.7,0,0,1,2.39,1.79h0c.54.5,1.25.9,2.13,1.75h0l2.08,2.1,16.86,16.73c11.19,11,22.51,22.16,33.62,33.23h0c22.38,22.21,44.63,44.35,66.71,66.16h0q33.19,33,65.72,65.22h0l64.26,63.5h0q31.82,31.24,62.24,61.24h0c5.06,5,10.16,10.05,15.19,14.9h0l2.78,2.82-2.69-2.82c-5.07-4.94-10-10-15-15.07h0q-30.3-30.25-61.61-61.92h0c-20.88-21.21-42.11-42.43-63.57-64.15h0q-32.5-32.42-65.41-65.5h0q-33.15-33-66.43-66.53h0c-11.2-11.06-22.33-22.3-33.56-33.45h0l-16.75-16.86-2-2c-.69-.59-1.58-1.39-2.32-2.06h0A16.81,16.81,0,0,0,308-677h0l-3.18-1.66c-1.32-1.07-3.74-1.56-6.09-2.18h0c-1.92-.48-3.6-.4-5.66-.72h-.4a1.84,1.84,0,0,0-.52.09h0l-.82,0-1.59.18a13.07,13.07,0,0,0-3,.4h0c-2.42.77-4.36,1.11-6.08,2.22h0l-3.09,1.66c-.74.53-1.28.94-2.24,1.74h0l-1.14,1-.74.49c-.16.13-.24.26-.33.32h0l-.14.27h0L270.81-671,254-654.3c-11.14,11.15-22.27,22.39-33.42,33.45h0q-33.44,33.55-66.5,66.53h0c-44,44-87.28,87.48-128.89,129.65h0c-20.91,21.06-41.53,41.75-61.56,61.92h0c-5.06,5.08-10.08,10.13-15.05,15.07h0c-.09.05-.15.28-.22.28h0c.07,0,.13-.23.22-.23h0c5-4.9,10.06-10,15.18-14.95h0q30.47-30,62.17-61.24h0c42.26-41.63,85.91-84.69,130-128.72h0c22.09-21.81,44.43-44,66.75-66.16h0c11.19-11.07,22.47-22.22,33.58-33.23h0l16.94-16.78,1.77-1.84c.11-.17.27-.21.34-.3h0c.07,0,.07,0,.07-.13h0l.29-.31h0l.6-.41,1.21-.94a23.17,23.17,0,0,1,2.57-2h0l1.93-.94c1.9-1.12,3.83-1.25,5-1.7h0a8.83,8.83,0,0,1,3.12-.62h1.14l.55-.15h.48l.06,1.4.25-1.43h0v0h.22l2.86.28ZM292-674.15l.29-1h0l-.29,1Z"/><path class="cls-6" d="M630.13,96s-.75-.09-2.14-.13c-.63-.14-1.44-.14-2.53-.33a17.38,17.38,0,0,1-3.42-.92c-.58-.14-1.26-.41-2-.58-.7-.36-1.39-.76-2.07-1.16s-1.49-.72-2.32-1.16-1.41-1.12-2.18-1.79a45,45,0,0,1-4.65-4.2c-1.5-1.51-3.25-3.21-5-5-7.14-7-15.73-15.42-25.65-25.2S557.12,34.89,544.9,22.89c-6.28-5.89-12.56-12-19.16-18.42C522.42,1.21,519-2,515.55-5.43c-1.7-1.52-3.36-3.27-5.15-5-1.08-1.07-1.61-1.91-2.46-2.8l-1.26-1.43-1-1.74c-2.91-4.6-3.85-9.72-3.74-15.35l.39-3.66,1-4.1a16.71,16.71,0,0,1,1.66-3.84,18.15,18.15,0,0,1,2.17-3.52L509.86-50l2.74-2.81c1.76-1.88,3.64-3.7,5.43-5.58,3.61-3.75,7.39-7.58,11.06-11.38C544-85.16,559.4-101,575.19-116.93c7.87-7.94,15.86-16,23.88-24.08l5.95-6,3-3,.33-.44.25-.18c0,.18.4-.45.4-.45l.87-.71,1.64-1.3a13.4,13.4,0,0,1,1.76-1.34l2.22-1.25a19.26,19.26,0,0,1,4.7-2.14,34.69,34.69,0,0,1,4.66-1.21l2.48-.26,1.15-.05.64-.09h.32c.17,0-.23-.09.66,0l4.19.4a8.86,8.86,0,0,1,2.42.59l2.51.62a17.44,17.44,0,0,1,4.54,2.05l2.22,1.16c.65.41,1.25,1,1.83,1.39a59.64,59.64,0,0,1,6.63,6.19l6,6q12,12.15,23.82,24.08c15.76,15.93,31.32,31.77,46.15,47.11,3.7,3.8,7.42,7.63,11,11.38,1.82,1.88,3.61,3.7,5.51,5.58L749.72-50l.31.4.36.26.09.23.58.67,1.19,1.61,1.23,1.38c.4.66.7,1.38,1,1.91a17.58,17.58,0,0,1,1.77,4l1.2,3.75c.32,1.39.32,2.77.5,4.11a25.79,25.79,0,0,1-3.51,15.17c-1.08,2.45-3,4.24-4.57,6.19-1.79,1.7-3.49,3.45-5.24,5-3.34,3.42-6.74,6.64-10,9.9C728,10.85,721.56,17,715.4,23,703.2,34.89,692,45.87,682.09,55.5,672,65.28,663.49,73.71,656.4,80.7c-1.8,1.79-3.43,3.49-5,5a45.67,45.67,0,0,1-4.54,4.2c-.76.67-1.53,1.29-2.2,1.79-.85.44-1.61.84-2.32,1.16s-1.44.8-2.11,1.16c-.63.17-1.36.44-2,.58a13.93,13.93,0,0,1-3.44.92c-1,.19-1.84.19-2.53.33-1.34,0-2.09.13-2.09.13m0,0s.75-.09,2.09-.22a18.8,18.8,0,0,0,2.53-.24,25.51,25.51,0,0,0,3.44-.92c.66-.23,1.35-.46,2-.67.67-.41,1.3-.67,2.11-1.11s1.47-.81,2.23-1.21,1.46-1.12,2.2-1.7c1.5-1.21,2.91-2.72,4.5-4.2s3.22-3.29,5-5.13c7.06-7,15.56-15.66,25.34-25.47S702.28,34,714.31,21.82c5.86-6.2,12.08-12.53,18.46-19.19,3.32-3.25,6.54-6.6,9.85-10,1.66-1.69,3.29-3.47,5.08-5.13,1.26-1.87,3-3.48,3.83-5.62a23.21,23.21,0,0,0,2.65-13.38,17.64,17.64,0,0,0-.54-3.48l-1.08-3.35c-.36-1-1-1.91-1.5-3a12.86,12.86,0,0,0-.85-1.51L749-44.25l-1.21-1.44-.58-.75-.25-.22h0l-.29-.31-2.85-2.68c-1.89-1.79-3.67-3.56-5.59-5.49-3.87-3.57-7.63-7.31-11.48-11C711.39-81,695.52-96.45,679.5-112.07c-8-8-16-15.78-24.09-23.74l-6.16-6.06-3-3c-1.09-1.07-2-1.61-2.87-2.41a13.92,13.92,0,0,0-1.52-1.19l-1.66-.81a9.78,9.78,0,0,0-3.2-1.43l-1.52-.45a10.2,10.2,0,0,0-1.88-.45l-4.27-.4h.13l-.27.1h-.42l-.88.12-1.88.18c-1.18,0-2.23.67-3.51.9a10.48,10.48,0,0,0-3.18,1.3l-1.5.79a7.54,7.54,0,0,0-1.63,1.21l-1.68,1.34-.83.67c-.13.13.4-.26.09,0l-.22.26-.41.31-3,3-6.08,6.06c-8,8-16.15,15.79-24.1,23.74C564-96.45,548.12-81,532.7-66.17c-3.77,3.72-7.59,7.32-11.4,11-1.9,1.78-3.72,3.61-5.6,5.49L512.86-47l-2.28,2.77a9.57,9.57,0,0,0-1.84,2.89,11.21,11.21,0,0,0-1.52,3L506.17-35l-.54,3.8c-.13,4.36.63,9.36,3,13.11l.69,1.38,1.12,1.48c.71.89,1.66,2.05,2.24,2.76,1.64,1.66,3.31,3.44,4.94,5.13,3.32,3.39,6.63,6.74,9.84,10,6.42,6.61,12.64,12.94,18.59,19.14,12,12.18,23,23.33,32.62,33.28C588.48,64.91,597,73.53,604,80.57c1.81,1.84,3.35,3.57,4.94,5.13s3,3,4.62,4.2c.67.58,1.49,1.16,2.17,1.7s1.52.84,2.23,1.21,1.44.7,2.11,1.11c.67.21,1.35.44,1.93.67,1.38.26,2.46.89,3.42.92a22,22,0,0,0,2.53.24c1.39.13,2.14.22,2.14.22"/><path class="cls-6" d="M630.13,96,630,98h-.11c-.25,0-.83,0-2-.23h0c-.67-.08-1.56-.13-2.55-.31h0a25.41,25.41,0,0,1-3.76-.84h0a16.27,16.27,0,0,0-2.1-.72h-.16l-.2-.13c-.63-.27-1.32-.72-2-1.12h0c-.8-.31-1.41-.71-2.32-1.16h0l-.16-.13-.16-.09a24.61,24.61,0,0,0-2-1.69h0a36.62,36.62,0,0,1-4.86-4.38h0c-1.6-1.51-3.24-3.31-5.07-5h0c-7.06-7-15.68-15.53-25.59-25.26h0c-9.94-9.68-21.14-20.61-33.4-32.61h0q-9.24-8.91-19.18-18.47h0C521,2.63,517.58-.62,514.14-4h0c-1.63-1.61-3.43-3.21-5.2-5h0c-1.05-1.17-1.72-2-2.48-2.95h0l-1.32-1.47-.09-.18-1-1.65C501-20.08,500-25.42,500-30.91h0v-.94h0l.35-3.93.05-.13,1.07-4a21.13,21.13,0,0,1,1.93-4.32h0a15.39,15.39,0,0,1,2.28-3.84h0l2.73-3.35,2.75-2.85c1.8-1.83,3.61-3.71,5.4-5.53h0c3.81-3.85,7.45-7.6,11.17-11.38h0c14.89-15.26,30.27-31.14,46.16-47.11h0q11.79-12,23.73-24.09h0l6.09-6,2.93-3,.41-.45a.41.41,0,0,0,.21-.13h0s0,0,0,0h0l.09-.09h0c0-.05.15-.05.15-.18h0c.14,0,.25-.17.3-.17h0l.83-.81,1.65-1.34a22.56,22.56,0,0,1,2-1.56h0l2.26-1.2a17.49,17.49,0,0,1,5.12-2.23h0a20.69,20.69,0,0,1,5-1.25h0l2.39-.32,1.26-.09h.54l.15-.13h1.28l4.12.45a13.46,13.46,0,0,1,2.86.53h0l2.38.72a20.76,20.76,0,0,1,5.08,2.17h0l2.19,1.22a24,24,0,0,1,2.1,1.65h0a80.92,80.92,0,0,1,6.83,6.24h0l6.05,6.12q11.91,12,23.79,24h0c15.83,16,31.18,31.85,46.07,47.11h0c3.74,3.78,7.45,7.53,11.15,11.38h0c1.81,1.82,3.67,3.7,5.46,5.62h0l2.64,2.67.47.41.45.62,0,.09.63.76,1.23,1.46,1.25,1.66c.43.76.83,1.43,1.15,2.09h0a39.56,39.56,0,0,1,2,4.21h0l1,3.83a27.07,27.07,0,0,1,.7,4.51h0V-30h0a27.51,27.51,0,0,1-3.74,14.22h0c-1.3,2.91-3.45,4.74-5.09,6.83h0c-1.61,1.74-3.44,3.34-5.1,4.95h0c-3.47,3.35-6.83,6.6-10.05,9.82h0c-6.71,6.46-13.09,12.53-19.27,18.6h0c-12.2,11.87-23.35,22.8-33.36,32.48h0c-9.91,9.73-18.58,18.25-25.74,25.17h0c-1.63,1.77-3.24,3.57-4.9,5.08h0A50.76,50.76,0,0,1,648,91.46h0c-.72.54-1.39,1.21-2.17,1.79h0l0,.09-.14,0a17.69,17.69,0,0,1-2.34,1.25h0c-.72.4-1.41.85-2.2,1.21h0l-.15,0h-.14c-.67.22-1.36.4-2.1.72h0a23.83,23.83,0,0,1-3.69.84h0c-1,.18-1.89.23-2.62.36h0l-2,.18h0l-.21-2Zm-7.54-3.3c1.46.4,2.57.8,3.09.84h0c1,.09,1.86.14,2.51.27h0a6.51,6.51,0,0,1,1.94.23h0a6.73,6.73,0,0,1,1.8-.23h0c.85-.13,1.67-.18,2.62-.27h0c.58,0,1.56-.44,3.09-.84h0c.51-.14,1.05-.41,1.79-.67h0a6.39,6.39,0,0,0,1.81-.94h0c.76-.36,1.5-.71,2.19-1.07h0a25.93,25.93,0,0,0,2-1.74h0a29.81,29.81,0,0,0,4.33-4.06h0c1.58-1.48,3.26-3.25,5.06-5h0c7-7,15.53-15.71,25.31-25.52h0c9.69-9.86,20.57-21.15,32.62-33.33h0c6-6.15,12.21-12.44,18.64-19h0c3.18-3.35,6.49-6.77,9.81-10.08h0c1.63-1.78,3.29-3.48,4.67-4.95h0c1.63-2.06,3.14-3.57,3.85-5.4h0a20.43,20.43,0,0,0,2.49-10h0c0-.75,0-1.47,0-2.09h0a18.41,18.41,0,0,0-.47-3.17h0l-1-3.26a24.67,24.67,0,0,0-1.57-2.68h0a5.14,5.14,0,0,0-.54-1.19h0L747.44-43l-1.17-1.44-.63-.75-.13,0-.31-.31-2.78-2.78c-1.88-1.73-3.74-3.65-5.75-5.39h0c-3.63-3.62-7.48-7.23-11.31-11h0c-15.4-14.76-31.27-30.2-47.28-46h0c-8-7.85-16.09-15.7-24.15-23.73h0l-6-6-3.15-3.08a28.21,28.21,0,0,0-2.62-2.13h0a8.29,8.29,0,0,0-1.14-1h0l-1.64-.94a15.31,15.31,0,0,0-2.59-1.07h-.14l-.13-.05-1.77-.53a2.23,2.23,0,0,0-1.3-.31h0l-3.81-.36h-.17l-.41.09-1,0-1.93.23c-.69-.1-1.61.45-3.27.84h0a12.81,12.81,0,0,0-2.66,1.12h0l-1.45.71-1.33,1.08h0l-1.67,1.28-.5.41v.09l-.18.17h0l-.42.4-3.13,3-6,6c-8,7.94-16.17,15.88-24.11,23.73h0c-16,15.7-31.95,31.24-47.28,46h0c-3.87,3.7-7.59,7.4-11.46,11h0C520.81-52,519-50,517.05-48.32h0l-2.53,2.55-2.46,2.9a6.58,6.58,0,0,0-1.53,2.45h0a12.73,12.73,0,0,0-1.5,2.77h0l-1,3-.36,3.44v1.43h0A20.67,20.67,0,0,0,510.31-19h0l.67,1.29,1,1.25c.76.93,1.63,2.14,2,2.66h0c1.68,1.62,3.43,3.32,5,5.1h0c3.31,3.31,6.62,6.73,9.87,10.08h0c6.38,6.61,12.6,12.9,18.56,19.1h0c11.95,12.13,22.92,23.42,32.7,33.28h0c9.78,9.81,18.25,18.47,25.25,25.52h0c1.81,1.7,3.45,3.47,5,5h0a49.24,49.24,0,0,0,4.43,4.19h0c.67.58,1.28,1,2,1.61h0L619,91.06h0a10.31,10.31,0,0,0,1.94.94h0c.65.26,1.26.53,1.7.67ZM749.18-47l1.39,1.48,1.29,1.64c.5.77.7,1.25.93,1.65h0a22.18,22.18,0,0,1,1.68,3.39h0l0,.14,0-.41c-.41-1-1.08-2.14-1.78-3.52h0a10.15,10.15,0,0,0-.83-1.55h0l-1.11-1.43-1.17-1.52L748.8-48v-.09l-.16-.23-.4-.48-2.73-2.64c-1.73-1.77-3.62-3.83-5.4-5.62h0c-3.71-3.75-7.47-7.58-11.17-11.46h0c-14.81-15.26-30.29-31-46-47h0c-7.88-8-15.87-16-23.86-24h0l-6-6a61.06,61.06,0,0,0-6.4-5.94h0c-.85-.63-1.35-1.22-1.68-1.35h0L642.85-154a13.94,13.94,0,0,0-4.16-1.74h0l-2.58-.8a9.09,9.09,0,0,0-1.92-.45h0l-4.19-.4h-1.23l-1.23.27-2.53.17a30.66,30.66,0,0,0-4.36,1.25h0a15,15,0,0,0-4.14,1.73h0l-2.24,1.25a13.71,13.71,0,0,0-1.41,1.3h0l-1.66,1.35-.78.52s-.25.28-.39.42h0l-.13.13-.47.39-3,3.05-6,6c-8,8-16,16-23.77,24h0c-15.85,15.94-31.29,31.73-46.13,47h0c-3.72,3.88-7.46,7.71-11,11.46h0c-1.93,1.79-3.65,3.85-5.53,5.62h0l-2.62,2.64-2.62,3.3a15.83,15.83,0,0,0-1.89,3h0a20.27,20.27,0,0,0-1.39,3.22h0a19.35,19.35,0,0,1,1.47-3.07h0a19.52,19.52,0,0,1,2.1-3.26h0l2.47-2.86,2.78-2.68c1.89-1.69,3.75-3.61,5.63-5.39h0c3.85-3.67,7.6-7.36,11.47-11h0c15.38-15,31.24-30.29,47.25-46h0c7.88-7.85,16-15.79,24-23.73h0l6.18-6,2.91-3,.27-.18c.13-.21.27-.31.33-.49h.09c0-.09.16-.09.32-.12h0v-.15h.13v0h0l.4-.35,1.79-1.38a7.11,7.11,0,0,1,1.86-1.38h0l1.5-.77a14.7,14.7,0,0,1,3.7-1.57h0c.85,0,1.94-.83,3.76-.83h0l1.79-.27,1-.05h.38a.77.77,0,0,1,.41-.1H630l.13.1h0l3.52.32a4.79,4.79,0,0,1,2.42.53h0l1.52.3a16.92,16.92,0,0,1,3.65,1.71h0l1.66.84a12.79,12.79,0,0,1,1.79,1.43h0c.78.68,1.79,1.25,3,2.41h0l3,3,6.09,6c8,8,16.16,15.88,24.15,23.77h0c15.92,15.67,31.79,31,47.19,46h0c3.83,3.62,7.59,7.44,11.42,11h0c1.94,1.82,3.76,3.7,5.64,5.39h0L748-48.4l.41.31c0,.09,0,.09,0,.14h0l.09.09h0l.13.13h0v.09h0l.54.62Zm-3.54,1.83Zm-.44-.58a.44.44,0,0,1-.09-.26h0c0,.13,0,.21.09.26Zm-.14-.89a1.64,1.64,0,0,1,.05-.46h0a1.64,1.64,0,0,0-.05.46Zm.18-.71Zm0-.05a1.72,1.72,0,0,1,.4-.53h0a1.72,1.72,0,0,0-.4.53Zm-138-101.8c-.21-.24-.49-.46-.54-.72h0a1.56,1.56,0,0,0,.54.72Zm3.32-1.79a2,2,0,0,1,0,.45h0c.09-.14,0-.32,0-.59h0v.14Zm-.54-1a4,4,0,0,0-.69-.4h0a4,4,0,0,1,.69.4Zm-2.35-.27Zm22.92-5.36v-.08h0v.08Zm-23.21,5.54Z"/><path class="cls-36" d="M630.13,96s-.75-.09-2.14-.13c-.63-.14-1.44-.14-2.53-.33a17.38,17.38,0,0,1-3.42-.92c-.58-.14-1.26-.41-2-.58-.7-.36-1.39-.76-2.07-1.16s-1.49-.72-2.32-1.16-1.41-1.12-2.18-1.79a45,45,0,0,1-4.65-4.2c-1.5-1.51-3.25-3.21-5-5-7.14-7-15.73-15.42-25.65-25.2S557.12,34.89,544.9,22.89c-6.28-5.89-12.56-12-19.16-18.42C522.42,1.21,519-2,515.55-5.43c-1.7-1.52-3.36-3.27-5.15-5-1.08-1.07-1.61-1.91-2.46-2.8l-1.26-1.43-1-1.74c-2.91-4.6-3.85-9.72-3.74-15.35l.39-3.66,1-4.1a16.71,16.71,0,0,1,1.66-3.84,18.15,18.15,0,0,1,2.17-3.52L509.86-50l2.74-2.81c1.76-1.88,3.64-3.7,5.43-5.58,3.61-3.75,7.39-7.58,11.06-11.38C544-85.16,559.4-101,575.19-116.93c7.87-7.94,15.86-16,23.88-24.08l5.95-6,3-3,.33-.44.25-.18c0,.18.4-.45.4-.45l.87-.71,1.64-1.3a13.4,13.4,0,0,1,1.76-1.34l2.22-1.25a19.26,19.26,0,0,1,4.7-2.14,34.69,34.69,0,0,1,4.66-1.21l2.48-.26,1.15-.05.64-.09h.32c.17,0-.23-.09.66,0l4.19.4a8.86,8.86,0,0,1,2.42.59l2.51.62a17.44,17.44,0,0,1,4.54,2.05l2.22,1.16c.65.41,1.25,1,1.83,1.39a59.64,59.64,0,0,1,6.63,6.19l6,6q12,12.15,23.82,24.08c15.76,15.93,31.32,31.77,46.15,47.11,3.7,3.8,7.42,7.63,11,11.38,1.82,1.88,3.61,3.7,5.51,5.58L749.72-50l.31.4.36.26.09.23.58.67,1.19,1.61,1.23,1.38c.4.66.7,1.38,1,1.91a17.58,17.58,0,0,1,1.77,4l1.2,3.75c.32,1.39.32,2.77.5,4.11a25.79,25.79,0,0,1-3.51,15.17c-1.08,2.45-3,4.24-4.57,6.19-1.79,1.7-3.49,3.45-5.24,5-3.34,3.42-6.74,6.64-10,9.9C728,10.85,721.56,17,715.4,23,703.2,34.89,692,45.87,682.09,55.5,672,65.28,663.49,73.71,656.4,80.7c-1.8,1.79-3.43,3.49-5,5a45.67,45.67,0,0,1-4.54,4.2c-.76.67-1.53,1.29-2.2,1.79-.85.44-1.61.84-2.32,1.16s-1.44.8-2.11,1.16c-.63.17-1.36.44-2,.58a13.93,13.93,0,0,1-3.44.92c-1,.19-1.84.19-2.53.33-1.34,0-2.09.13-2.09.13m0,0s.75-.09,2.09-.22a18.8,18.8,0,0,0,2.53-.24,25.51,25.51,0,0,0,3.44-.92c.66-.23,1.35-.46,2-.67.67-.41,1.3-.67,2.11-1.11s1.47-.81,2.23-1.21,1.46-1.12,2.2-1.7c1.5-1.21,2.91-2.72,4.5-4.2s3.22-3.29,5-5.13c7.06-7,15.56-15.66,25.34-25.47S702.28,34,714.31,21.82c5.86-6.2,12.08-12.53,18.46-19.19,3.32-3.25,6.54-6.6,9.85-10,1.66-1.69,3.29-3.47,5.08-5.13,1.26-1.87,3-3.48,3.83-5.62a23.21,23.21,0,0,0,2.65-13.38,17.64,17.64,0,0,0-.54-3.48l-1.08-3.35c-.36-1-1-1.91-1.5-3a12.86,12.86,0,0,0-.85-1.51L749-44.25l-1.21-1.44-.58-.75-.25-.22h0l-.29-.31-2.85-2.68c-1.89-1.79-3.67-3.56-5.59-5.49-3.87-3.57-7.63-7.31-11.48-11C711.39-81,695.52-96.45,679.5-112.07c-8-8-16-15.78-24.09-23.74l-6.16-6.06-3-3c-1.09-1.07-2-1.61-2.87-2.41a13.92,13.92,0,0,0-1.52-1.19l-1.66-.81a9.78,9.78,0,0,0-3.2-1.43l-1.52-.45a10.2,10.2,0,0,0-1.88-.45l-4.27-.4h.13l-.27.1h-.42l-.88.12-1.88.18c-1.18,0-2.23.67-3.51.9a10.48,10.48,0,0,0-3.18,1.3l-1.5.79a7.54,7.54,0,0,0-1.63,1.21l-1.68,1.34-.83.67c-.13.13.4-.26.09,0l-.22.26-.41.31-3,3-6.08,6.06c-8,8-16.15,15.79-24.1,23.74C564-96.45,548.12-81,532.7-66.17c-3.77,3.72-7.59,7.32-11.4,11-1.9,1.78-3.72,3.61-5.6,5.49L512.86-47l-2.28,2.77a9.57,9.57,0,0,0-1.84,2.89,11.21,11.21,0,0,0-1.52,3L506.17-35l-.54,3.8c-.13,4.36.63,9.36,3,13.11l.69,1.38,1.12,1.48c.71.89,1.66,2.05,2.24,2.76,1.64,1.66,3.31,3.44,4.94,5.13,3.32,3.39,6.63,6.74,9.84,10,6.42,6.61,12.64,12.94,18.59,19.14,12,12.18,23,23.33,32.62,33.28C588.48,64.91,597,73.53,604,80.57c1.81,1.84,3.35,3.57,4.94,5.13s3,3,4.62,4.2c.67.58,1.49,1.16,2.17,1.7s1.52.84,2.23,1.21,1.44.7,2.11,1.11c.67.21,1.35.44,1.93.67,1.38.26,2.46.89,3.42.92a22,22,0,0,0,2.53.24c1.39.13,2.14.22,2.14.22"/><path class="cls-36" d="M630.13,96,630,98h-.11c-.25,0-.83,0-2-.23h0c-.67-.08-1.56-.13-2.55-.31h0a25.41,25.41,0,0,1-3.76-.84h0a16.27,16.27,0,0,0-2.1-.72h-.16l-.2-.13c-.63-.27-1.32-.72-2-1.12h0c-.8-.31-1.41-.71-2.32-1.16h0l-.16-.13-.16-.09a24.61,24.61,0,0,0-2-1.69h0a36.62,36.62,0,0,1-4.86-4.38h0c-1.6-1.51-3.24-3.31-5.07-5h0c-7.06-7-15.68-15.53-25.59-25.26h0c-9.94-9.68-21.14-20.61-33.4-32.61h0q-9.24-8.91-19.18-18.47h0C521,2.63,517.58-.62,514.14-4h0c-1.63-1.61-3.43-3.21-5.2-5h0c-1.05-1.17-1.72-2-2.48-2.95h0l-1.32-1.47-.09-.18-1-1.65C501-20.08,500-25.42,500-30.91h0v-.94h0l.35-3.93.05-.13,1.07-4a21.13,21.13,0,0,1,1.93-4.32h0a15.39,15.39,0,0,1,2.28-3.84h0l2.73-3.35,2.75-2.85c1.8-1.83,3.61-3.71,5.4-5.53h0c3.81-3.85,7.45-7.6,11.17-11.38h0c14.89-15.26,30.27-31.14,46.16-47.11h0q11.79-12,23.73-24.09h0l6.09-6,2.93-3,.41-.45a.41.41,0,0,0,.21-.13h0s0,0,0,0h0l.09-.09h0c0-.05.15-.05.15-.18h0c.14,0,.25-.17.3-.17h0l.83-.81,1.65-1.34a22.56,22.56,0,0,1,2-1.56h0l2.26-1.2a17.49,17.49,0,0,1,5.12-2.23h0a20.69,20.69,0,0,1,5-1.25h0l2.39-.32,1.26-.09h.54l.15-.13h1.28l4.12.45a13.46,13.46,0,0,1,2.86.53h0l2.38.72a20.76,20.76,0,0,1,5.08,2.17h0l2.19,1.22a24,24,0,0,1,2.1,1.65h0a80.92,80.92,0,0,1,6.83,6.24h0l6.05,6.12q11.91,12,23.79,24h0c15.83,16,31.18,31.85,46.07,47.11h0c3.74,3.78,7.45,7.53,11.15,11.38h0c1.81,1.82,3.67,3.7,5.46,5.62h0l2.64,2.67.47.41.45.62,0,.09.63.76,1.23,1.46,1.25,1.66c.43.76.83,1.43,1.15,2.09h0a39.56,39.56,0,0,1,2,4.21h0l1,3.83a27.07,27.07,0,0,1,.7,4.51h0V-30h0a27.51,27.51,0,0,1-3.74,14.22h0c-1.3,2.91-3.45,4.74-5.09,6.83h0c-1.61,1.74-3.44,3.34-5.1,4.95h0c-3.47,3.35-6.83,6.6-10.05,9.82h0c-6.71,6.46-13.09,12.53-19.27,18.6h0c-12.2,11.87-23.35,22.8-33.36,32.48h0c-9.91,9.73-18.58,18.25-25.74,25.17h0c-1.63,1.77-3.24,3.57-4.9,5.08h0A50.76,50.76,0,0,1,648,91.46h0c-.72.54-1.39,1.21-2.17,1.79h0l0,.09-.14,0a17.69,17.69,0,0,1-2.34,1.25h0c-.72.4-1.41.85-2.2,1.21h0l-.15,0h-.14c-.67.22-1.36.4-2.1.72h0a23.83,23.83,0,0,1-3.69.84h0c-1,.18-1.89.23-2.62.36h0l-2,.18h0l-.21-2Zm-7.54-3.3c1.46.4,2.57.8,3.09.84h0c1,.09,1.86.14,2.51.27h0a6.51,6.51,0,0,1,1.94.23h0a6.73,6.73,0,0,1,1.8-.23h0c.85-.13,1.67-.18,2.62-.27h0c.58,0,1.56-.44,3.09-.84h0c.51-.14,1.05-.41,1.79-.67h0a6.39,6.39,0,0,0,1.81-.94h0c.76-.36,1.5-.71,2.19-1.07h0a25.93,25.93,0,0,0,2-1.74h0a29.81,29.81,0,0,0,4.33-4.06h0c1.58-1.48,3.26-3.25,5.06-5h0c7-7,15.53-15.71,25.31-25.52h0c9.69-9.86,20.57-21.15,32.62-33.33h0c6-6.15,12.21-12.44,18.64-19h0c3.18-3.35,6.49-6.77,9.81-10.08h0c1.63-1.78,3.29-3.48,4.67-4.95h0c1.63-2.06,3.14-3.57,3.85-5.4h0a20.43,20.43,0,0,0,2.49-10h0c0-.75,0-1.47,0-2.09h0a18.41,18.41,0,0,0-.47-3.17h0l-1-3.26a24.67,24.67,0,0,0-1.57-2.68h0a5.14,5.14,0,0,0-.54-1.19h0L747.44-43l-1.17-1.44-.63-.75-.13,0-.31-.31-2.78-2.78c-1.88-1.73-3.74-3.65-5.75-5.39h0c-3.63-3.62-7.48-7.23-11.31-11h0c-15.4-14.76-31.27-30.2-47.28-46h0c-8-7.85-16.09-15.7-24.15-23.73h0l-6-6-3.15-3.08a28.21,28.21,0,0,0-2.62-2.13h0a8.29,8.29,0,0,0-1.14-1h0l-1.64-.94a15.31,15.31,0,0,0-2.59-1.07h-.14l-.13-.05-1.77-.53a2.23,2.23,0,0,0-1.3-.31h0l-3.81-.36h-.17l-.41.09-1,0-1.93.23c-.69-.1-1.61.45-3.27.84h0a12.81,12.81,0,0,0-2.66,1.12h0l-1.45.71-1.33,1.08h0l-1.67,1.28-.5.41v.09l-.18.17h0l-.42.4-3.13,3-6,6c-8,7.94-16.17,15.88-24.11,23.73h0c-16,15.7-31.95,31.24-47.28,46h0c-3.87,3.7-7.59,7.4-11.46,11h0C520.81-52,519-50,517.05-48.32h0l-2.53,2.55-2.46,2.9a6.58,6.58,0,0,0-1.53,2.45h0a12.73,12.73,0,0,0-1.5,2.77h0l-1,3-.36,3.44v1.43h0A20.67,20.67,0,0,0,510.31-19h0l.67,1.29,1,1.25c.76.93,1.63,2.14,2,2.66h0c1.68,1.62,3.43,3.32,5,5.1h0c3.31,3.31,6.62,6.73,9.87,10.08h0c6.38,6.61,12.6,12.9,18.56,19.1h0c11.95,12.13,22.92,23.42,32.7,33.28h0c9.78,9.81,18.25,18.47,25.25,25.52h0c1.81,1.7,3.45,3.47,5,5h0a49.24,49.24,0,0,0,4.43,4.19h0c.67.58,1.28,1,2,1.61h0L619,91.06h0a10.31,10.31,0,0,0,1.94.94h0c.65.26,1.26.53,1.7.67ZM749.18-47l1.39,1.48,1.29,1.64c.5.77.7,1.25.93,1.65h0a22.18,22.18,0,0,1,1.68,3.39h0l0,.14,0-.41c-.41-1-1.08-2.14-1.78-3.52h0a10.15,10.15,0,0,0-.83-1.55h0l-1.11-1.43-1.17-1.52L748.8-48v-.09l-.16-.23-.4-.48-2.73-2.64c-1.73-1.77-3.62-3.83-5.4-5.62h0c-3.71-3.75-7.47-7.58-11.17-11.46h0c-14.81-15.26-30.29-31-46-47h0c-7.88-8-15.87-16-23.86-24h0l-6-6a61.06,61.06,0,0,0-6.4-5.94h0c-.85-.63-1.35-1.22-1.68-1.35h0L642.85-154a13.94,13.94,0,0,0-4.16-1.74h0l-2.58-.8a9.09,9.09,0,0,0-1.92-.45h0l-4.19-.4h-1.23l-1.23.27-2.53.17a30.66,30.66,0,0,0-4.36,1.25h0a15,15,0,0,0-4.14,1.73h0l-2.24,1.25a13.71,13.71,0,0,0-1.41,1.3h0l-1.66,1.35-.78.52s-.25.28-.39.42h0l-.13.13-.47.39-3,3.05-6,6c-8,8-16,16-23.77,24h0c-15.85,15.94-31.29,31.73-46.13,47h0c-3.72,3.88-7.46,7.71-11,11.46h0c-1.93,1.79-3.65,3.85-5.53,5.62h0l-2.62,2.64-2.62,3.3a15.83,15.83,0,0,0-1.89,3h0a20.27,20.27,0,0,0-1.39,3.22h0a19.35,19.35,0,0,1,1.47-3.07h0a19.52,19.52,0,0,1,2.1-3.26h0l2.47-2.86,2.78-2.68c1.89-1.69,3.75-3.61,5.63-5.39h0c3.85-3.67,7.6-7.36,11.47-11h0c15.38-15,31.24-30.29,47.25-46h0c7.88-7.85,16-15.79,24-23.73h0l6.18-6,2.91-3,.27-.18c.13-.21.27-.31.33-.49h.09c0-.09.16-.09.32-.12h0v-.15h.13v0h0l.4-.35,1.79-1.38a7.11,7.11,0,0,1,1.86-1.38h0l1.5-.77a14.7,14.7,0,0,1,3.7-1.57h0c.85,0,1.94-.83,3.76-.83h0l1.79-.27,1-.05h.38a.77.77,0,0,1,.41-.1H630l.13.1h0l3.52.32a4.79,4.79,0,0,1,2.42.53h0l1.52.3a16.92,16.92,0,0,1,3.65,1.71h0l1.66.84a12.79,12.79,0,0,1,1.79,1.43h0c.78.68,1.79,1.25,3,2.41h0l3,3,6.09,6c8,8,16.16,15.88,24.15,23.77h0c15.92,15.67,31.79,31,47.19,46h0c3.83,3.62,7.59,7.44,11.42,11h0c1.94,1.82,3.76,3.7,5.64,5.39h0L748-48.4l.41.31c0,.09,0,.09,0,.14h0l.09.09h0l.13.13h0v.09h0l.54.62Zm-3.54,1.83Zm-.44-.58a.44.44,0,0,1-.09-.26h0c0,.13,0,.21.09.26Zm-.14-.89a1.64,1.64,0,0,1,.05-.46h0a1.64,1.64,0,0,0-.05.46Zm.18-.71Zm0-.05a1.72,1.72,0,0,1,.4-.53h0a1.72,1.72,0,0,0-.4.53Zm-138-101.8c-.21-.24-.49-.46-.54-.72h0a1.56,1.56,0,0,0,.54.72Zm3.32-1.79a2,2,0,0,1,0,.45h0c.09-.14,0-.32,0-.59h0v.14Zm-.54-1a4,4,0,0,0-.69-.4h0a4,4,0,0,1,.69.4Zm-2.35-.27Zm22.92-5.36v-.08h0v.08Zm-23.21,5.54Z"/><path class="cls-7" d="M1682.07,3l233.39-232.62a19.1,19.1,0,0,0,5.68-13.78h0a19.35,19.35,0,0,0-5.68-13.83h0l-232.86-232a19.5,19.5,0,0,0-13.87-5.71h0a19.65,19.65,0,0,0-13.84,5.71h0l.28.22.13.13a19,19,0,0,1,13.43-5.52h0a19,19,0,0,1,13.53,5.52h0l232.88,232a19.12,19.12,0,0,1,5.55,13.48h0a19,19,0,0,1-5.55,13.43h0L1681.67,2.63a19.16,19.16,0,0,1-13.51,5.54h0a19.53,19.53,0,0,1-13.58-5.54h0l-232.8-232a18.77,18.77,0,0,1-5.55-13.47h0a18.57,18.57,0,0,1,5.55-13.38h0L1655.3-489l-.13-.13-.28-.22L1421.37-256.66a19.64,19.64,0,0,0-5.59,13.79h0a19.92,19.92,0,0,0,5.59,13.87h0L1654.3,3a19.15,19.15,0,0,0,13.86,5.8h0A19.26,19.26,0,0,0,1682.07,3Z"/><g class="cls-37"><polygon class="cls-6" points="1668.46 -750.13 1159.74 -243.15 1668.46 263.8 2177.18 -243.15 1668.46 -750.13"/><g class="cls-38"><polygon class="cls-7" points="1159.74 -731.35 2158.34 263.8 2177.18 263.8 2177.18 -103.19 1528.03 -750.13 1159.74 -750.13 1159.74 -731.35"/><polygon class="cls-7" points="2158.34 263.8 1159.74 -731.35 1159.74 263.8 2158.34 263.8"/></g></g><g class="cls-39"><polygon class="cls-7" points="1855.11 -232.66 1708.57 -86.64 1855.11 59.43 2001.73 -86.64 1855.11 -232.66"/><g class="cls-40"><polygon class="cls-7" points="1708.57 -175.51 1944.3 59.43 2001.73 59.43 2001.73 -89 1857.48 -232.66 1708.57 -232.66 1708.57 -175.51"/><polygon class="cls-7" points="1944.3 59.43 1708.57 -175.51 1708.57 59.43 1944.3 59.43"/></g><path class="cls-6" d="M2003.16-86.65,1855.11,60.85l-148-147.5,148-147.48.77.76L2003.16-86.65Zm-3,0L1855.11-231.23,1710-86.65,1855.11,58,2000.2-86.65Z"/></g><path class="cls-41" d="M1668.16,2.68l-1-.12a6.19,6.19,0,0,1-2.91-.59,4.25,4.25,0,0,1-2-.76,8.4,8.4,0,0,1-2.28-1.43c-1.7-1.12-3.13-2.86-5-4.69-7.29-7.22-17.9-17.88-31.57-31.31-27.22-27-66-65.58-112.66-111.84-23.37-23.12-48.63-48.1-75.4-74.56-3.45-3.25-6.75-6.56-10.17-9.95l-1.21-1.47-.63-.67c-.17-.36-.3-.67-.43-.89l-.85-1.73-.6-1.92c-.13-.33-.27-.63-.36-.85l0-1a11.76,11.76,0,0,1-.13-1.87,14.67,14.67,0,0,1,.53-3.88,16.76,16.76,0,0,1,.64-1.78l.94-1.88c.3-.53.7-.94,1.06-1.52s.72-.83,1.26-1.42c1.65-1.7,3.37-3.44,5.14-5.13,3.45-3.49,6.85-7,10.44-10.44,13.93-14,28.21-28.42,42.59-42.88,29-29,59-59.11,89.44-89.63,15.31-15.2,30.62-30.65,46.1-46q11.51-11.58,23.11-23.11l11.64-11.64,2.91-3c.55-.44.89-1,1.43-1.43l1.89-1.56c.67-.39,1.29-.71,2-1.11a15.94,15.94,0,0,1,2.28-.85,8.54,8.54,0,0,1,2.24-.54l2.24-.21a16.21,16.21,0,0,1,9,2.94l1.57,1.25s.43.35.58.44l.36.36.66.71,3,3,11.6,11.64c7.7,7.71,15.46,15.44,23.1,23.11,15.4,15.39,30.79,30.84,46,46C1795-371,1825-340.89,1854.08-311.85Q1875.77-290,1896.65-269c3.54,3.48,6.95,7,10.48,10.44,1.66,1.69,3.44,3.38,5.15,5.21a18.9,18.9,0,0,1,2.2,3.13,21.62,21.62,0,0,1,1.34,3.7,10.55,10.55,0,0,1,.22,1.88,8.45,8.45,0,0,1,0,2l-.22,1.86-.49,1.88a6.65,6.65,0,0,1-.36.89l-.46.8a7.83,7.83,0,0,1-.85,1.79l-1.2,1.34-.59.8-.66.67c-3.4,3.39-6.76,6.64-10.17,9.95-26.72,26.41-52.07,51.44-75.35,74.56C1779-101.8,1740.1-63.21,1713-36.22c-13.65,13.43-24.22,24.09-31.66,31.31a34,34,0,0,1-4.92,4.69,8.66,8.66,0,0,1-2.33,1.43,4.16,4.16,0,0,1-2,.76,6.51,6.51,0,0,1-2.91.59c-.77.07-1.07.12-1.07.12m0,0s.3-.05,1.07-.12a8.85,8.85,0,0,0,2.91-.59,5.59,5.59,0,0,0,2-.76,11.74,11.74,0,0,0,2.33-1.43c1.57-1.16,3-2.89,4.92-4.69,7.29-7.27,17.86-18,31.49-31.45,27-27.08,65.71-65.84,112.19-112.29,23.09-23.28,48.35-48.45,74.85-75.18,3.27-3.35,6.63-6.73,10-10.12l.7-.58.49-.63,1.09-1.38c.31-.54.53-1,.75-1.46l.33-.64c.13-.3.13-.61.26-.85L1914-241l.18-1.64c0-.63,0-1.22,0-1.7s-.14-1.11-.27-1.69a14.49,14.49,0,0,0-1.17-3.08,9.76,9.76,0,0,0-2-2.82c-1.66-1.69-3.39-3.33-5.15-5.17-3.44-3.3-6.85-6.78-10.42-10.35-14.06-13.78-28.43-28.07-43-42.51-29.22-28.87-59.35-58.72-89.93-89-15.37-15.25-30.68-30.55-46.22-45.81-7.64-7.86-15.47-15.48-23.22-23.2l-11.68-11.6-2.83-2.81-.8-.8-.28-.32c-.17-.13,0,0-.3-.17l-1.66-1.39a13.08,13.08,0,0,0-6.49-1.87l-1.83.18a5.84,5.84,0,0,0-1.7.35,4.87,4.87,0,0,0-1.53.63c-.49.31-1.08.49-1.48.8l-1.43,1.16c-.44.4-1,.94-1.44,1.43l-2.91,2.81L1644.73-468c-7.74,7.72-15.5,15.34-23.24,23.2q-23.16,22.89-46.25,45.81c-30.57,30.3-60.69,60.15-89.84,89-14.65,14.44-28.92,28.73-43,42.51-3.54,3.57-7,7.05-10.52,10.35-3.36,3.52-7.7,6.66-8.65,10.93a26.14,26.14,0,0,0-.52,3.3c0,.41.17,1.17.17,1.74l0,.84c.08.28.13.51.21.76l.49,1.58.82,1.41c.09.27.26.54.36.81l.54.62,1,1.21c3.44,3.39,6.76,6.77,10,10.12,26.68,26.73,51.81,51.85,74.86,75.18,46.53,46.45,85.06,85.21,112.24,112.29,13.65,13.47,24.22,24.18,31.48,31.45,1.92,1.8,3.39,3.53,5,4.69a13.36,13.36,0,0,0,2.28,1.43,5.64,5.64,0,0,0,2,.76,8.22,8.22,0,0,0,2.91.59l1,.12"/><path class="cls-41" d="M1668.16,2.63l-.25,1.08h0a2.44,2.44,0,0,0-.85-.09h0a15.59,15.59,0,0,1-3.17-.67h0a7,7,0,0,1-2.28-.89h0a8.72,8.72,0,0,1-2.42-1.52h0a66.65,66.65,0,0,1-5-4.64h0c-7.23-7.27-17.94-17.85-31.55-31.37h0c-27.12-27-66-65.62-112.68-111.84h0c-23.33-23.11-48.72-48.05-75.4-74.59h0c-3.45-3.31-6.81-6.61-10.21-9.95l-1.25-1.52-.68-.76h0a3,3,0,0,1-.43-1l-1-1.64v-.13l-.66-1.93h0c-.06-.39-.23-.72-.28-1.11l-.08-1h0a16.48,16.48,0,0,0-.28-1.92V-243h0c.28-1.17.15-2.55.77-4.06h0A7.12,7.12,0,0,1,1421-249l1-1.83h0a6.37,6.37,0,0,1,1.15-1.65h0a12.25,12.25,0,0,1,1.31-1.52h0c1.75-1.82,3.39-3.52,5.19-5.26h0q5.17-5.08,10.44-10.43h0c13.91-14.06,28.14-28.3,42.66-42.89h0c29-29.07,59-59.06,89.35-89.62h0c15.31-15.18,30.54-30.61,46.12-46h0c7.7-7.72,15.4-15.44,23.19-23.19l11.6-11.65,2.86-2.86h0c.53-.45.9-1,1.61-1.55l1.74-1.49h0c.86-.53,1.66-.83,2.17-1.2h0a20,20,0,0,1,2.58-1h0a9.41,9.41,0,0,1,2.51-.57h0l2.1-.19h0a17.6,17.6,0,0,1,9.72,3l1.66,1.44h0c.1,0,.36.16.57.57l.32.31.81.67,2.95,2.86,11.51,11.65h0c7.7,7.75,15.58,15.47,23.24,23.19h0c15.44,15.39,30.79,30.82,46,46h0c30.49,30.56,60.39,60.58,89.41,89.62h0c14.51,14.59,28.75,28.83,42.76,42.89h0c3.39,3.56,6.89,7,10.3,10.43h0c1.68,1.79,3.49,3.44,5.23,5.36h0a10.77,10.77,0,0,1,2.36,3.44h0a14.76,14.76,0,0,1,1.36,3.69h0a13.44,13.44,0,0,1,.35,2.05h0a11.21,11.21,0,0,1,.05,1.3h0a5.93,5.93,0,0,1-.05,1l-.31,1.82v.1l-.55,2h0c-.08.25-.13.61-.26,1l-.53,1h0c-.32.54-.63,1.21-1,1.83l-1.25,1.48-.59.76-.72.67h0c-3.41,3.34-6.71,6.6-10.07,9.95h0c-26.83,26.54-52.07,51.48-75.44,74.59h0c-46.7,46.22-85.42,84.86-112.68,111.84h0c-13.67,13.52-24.36,24.1-31.56,31.32h0a44.64,44.64,0,0,1-5.12,4.73h0a8.51,8.51,0,0,1-2.32,1.48h0a6.53,6.53,0,0,1-2.38.89h0a12.88,12.88,0,0,1-2.91.67h-.17a4.58,4.58,0,0,0-1,.09l-.08-1.08Zm0-1c.08,0,.34,0,.75-.13h.19a6.88,6.88,0,0,0,2.63-.49h0a8,8,0,0,0,1.92-.66h0A23.26,23.26,0,0,0,1675.8-1h0c1.53-1.07,2.91-2.86,4.8-4.72h0c7.3-7.14,18-17.81,31.51-31.42h0c27-27.08,65.77-65.8,112.15-112.28h0c23.24-23.29,48.35-48.46,74.85-75.18h0c3.28-3.3,6.68-6.69,10-10l.68-.76.44-.44,1.17-1.42h0c.13-.28.36-.72.62-1.25l.28-.67h0c.1-.18.18-.46.31-.68l.41-1.46.08-1.61h0a1,1,0,0,0,.09-.54h0a6.1,6.1,0,0,0-.13-.84h0a5.83,5.83,0,0,0-.19-1.61h0a10.05,10.05,0,0,0-1-2.72l-.08,0,0-.18h0a10.88,10.88,0,0,0-1.79-2.45h0c-1.47-1.65-3.31-3.39-5-5h0c-3.55-3.48-7-7-10.53-10.4h0c-14-13.88-28.43-28.1-43-42.56h0c-29.15-28.85-59.31-58.84-89.94-89.09h0q-23-22.83-46.16-45.82h0c-7.75-7.76-15.49-15.43-23.24-23.16l-11.64-11.6-3-2.85-.77-.67-.3-.4h0a1.4,1.4,0,0,1-.19-.22l-1.51-1.21h0a11.67,11.67,0,0,0-6-1.74l-1.75.18h0a5.11,5.11,0,0,0-1.47.4h0a7,7,0,0,0-1.3.4h0l-1.43.85-1.38,1.12h0c-.33.26-.77.8-1.36,1.33l-2.85,2.81-11.65,11.6h0c-7.79,7.73-15.57,15.4-23.37,23.16h0c-15.4,15.3-30.81,30.6-46.06,45.82h0c-30.62,30.25-60.8,60.24-89.95,89.09h0q-22,21.69-43.12,42.56h0c-3.4,3.43-6.93,6.92-10.44,10.4h0c-3.38,3.49-7.55,6.6-8.36,10.26v.13l0,0h0a16.42,16.42,0,0,0-.4,3h0a9.32,9.32,0,0,0,.21,1.61v.76h0a2.63,2.63,0,0,0,.19.57l.45,1.48.72,1.33h0a1.63,1.63,0,0,0,.36.71l.4.58,1.13,1.3h0c3.24,3.26,6.6,6.65,10,9.95h0c26.51,26.72,51.67,51.89,74.82,75.18h0c46.47,46.48,85,85.2,112.28,112.28h0c13.48,13.61,24.09,24.28,31.3,31.42h0c2,1.86,3.44,3.65,4.93,4.64h0a6.32,6.32,0,0,0,2,1.33h0a6.16,6.16,0,0,0,1.89.71h0a6.12,6.12,0,0,0,2.64.54h.09a8.71,8.71,0,0,1,1,.13Zm.43-489.72h.14a14.43,14.43,0,0,1,7.17,2.05l1.66,1.38h0l0,.09h0c.33.23.18.23.33.27l.34.31.73.72,2.85,2.94,11.69,11.56h0c7.7,7.67,15.46,15.44,23.2,23h0q23.22,23.22,46.2,45.87h0c30.62,30.38,60.78,60.31,90,89.13h0c14.55,14.46,28.92,28.64,42.94,42.56h0c3.53,3.44,7.06,6.92,10.52,10.31h0c-3.4-3.44-7-6.87-10.44-10.35h0q-20.88-21.09-42.67-42.92h0c-29-29.05-58.87-59.11-89.36-89.67h0c-15.18-15.18-30.62-30.52-46-46h0c-7.76-7.67-15.42-15.39-23.24-23.2l-11.61-11.55-2.85-2.95-.78-.76-.31-.31h0l-.08-.09h0a3.56,3.56,0,0,1-.41-.35l-1.57-1.35h0a15.77,15.77,0,0,0-8.4-2.53l-2,.21h-.27a16.15,16.15,0,0,0-1.88.49h0a5.11,5.11,0,0,0-1.93.76h0a16.13,16.13,0,0,0-1.92,1l-1.84,1.51h0a6.72,6.72,0,0,0-1.39,1.38l-3,2.95L1642.9-470h0c-7.83,7.81-15.54,15.53-23.24,23.16h0q-23.1,23.22-46.06,46h0c-30.53,30.56-60.35,60.62-89.46,89.67h0c-14.41,14.49-28.6,28.86-42.57,42.92h0c-3.46,3.48-7,6.86-10.48,10.35h0c-.68.71-1.38,1.51-2,2.14h0a21.21,21.21,0,0,0,2-2.14h0c3.59-3.39,7.12-6.87,10.61-10.31h0q21-20.88,43-42.56h0c29.15-28.82,59.24-58.75,89.86-89.13h0q23-22.71,46.16-45.87h0c7.79-7.58,15.53-15.35,23.28-23l11.6-11.56,2.91-2.94h0a10.15,10.15,0,0,0,1.56-1.47l1.31-1.12h0c.79-.49,1.38-.66,1.78-.89h0a5.5,5.5,0,0,1,1.84-.75h0a11.16,11.16,0,0,1,1.78-.42l1.79-.17Z"/><rect class="cls-42" x="-63.6" y="-676.43" width="2014.01" height="716.9"/></g></g></g></g></svg>