<svg id="Layer_1" data-name="Layer 1" xmlns="http://www.w3.org/2000/svg" viewBox="0 0 567 557"><defs><style>.cls-1{fill:#fff;}</style></defs><title>Inverted Copyright</title><path class="cls-1" d="M281.16,12.87C426,15.42,546.29,134.86,544,285.5c-2.25,145.38-122.23,266.15-273.14,263.37-55.6-1-106.63-17.3-151.23-50.42C45.07,443.1,7,368.26,8.22,275.3,10.11,130.72,130,10.38,281.16,12.87ZM489.28,286.14A213.4,213.4,0,0,0,281,67.57C162.49,64.73,65.19,159,62.69,276A213.16,213.16,0,0,0,272.87,494.21C389.85,496.06,486.35,403.2,489.28,286.14Z"/><path class="cls-1" d="M423.22,245.47c-8.42,0-16.61-.07-24.8,0q-21.63.24-43.24.7c-2.15.05-3.59-.69-4.31-2.47-2.66-6.57-6.94-12-11.43-17.38-7.21-8.61-16.4-14.66-26-20-3.94-2.18-8.54-3.22-12.9-4.59-3.34-1.06-6.75-2.34-10.19-2.58-5.86-.41-11.77-.14-17.65,0a60.41,60.41,0,0,0-8.82.71,83.33,83.33,0,0,0-26.29,9.44,76.54,76.54,0,0,0-25.33,22.18c-4.24,5.8-7.15,12.62-10.35,19.13-5.76,11.75-6.31,24.41-5.33,37.08a77.33,77.33,0,0,0,6.13,25.13,87.91,87.91,0,0,0,16.7,25c6.93,7.43,15.24,12.86,24.39,17.23,15.3,7.32,31.4,8.69,47.85,6.48,5.84-.79,11.47-3.26,17.14-5.13,8.77-2.9,16.27-8.12,23.26-13.92A66.23,66.23,0,0,0,342.51,331c3.73-5,6.8-10.44,10.25-15.63A3.25,3.25,0,0,1,355,314q34-.07,68,0a4.62,4.62,0,0,1,1.07.43,134.78,134.78,0,0,1-19.29,46.8c-24.73,37.87-59.56,60.86-104.19,67.89-39.2,6.17-75.72-2.26-108.37-24.86-36.39-25.2-57.85-60.52-63.65-104.1-5.53-41.55,4.85-80.06,31.13-113,25.54-32,59.22-51,100.13-56,43.57-5.34,82.37,7,115.61,35C406.58,192.42,420.55,225.91,423.22,245.47Z"/></svg>